<mxfile host="Electron" modified="2024-05-21T11:33:19.512Z" agent="Mozilla/5.0 (X11; Linux x86_64) AppleWebKit/537.36 (KHTML, like Gecko) draw.io/24.4.0 Chrome/120.0.6099.109 Electron/28.1.0 Safari/537.36" etag="AkPgzp5lDuC2Jqr7WC9i" version="24.4.0" type="device">
  <diagram name="Page-1" id="pl15woqpvebKNx2_Fvp7">
    <mxGraphModel dx="1350" dy="829" grid="1" gridSize="10" guides="1" tooltips="1" connect="1" arrows="1" fold="1" page="1" pageScale="1" pageWidth="850" pageHeight="1100" math="0" shadow="0">
      <root>
        <mxCell id="0" />
        <mxCell id="1" parent="0" />
        <mxCell id="cR2AhyGAB9wr-QZq4QLK-1" value="" style="shape=image;aspect=fixed;image=data:image/png,iVBORw0KGgoAAAANSUhEUgAABYUAAAGXCAYAAADs5D9aAAAABHNCSVQICAgIfAhkiAAAIABJREFUeJzs3Xl8TNf/x/HXZCUJkYjEEiRBJCKbWGpfa6lStVNUq6V8dUFbVbRo6abVVn+qWlq1d0G1WnSzFbUnpLGLfd+TkG3u749EBIlMSGTxfj4e92HcmXvP55w7OTnzyZlzTXGxMQYiIiIiIiIiIiIi8kCwyusAREREREREREREROT+UVJYRERERERERERE5AFyU1I4KmJrXsUhIiIiki0at4iIiIiIiNwdzRQWEREREREREREReYAoKSwiIiIiIiIiIiLyAFFSWEREREREREREROQBoqSwiIiIiIiIiIiIyAPkHpPCifzz7mM0HrGCKzkTTwEpW0RERERERERERKRgumNS2Ig7wLLP3+Dpbh1o0qIlTdt1peuA13hr1ibOmlMOd6/enNZh5bC9P/GKiIiI3MLg4m8jaPLwMH48Y6TbfYVlI9tSt1lfPt+dnO71SWz7tAcNuv0f4Un3PVgREREREZE8Z5PpM+ZzLJ/wMm9FetPzudG86uuGzdULHD8UxeYD54gF3LCmyqMvMOL+xSsiIiJyCxPFg8PwNb5hU3gMHVsUwwQQH8mmSAc8Sp5ly9YTmKt6pvw1PPkQW7afwymkBlUzHwmJiIiIiIgUWpl/FErcyZpNMVR98iUGtiqfOqW4IpWrhdDoxov4593OvH7pf/zyTkuKASQe5++vPmXqb+EcTyiGd53HGRgcxWvT7Bj78yia2Mbz55sdeIv+vOUTzle/RnDskhmXaq0ZPPxZGntYAwZnN85m8pyVhB88wbk4K0pUDKZ174E828QTuwwDNji7ZS6TvvyFjfvPcc3aAZdSFWnUbxRDm5TS4skiIiKFmJVHCDU9E1i0JYqEFrWxB5L2bmW7VU36dDzJlK3hXOzuiasJzGe2s/mwLcE9qmOf5ZjD4PyyUXT5zJbhc9+kZXFTaokGl/8cR6cPrjJ49js85mYCI469y79m6ner2H74IsmOpQlo0Jn/PdeOasVMaKwiIiIiIiL5ReZJYeuSuLvClu0b2deuHL7FLPmoEk/E9JG8udyVXsP/j/ZV7Tm1YQ6ffLWVRB5K9zqD+HULWOI/mkmzx1AiYS/zRr/M2x97ETChNW4mg2tx1vi2H0yPyqUpYRvDvr++YeI7b2By/4JB1TJYrCJ2DZ+OXcDZdq8xZUxVXIjhVHQUB+30EUtERKTQs/aiVg1XZq3fyp6k2gTamDm8LZzL1brQtNYxFs3bRnhcW5o6GlwJ38puqjIo2AkTWY85XOq3pO7/fcBva87zcNuSKbOQjQus/n0T1BpCk5ImIJlDi97g+TkmOvxvDC8EuGF9PpJF//cpQ9+y5ut321LmqsYqIiIiIiKSP2SeFLYJ4MlXnuDge1/R9/FvKe1dBT/fqgTWakSrBlVxzejIq5v4celJAvq+wzP1S2MFlH70BQbs2sKQP25+qbXPYwzuGoCrFWBbhY7tazD9/S1EJramsZ0Vnk168kS615d+4mXObuvJ7FV76V+t2m2Bm2POcPqaM741Q6lSuihQErfSFQm4q2YRERGRgsUGvxrBOCzZzpajZgIrnGPbtmNUbhiEc8VShBT9jU27EmkaZmbHlv9I8u5EmJsJMGU95ihWm0caFOX1Fas52eZxyliB+fRqlm2zo8HoujibgITtzJuzm8D+sxjQrERK4tjDnUEvHWLDoF/541gbnrDTWEVERERERPKHO6ykZ6JEjSf5eF4XTuzZyY7d+9j93xZ+eHcBM7x7MXHikwQ73nyE+WQ00ddKUcs//Vcg7fEP8MHmlqSwTZmylEk3McbGqRhFk84Sc80AOxNJp7fw3ayF/LUjmjNX4klKNkiITSC5xHkMbmdVqiEdGy9i/Ku92BZck7DA6tSs35C6lUtgA0RFbM1244iIiEj+4x9UI8P9RQLDCLRexebt5+hTcgeb9pYlbLAbVrbFCKuewBdbD5AcnMCm8FjcG4dSIXUckvWYoyg1WzXC5ZUV/H70MfpUgGN//UFE8YZ8WNMBAPPJ3ey+GEvUhI7UnXBLYFbunD5nxipIYxUREREREckfsr69ipUDZfxqU8avNi0f68kzj07lqRcX8PXf7Zn0aLG7LNaEycoK0237U9O9SXv5+rVR/OTajSFD++FX2pkiNoms+aAvnxgZpYQBK3dajvyasG7b2LAlnPDtPzF+1pd49n6fz570y/QDpIiIiBQcd0qcmooFUcvX4IstOzhfZis7nYLoVtEKKEJQqC+nfw3naJOrbDnnRI2wyimDIAvHHHbVH+bh0r+w/I/9PNHXmhV/7MW96UBCiqS+wGzGbHKj06S5vFIjs+GVxioiIiIiIpI/ZHsRuyJlylLKKpmYK3G3zdi1Ku2FV5EzREadwZy2N56oyAMkZaMM87kdbD1Sgma9e9E8yIdy7iUp6XyFUyeSszjSlpKVa9O227O8/s5UPu3pzu5lf7MnO4WLiIhIwWRVirCwCiTu2Mii9REkB4biZwNgokRwCF7Rm1m2ciuH7AKpFZBy21qLxxw2vrRq4cWRP/4gfOefrDhUnpYt/bh+lwOr0r5ULXaRjeuiuHbHIDVWERERERGRvJd5UjhxPR8OHMmH835n7bZd7D8cTdTm5UyZMIut1pVp9FCZ2w8uWouOj5QmctYHTF93gFNnjxPxy6d8sTY2e0E5l8PT6SI7Nu7mshlIvsC2WZ+z6Ig502PMh1cw5aufWRt5kGNnz3Ny/yb+2n4GO8/yeOj+LSIiIg8Aa7xqhOB2eS3zl5+lWo0Ark/ktSobTA3XSL5bGIXJL4xQh5TvK1k+5rDC++EW+J39k0mfrOBklea08rG+8XSRMJ7oHczlxRMYNXM1kUdOc/LIXravWczkD75nZ5LGKiIiIiIikn9kvnyEtTf1Gnjw87q5vDf7BOfjzNg6ueEV0JAhE/vQ0dsauPUDkz3Bz7zNGOMTvnhnEN8mFsO7Tkf69wxm5Cw77C2NqkhtBo7qybufvUmnpTY4F3PBu2FX+tSL4svMjrF3wIj+hc+WfcXJC3GYHdypWqsr7wxqow9aIiIiDwgb3xrUKLaQpbEB1Ax2vrFUlXUlwoKKMGdpIlVrBFPy+tggG2MOq9JNeSToa97bbFDjhWaUv2l8YU3FjuP43Hk2X37/BUPmnOGqTTFKlfEhpGEn3KzQWEVERERERPINU1xsTNoqEFERW3NhPbskdkx5mv9FtGHWlB5U1IceERERuUvpxyqZPRYREREREZE7y/pGc9lkPr6exTvsCQryws0ujugNC/jw50uEPtfklhk1IiIiIiIiIiIiInK/ZZoUvusZN8YV/vtpCl99cobL8SacyvjToN94BrfLYA1iEREREREREREREbmvcnymsFW5loya0jKnTysiIiIiIiIiIiIiOUCTd0VEREREREREREQeIHecKfxf1K77FYeIiIhIlkx3eM7B0em+xSGSW7y8XiI6+uO8DkNEJMepfxORwqwg9nGaKSwiIiIicp1dM6YcjeHcsaMcPXqUo/u/5DEHwFSSxiOXEL5nN1F7Ivnzw/Z4WgPFWvL++r0cOX6cE8d289cnXalkC+BIyHOz2BAVxc6oPUT8+hYPe6T8WcPetwefrdzLsePHObZ7Pn0rWgEmSjYezdfLX2fXnv9Y+VHq+VP3/7pjzy37RUSyKZf7N7smE4k4nHruo0c5fSWe6E8aYav+TURyW66P3zLbf6Mf+/Pv1wpc/6aksIiIiIhIegm/82I1Tzw9PfGs9Cw/xYFN6BAmP3WS4bX98A94lAW+HzD+UWe4uoXJXWrgVbYsZap0ZEXoJ0zo4IzJozsTxrowrVkA1avV4rUTvXh/YCA21tUZNmsCnnPbUaVsWSrWf40/zhtgX59R07qw9/WJ+FfvxNKak3m3fQlMqfsjB4TevD+v20hECqZc7N/MK18mqELquSs05p2tB/lp4b8kqn8TkfshF/s328zGden6sRYtvy5w/ZuSwiIiIiIiWbDxroznng1svmRA4mFW/3OBhg/XwDbpHEeOXiEZsLIrShFbG+zsrDEZZszY4+hgA1ZFcCqSwPGjFzD5daBD0Xm8PWMXcUDS2WiOXjGwCWhFs6TfWBqejK2xhx8XH6Zxm9oUTd3//aaEm/bbZhqpNV6d/4/VkVFEhEcQse5DWjun7C/b5m1+2fIfkZG7iPh9Iu1Tp6yY3Jvy+g+biIqKIHzbGr7s4aUPCSIPkJzq38zpzmkd8ARPlFzMnHXx6t9EJM/kWP+WyX6rdP2YjXGmwPVv6g9FRERERNKzbcw7mw5waN8mfnyzJWWtIXFPJAf8m9LEwxqTYzUebemHRxkP7ABsG/LOlqOcO7mSrlHPM+z785hPz2XIsOMM2nSUI8d28X7R93jpmyOYKvrgedqBVjNXszViO2tmD6WeqwmrMp64nzmBdddnOLFuOG6nTlOsbFmKl03d//SSm/Y7ZTbVxKY6fUc8xN9PBBIUHETYo++zMQ5MpZ/gswll+KptEAEBAbSZU4n3x7XB0VSSzp/MoM3256hdLYjg2p35aMsVjPvY3CJyH+Vi/3YjKWxHrd7dsPphHlsTUf8mIvdHLvZvyZnsp8yNfmzjwmYFrn9TUlhERERE5LrELYyv54O3rw++Td7gSIeZfNbDHfPOjxnwfhLPL9vOtj/G4hzxL3FmI2XwnbiGEWGeuJVtwbxyz/NcvWKYnOszoJ89H9UqT/nygbwS8wrfDAvAxmTC/qGHsP34UcJCWjAhZgAzRjyEHWDCzOlfF9Km7zR2JaeEY0rdf+L7F2/an6nkI2zaVJTuEyfz5vM9aVTyKhcSwb5OS5p41GDQN7+wbNlSpvcpR7yTByXtw3i4wT7mztjKFQNIPEXUnnNKmogURrncv6Utl+nQiCc7XWbBvJ0kcaMfU/8mIrkmt8dvme3nRj/W9+X1Ba5/y6WksJlDM5+k0eCFnFePKyIiIiIFhXGJY0cukgTEH/2db34+RUBoFWyMK2z5/CkahwQSUrcL8864cDb6EInpDk0+v5E5y5Lp1q0OjnV70j15Nb8ejIfEo/yyZAfVmtbF+fQJjkf/zdJtlzHMZ/n79+24V/PD8eQxTpUqR8krZ9gYeR63su5cOX6cS8dT9rtf3nPT/pjMxtjGeZYOrEmz4T9xoGhT3v7rb96oYQsmE0mbJ9G1dWtat25N62a1Ce46ncNmU75b305Eckku92+uqZ1J8ZZP0vbwPBbsTcmCJJ9Q/yYiuSyX+zePepmM607e6MfC98QVuP4tG0nhOJa9XI+aNWtmuNV7YQkX01XOqXIDWtfxwj4HghQRERERuR9MJSvh55EygrVyqUnHh0uzZ+cBkihKmQqlsAXsvbsx8mlHlvywlWTPmjT0dcYKMDlWo8MjVTl5+BiJZ09z0a8xjUpbg8mZhxoFculgNBd2/slq69o0qGQPOBJax58L+w9wYecK/rZtQ9tQe0z2fnR+vCKrl2/iamTK/i51nG7an5hpBUrg5ePA6S3LmPXBSKaFl8XP2474f1ewPrgvzwY6pLzMqRL1QstilbiZFWsr0+PJYBxTKo23t4sSKSKFUG73b1cMwORG+z7NiJz7A4dS15NIilT/JiK5K7f7t0tnMhvXpevH7DwKXP9mY/lLi1B/6Ezm9jeAJLZMeY7JCc8w7aXUr7s5lqZ4WulWlKz/LK/Xz2Y0IiIiIiJ5yNqzA58ufIUQBzPJyRfZPmcAz806gWFyp/6bfzOptQvW8YdY9k5Pxv2bgFVwPYbO/IEFpWyxso5n/9JR9J8cRXzsRwyeOp1P1u7hzUQzCfvm0b/fX1y7ajDuxabM/H4H/e1MJB/6nv/1XUNCvMHbzy3kx6mvsPf9pzm+5EV6Lb6AkbyGt59byOxp4ewtmnRjf2YVsPKgxduzeCmwCIa1LXFbxtL/t1iMuNkMHFCJqTO30NcmGZPpAhsm9uPfbcf54cV+VJ36JZt22nA1PoZtH/am/8E7lCEiBVKu92+AVbnO9Km7kW8HnLjRh8SvUf8mIrkqt/u3mFPbM+73Usdvs6eF83exYhxeOKBA9W+muNgbk5ejIrbiH1Qj7bFh65DJYQmsfuNhRsSP4q/3Hr5pNnDCXyNoOvx34g2we+h1fpncMe1rJAlr3uSRSWcIdtrP1gvV6N2zHH9/9ROnKz3NpMlPUc0eSDrJ2i8nMuWnjURfsaNsWHuef20QjctmI38tIiIihZIpMe6msUr6x2F1G+VlaCI5wsvrJaKjP87rMEREcpz6NxEpzApiH5fjawrbNXuHfzZt5MfnAzKchmy+YE3NEZPoV34L036244Uvx1D/1CKWRiYB14j4/CXe/MeVHu/M4ocFn/C0xzrGjZ5HtDmDk4mIiIiIiIiIiIhIttz36bfWZYKoVbUqCdU8KHa2BsHe1Tha/hL/nE6AuA0s+CmeRz98hXbBtgCUeb4Pf7RfwKqjT+BVIZfuiyciIiIFnpfXS3kdgkiO0HtZRAor9W8iUpgVtD7u/q/JYG+PHWDY2WJnZ4fJZIudLSQkJJB0bB8Hrxxheb+6zEl/jFVZPM+bQUlhERERyURufV0rL78K9qCWndflq2yV/aCUr7LzxoNad5X9YJWd1+Wr7LyhuhesuuftQr2mdP8aKUsbG7a1eO2XKXQupXuCioiIiIiIiIiIiOS0fDX11rpcZXzs9hO+M0Z3AxURERERERERERHJBfkqKYxDPbp2KMHKj95k1rq9HD9+kJ1rfmDS6BlsTcrr4EREREREREREREQKvpxdPiJ5D1N79uar/cmpOyJpWWsC2IYw9MdpdM7yBEUIHvQp7xaZxNTxzzD1AhQvU4UazXtROn+lr0VEREREREREREQKpLtMCtvRaNwq/rl1t7Uvzy34l+cyO6zsWH5vmPq4/1yWpj5s+9Eq2qZFVJr6/d+jfv+7i0xEREREREREREREMqf5tyIiIiIiIiIiIiIPECWFRURERERERERERB4gprjYGOP6f6IituIfVCPtsWHrkGeBiYiIiNzKlBh301gl/eOwuo3yMjSRHOHl9RLR0R/ndRgiIjlO/ZtI4WSMGYNpzJi8DiPPFcQ+7o5rCvv7+9+vOERERESytCtiS16HICIiIiIiUuBp+QgRERERERERERGRB4iSwiIiIiIihZ2RzW1lnkSZtcJSDxERkcJEv58LJCWFRUREREQKu1WAKRtbflVY6iEiIlKYZOd3s34/5xtKCouI5BvJ7P2oMR7tZ3DayPrVaYzTzGjvQeOP9pKc0fPm40x7xINmnx7AnEORSnop18291RSOqIFFRERERESkAFBSWETEQkmbRxHi0ZtF8blVgoniAa3p2rwKRXOriMIq6TC/jGxPiKcbbuWCaTviJ6IT8zqouxOz8XMGdmpKUHlXnFwe5rNoZZpFREREREQkZykpLCKSb1jh0WoEk19sSDF9pSYbktk7pR/95lrRZ/Ya1s5/Bscf+vPUZ7tIyuvQss0gKfYajsGdeHXYo5TTb2kRERERERHJBfq4KSJZy2B5gpgF3fCo9RYR17NusTv4emBzqpUtiat7Bao3foKp4elScolHWDauOw9V8sDVrQKhHUbxy6H0UznjWdqvHAFD57NwZDuCPd1wKxtAt+n7M14SIT3zEaa0cqf+gNE81TAAnwpehHR8m79Pp5thGbOTmf9rkRJfaT+aDZhOeEz6NRoyLz9hz4c0KuGIc+NJ7I1ZSC9XRxwdHXF9/FvOZbXMQ+I6hlf3YeCK26cXJ6waQlXfl1iVAPGL++DmlHrejJaPyKp9AfP59UzqHkZ5t1J4N3qRhYfTt5xB8qHFDG3ui4dbWQLbjWbZ8XTP36l9jNPMaO9Og2GfMKJdDXxKe9x+/iyvb1YMLm76gkGtg6lQqiSlK9eh0xu/ccySSbJJkcyfvRWf/uN5sYk/fg0HMX6QHztmzWeHRVnhZA4ufp1ujQPx8nDFzTOQVoO+YtuV9BchG/EZ51g5oj5edYfz19nsrAMCYKJE0yFMfGMw3RtUoKj+OCAiIiIiIiK5QElhEckByeyf/hLDN/gxdtk2dm5azheD61AiLWEWx7/jOvHscncGf7uWbRsX8qrnCgb2m8KemzK+Zs4uep95xYfy065jHNr4JU/6F7VwHfpEIpZFUX/GZvbv/4c3XOby9NAfOWOklL9mTA9e3lCF0T9vYstv4wjYOoKeo1YSc9M5Mi7fxncYqy/GcmnVEKo4dWT2+VhiY2M5v6gPJbMKzrY6NYPi2RkefUty28zR8AguB9Ui0BbsO3zL2ZjLbH+rJrbZbl+AJHbPncu5bl/x519f082Yz6sfrORquue3z1mM3QsL+Xf9XHob39Lv+TmpSU1L2ieJnUv+pcqHa9l/aB2vuy1ieNr5Lb2+mUs+8BW9H3+LXSEj+XH9djYsGkvj5COctiApbMTsJPyAE6E1q2ANgDUVw2rgcjicHZcsScoaXDpvotagySxau53Ny96n3v6x9Bj5N3HZjc+4zIZ3uvHUilA+WziBZm7p3yBmjn3RBhfHlOT/zZuL1nwWERERERGR+8YmrwMQkcLAzMmjJzB5P0nTwAq4maBsRf8bT8f8ztSZ1+i1YCK96toBUOHtISzyn8ovBwYztIp16gsNEir0YsLLTfGyBpzq8YinpTFYUbrDYHpXKYqJcrQf1Jm32n7PHxc708NhHfN/PEuL9ybQPcwFEz68Pfxnqg2bzz/vNqVVkevnuJfyM+NISM3KHNi6gzgqc/Tbl/nC/AwT+3oTuX0v3jVDcc4y651F+6Zyaj2MNx4PpSjBvNA7jBlzwjma3JwqJgATxdu+whuPVccJGDK6J7Pbfc/y07152iWL9rFPbd/HBtLL1wETPjzWLoRR36Se/6ql1zczSYTP/Jz1lYexfnxXUl5enhcCLWth4/xZzuOCv/MpvnuyBaOTx/L7KyVxYStnz5uhZFbl2xDy9HhC0v5fgWHPNGTKB+vYn9SMQBsL4zPi2D65B0PmV+T9nz/m0TK3lmuFe5f/Y03dmAySvyYcynrqL7UiIiIiIiJyXygpLCI5wJaQjj3wfXwYdRv9TIsGtXmoVRe6NPHCAUiKjiTq0n6+a+HCp+kPs/bC+4wZ0pKGVrgGh1Ixqxxehqwp71M+bZatdXlvypuXsf9IMkapg0THlKOOb7G0WceOfn54xq3hwBkzlL+eiruX8jOPq2JYKMVmbWdXfAjrZs1jfnI5BvZoSXikHSE9fMi6uDu37/VyyvlUwC61HsWdi2G6GstVA1IqbY2Xv2/aDexsKvvhY/ya0j5GFu3jmXJO9zIeqbGacHAoCqnnt/z6ZiaO3f8doVTt2inJ+LtmRzF3Tzxxxj51j2WzzA0ub53O6yM/45et0ZyLTcRsgLVPRWINy+NL3P4Bz268RnLQCHw9Mv71auvihX9xM7fPXzZhZZ2jbzwRERERERGRTGlSkohY5NbkmtkwbkpsOT40mr92rOTzgQ0pdfo3xnVsSO+Zh1NnRBoYdo35eF8MsbGxN7bLkbxXL/1iCSaKFLW3MJF3u+TkdMk2czLJBmn/t2xl13srPzO2gTWpfiqCiH3rWG/bl6ecNrD2QAThRwOoFWyf9QnIqn1TYreyuqVLz7LSprS6Zt0+JkymW1rGuPHAsuubBSO76++mRuZaElcucO6SC20++JM/P2iDy6VzXMCVkq4W/Jq7toYxvUYRETKeFbtOcTkmlnNzOlP0lvd4VvGZHBswbtkcul+YxAsfh3PttleYOTatLW7OzjjftrnRYrKWjxAREREREZH7Q0lhEcmaqQhFi8K1q9dSk2TJnD555rYElq1bAC16vsC46b8x85nirFn+L1cBG68Aqtn/x/pNly1Mzt6NJA5E7k5bQzdh7y4OWFWkkqc1JlcvvJyOEbXnSlr5sbt3cbRoBbxLZaMbtLLGykgiMTv3TwNMzqGEee1m3dcruVivCz0axLBq+lqiPMOo4Wp5Cjqz9rVMMtG79qa9PmnfLg6YKlK54r23z71fXweqVivPmU2biLZwDeL0TE6BBHvHsG3LvtR1m5M5vHUbFyoEUT3rtTkwH99O+NkQnhjcBl8Xe0wkE71nH4lplbEsPhvf5rSp3ZZxEztzdtLzfBx+a1o4dfmI9etZf9u2mmk9tXyEiIiIiIiI3B/6/CkiFnAgIMiL6N+X8l8cJJ9ZybS5ESSlPZ/Ethmj+PjHf/jv0AmO7vyNRWvOUt63UsrX+J1a0r+vG78Mf5aPV+wkOno3m377khFPv8/abCZYM2dween7jFsSSfSeP/lw/ALimnemhYsJ7OvR7XFX/nhvJAu2HiR6+3eMfnc5xTt0o0GRrM98nXXZingSzh/Lo7ly9RrxiRbO67SuRFhwAr/M2U71xoH4Nwxl19xFXA6qia9Fi/hk0b4WMbi8dCLjf47k0N5VfPz2PC407UYrtxxon3u+vjYEPzmQuvs+5LlR37Np/1EOR/3NtHEz2J6U9dHYBNC9dygHvhzFZ6t3sXvtVEZOiSKwVw+CLGhfK3cfvB338c/a4yQCcXtm8/aMyHQ3BsxOfCZcWr7FxMfPMOn5j7k1L2zr6kP1oCCCbtsCqeyWsviHEXOMXTsi2LHvDPHmWI7vjiBixz7OJljQFiIiIiIiIiIWUFJYRCxgQ/UB7/Bcka9p5etLrV4L8W7bIHX9WgATjnbnWfFeP1qG+RPcaiThIeOZPiw0deFyB+q+uYhZvez48fkW1AhrTPcR33G8gj+eOdYL2VKj12PETmxHrYd6M7/Is8yY1AV3E4AjjcbN5b1auxn7SBihrUcTEfIWc8Y3wykbJZg8OjNieACbh4RRrpQbZbrO5pxFU2PtCa5VnSTrEBqH2mEb3IhQ2yQCaganJHWTInirljOOjsUJGb2ZmD+fx9vJEUeXh/ks2kzW7WsJG0J6tiP2o8eo+VAPZpn6MuOT7pSxyon2uffra+3zDN8uGk3VrW/RsU4QtR59ld8SS2PP3URbAAAgAElEQVTZRG5rqgyczpddE5jeoz71uk7lyuNfMON5P8vax6kNYz7rwtm36lO5aiCNnt9E06fb4JBuknG24jO50nr8Bzx2ehLPZ7iMxJ0lbp1Iu3p1adBvNofjw/mkY33qNnyWOUfuYhq1iIiIiIiISAZMcbExaSmNqIit+AfVSHvsFxSWZ4GJiFjMfIQpbWqyuP1Glv2vov7aJVKI7YrYctNYJf3jsLqN8jI0kRzh5fUS0dEf5/yJVwJNcvH198tKCkc9RB5Auda/iUieMsaMwTRmTPYOWkmh+/1cEPs45U5EREREREREREREHiCWf/NYREREJD8bk9cBiNy7aPLJDJOVFI6fqZUUjnqIFAL5pn8Tkby3kkL3+7kg9nFKCotI/pa0k3nj5hCR2Q3LbKrRbWRvBi0/xaD7GlgqC+MLycYN7QqVe22fvD5eCpYxeR2AyL3LN189HJPXAeSQMXkdgIhcl2/6NxHJWWPu0zH5XEHs47SmsIiIiBQYd1pTuFOPhXkZmoiIiIjIA+dg3xJ4f3Mxr8OQu3DHmcIODg73Kw4RERGRe1LQ/jIvkpGCOMtERMQS6t9ECqsx+tmmYPZxd0wKx8XF3a84REREREREREREROQ+sMrrAEREREQKHdss/l9QqB75S2Gph4iIiEhuye546W7GV4VkTKYbzYmIiEjhYWT9klxnAOuB5sA1oAhwNU8jujuqR57I9M7VBaweIiK3yrR/E5GCbSz5YwwO2R8v3c34KpNjCmIfp5nCIiIiUniY8sFmBWwGglJjCgY+yQdxqR4Foh5e3i8Vinpo06ZN261bpv2bNm3aCvZGPojh+pbd8dLdjK8yOaYg9nFKCotIIZLM3o8a49F+Bqez85dK4zQz2nvQ+KO9JGf0vPk40x7xoNmnBzDnUKQPNjPHvmiDR4tPOZidBo1fwlMeTjg6OuLSagpH8tPFMB9n2iMuODo64liyJ9/H5nVAkue2AGGpj8NS/18QqR75S2Gph4iIiEhuye546W7GV4VkTKaksIjcN0mbRxHi0ZtF8blVgoniAa3p2rwKRXOriMIq6TC/jGxPiKcbbuWCaTviJ6IT8zqoDFhVZsiqS1xYPojy13+DmU+w8pP/0a5OVcq5ueJR+SG6jVlKdML1g+L5qa87To6OKUlbR0cci/nw/F8JmRSSgazax6os/X+9wKW1r+B3rwszZVVWHj8fs/FzBnZqSlB5V5xcHuaz6Juz81f3fMfLbUMo7+ZCqYo16DBySf58L+W2zUDN1Mdhqf8viFSP/KWw1ENEREQkt2R3vHQ346tCMiZTUlhEChErPFqNYPKLDSlmyvrVcl0ye6f0o99cK/rMXsPa+c/g+EN/nvpsF0l5HZolkvbw11+xhD09gZlLfmPB2Iac/rIP3d/fzo1cpIlyPb9kzfr1rF+/nvXrlvJabUvvBnA/2yersvL6eYOk2Gs4Bnfi1WGPUu7WUURSBB/1GcTPxfszb30EG757EbelA3hq8q6MZ+HnGhMlG4/m1x172LXnP1Z+1B5P65zcb4FdQCnAG3AHdud2TJnsN5Wk8cglhO/ZTdSeSP788PrrHQl5bhYboqLYGbWHiF/f4mGPDDrO/F6PTOtXwOoBgB2NPolm3/Y+dCqez99XONHkjd/YGn2RhGt/8FzZ1PeOpddDREREJLfcNl7K4ddneIwJlzot89XY0qpUI4Z/t5m9Bw4QfTCChQMDuHVYpqSwyP2QwfIEMQu64VHrLSKuZ5Vid/D1wOZUK1sSV/cKVG/8BFPD06WcEo+wbFx3HqrkgatbBUI7jOKXQ+mn38WztF85AobOZ+HIdgR7uuFWNoBu0/dnnYwxH2FKK3fqDxjNUw0D8KngRUjHt/n7dLoZgDE7mfm/Finxlfaj2YDphMekX6Mh8/IT9nxIoxKOODeexN6YhfRyTZmt6fr4t5zLapmHxHUMr+7DwBW3Ty9OWDWEqr4vsSoB4hf3wc0p9bwZLR+RVfsC5vPrmdQ9jPJupfBu9CILD6dvOYPkQ4sZ2twXD7eyBLYbzbLj6Z6/U/sYp5nR3p0Gwz5hRLsa+JT2uP38WV7frBhc3PQFg1oHU6FUSUpXrkOnN37jmCVLLCRFMn/2Vnz6j+fFJv74NRzE+EF+7Jg1nx0WZT2TObj4dbo1DsTLwxU3z0BaDfqKbVduXATjzCre6RxKeTd3KjUezHcHEm+5F8E9vH/tGjPup28YM6ATLerVockT4xnX3Y29f67kULqD7UtVIjAoiKCgIIIC/SnndGsCLImYM8c5fibm5mTvPbdPNmRVVl4/j4kSTYcw8Y3BdG9QgaK3NKH58Er+3FeBHq/2p0GV8lSq04fxz4exc9737Lyff2Gwr8+oaV2IHBCKf/VOLK05mXfbl8CUU/tTi7HyepQXu/jfNrhKaQwgAngM2A7Y5nJMmey3DR3C5KdOMry2H/4Bj7LA9wPGP+qMyaM7E8a6MK1ZANWr1eK1E714f2Dg7Xcgzuf1sMlkf0G7HgDYhPBIszNsO1CBtg0dMn5v55N6mEjk0PL3eLr5AOadv9GbW3w9RERERHLLreOl1M/EmY7ds/v6jI6xrc/gd0Lyz9jSypM+X82iXeT/qFnJBy//try74eJt9wNUUlgkX0hm//SXGL7Bj7HLtrFz03K+GFyHEmkJvTj+HdeJZ5e7M/jbtWzbuJBXPVcwsN8U9tyUMTNzdtH7zCs+lJ92HePQxi950r8olk2aTSRiWRT1Z2xm//5/eMNlLk8P/ZEzRkr5a8b04OUNVRj98ya2/DaOgK0j6DlqJTE3nSPj8m18h7H6YiyXVg2hilNHZp+PJTY2lvOL+lAyq+Bsq1MzKJ6d4dG3JAfNHA2P4HJQLQJtwb7Dt5yNucz2t2py+/zPrNoXIIndc+dyrttX/PnX13Qz5vPqByvT3Xg0ie1zFmP3wkL+XT+X3sa39Ht+TmrS1ZL2SWLnkn+p8uFa9h9ax+tuixiedn5Lr2/mkg98Re/H32JXyEh+XL+dDYvG0jj5CKctSAobMTsJP+BEaM0qqb/wrKkYVgOXw+HsuGTJ4swGl86bqDVoMovWbmfzsvept38sPUb+TRyAcYYfhj7J5Ivt+WrNvyx5uTiLZ27i9pT3vbx/00siNiYeW/fSuKb9ljM4OrMrFUu6UrpqQ/pMXMWpW9s2eT+fP16Nau0nszvdc/fePjfqd+yLNrikX8YibXOh2acHSM6irKxiye3ns2IkJ5GMHXbpfgjt7O0xH9xBVFw2muoe2QS0olnSb3y/KQFbYw8/Lj5M4za1KZpD+69Xz7pCC/o9WuX2ROp1W0j5WtnW3I8p0/3elfHcs4HNlwxIPMzqfy7Q8OEa2BpmzNjj6GADVkVwKpLA8aMXMl43PR/XI9P6FbB62AI2AY/Q4soiJi06Q8O2dbHPx+8rW+I5+O9Kth+5ctPvZpvsXA8RERGR3JJuvHTdHcfu2X39LcfYBLSiXlJUvhlb2pfvSN+6G/hk0r9cMoBrR9i47dhtY30lhUXyBTMnj57A5F2HpoEVKFvRn/pdXqB7aGr3E/M7U2deo9fEifSqX4WKPjXp/vYQ6kYu5JcDN89mTajQiwkvN8XLyR5Hz3o8Uq+shT/oVpTuMJjeVYpisi1H+0GdKfHH9/xx0YD4dcz/8Swthk+ge5gP3qFdeXt4Ky4ums8/19Kf417Kz4wjITUrcyB8B3EkE/XtEF76JpIkrhG5fS/eNUNxzjJrmEX7pnJqPYw3Hg/FN+gRXugdxuWIcI6mNa+J4m1f4Y3HquNVpQlDRvek5JrvWX7a0vaxovRjA+nl64DJ3ofH2oXcOL/F1zczSYTP/Jz1lYfxxfiu1KpcHq/A1rwwvj+hFqxva5w/y3lcKOl8iu+erErVXvM56VwSF85z9rwlU41tCHl6PC93a0JolQp4VW/DsGcacmHDOvYngXHhd75bYUuXkSNo5e9NQLvRvJZutmW6SHLk/ZO4ezof/1KcHs+1xcUEYE3FVq/x8bTZLF72E58P8CLi3a70mZLJjQVzvH2us8K9y//dWMLipm0103p6YsqirKxiye3ns2JdoTa1Pfby4/Q/OJ4AiWf+YfLM9SQnX+Tchft3Z0CrMp64nzmB9dNLOLFuOG6nTlOsbFmKl82Z/bdNMs/MZqBsyr+5HVNm++33RnLAvylNPKwxOVbj0ZZ+eJTxwPb0XIYMO86gTUc5cmwX7xd9j5e+OZJxUjgf18O0J+P9dgWsHnZY49O6Jfarfmfz6j2cavoIYZllUvNBPTL7GUjMzvUQERERyS3pxku58vpbjrEq40nJ85fzzdjSwacqXqf2sj+LiTlKCovkC7aEdOyB7/ph1G3UhYEjPmDmymiu//wmRUcSdWk/n7ZwSZtZ6FTuGZbGnuXUmfQf4a1wDQ6l4l2t32dNeZ/yN2bAlfemvDma/UeSMc4fJDqmHP6+xdISeY5+fnjGHeJAjpWfeVwVw0IpFrmdXfEHWTFrHvO//Y398fsIj7QjJMwn469z3OTO7Xu9nHI+FVI/uFpR3LkYpquxXDVuPO/l75t2Azubyn74GIez0T5WuJfxSI3VhINDUUg9v+XXNzNx7P7vCKVq18brntrejmLunniWcU6boWZZ7svg8tavGNwmBC+PEhRzcsSj709cvRpLrAHJR/dzyFwJ/yrX0wJF8Q2olMFfXO/9/WOc+4uRfT4icfAM3mp6/XrYENJjKH3aNqR2rYY8PvQrPn+2NJvmfE9U+qywdVVeWXuRi+tHEJBhDHfbPjfYunjhX60a1TLYfEqmT5tkVVZeP58J+/q89vlQyvz6BFXdXfEIepFDTTpT3dYKq/s44jABJsyc+P5F2vSdxq7knNxvRdDrK9kfHc3eBU9RteOX7I6O5mDER7TIKPNl3I+YMt+fvPNjBryfxPPLtrPtj7E4R/xLnNkA5/oM6GfPR7XKU758IK/EvMI3w25fZyy/1yMpk/2ZzmvPp/UwrDxp3dqD1b9HkHB0D3/Ht+CRwDv8VS+P65GZTOt358NEREREcp4BYEMNS8fu2X192jHXx0xG/hlbmiz7/KaksMh9cusPpNm4+UOS40Oj+WvHSj4f2JBSp39jXMeG9J55OHXWloFh15iP98UQGxt7Y7scyXv10k8lMlGkqP1dfN0+RXKy+UZM5mSSjbQ+zsIPdPdWfmZsA2tS/VQEEfvWsd62L085bWDtgQjCjwZQKzjTL9je5M7tmxK71a1ZqywrbUqra9btY8JkuqVljBsPLLu+WTDu7mO3ybUkrlzg3CUX2nzwJ39+0AaXS+e4gCslXS34NXFtDWN6jSIiZDwrdp3ickws5+Z0pmjae9wEWGNtfaP+NtYZJTvu7f1jXNnIe92f5e96U5k3vCZOmb7SDr+AylidPsFpC6YK33P7pDFzbFpb3Jydcb5tc6PF5AMYWZSVVSy5/bwFrUXJRiP5JeoI0ZE72Lt/E//3kMEJK3c8XO7fkCP5xDFOlSqH++U9bIw8j1tZd64cP86l4zmx/yjrxjehkpcXVbp9ze6Fz1LVywvvoKH8kXBLIDWBEyn/5m5Mme+PMV9hy+dP0TgkkJC6XZh3xoWz0Yegbk+6J6/m14PxkHiUX5bsoFrTurhm9AOYj+uRaGSyP6M3Rj6uR5JHK9qGlaT91HD+XPEkfcpXpk2bqhkn6fNDPTL7dZOd6yEiIiKSW9LGS0lsnWDB2D27r7/pmJQx2VlX53wztrx6YA/RHlWolMltKq5TUljkfjAVoWhRuHb1WmqSLJnTJ8/c9jVdW7cAWvR8gXHTf2PmM8VZs/xfrgI2XgFUs/+P9Zsu5+JsmyQORO5OW0M3Ye8uDlhVpJKnNSZXL7ycjhG150pa+bG7d3G0aAW8S2WjG7GyxspIIjGbnw5NzqGEee1m3dcruVivCz0axLBq+lqiPMOokWEGI2OZta9lkonetTft9Un7dnHAVJHKFe+9fe79+jpQtVp5zmzaRLSFaxCnZ3IKJNg7hm1b9qUup5DM4a3buFAhiOpZr82B+fh2ws+G8MTgNvi62GMimeg9+0hMrYx1+Up4WR8jOm0tjiQORx+2aOkGi8Xt4P+e6Mmc8u/y4wetcL9jsyeyN2o/hkdZPKxv3n/55GEOn7x8UwLjXtvnhqyXj7DOoqysYsnt5y2vqgMly5WjpEMsaxb9zuWQutTMYkCSk5IiV/C3bRu61HHCZO9H58crsnr5Jq7m0H6Lu7AwUr5WViP3Y8o81qKUqVAKW8Deuxsjn3ZkyQ9biT97mot+jWlU2hpMzjzUKJBLB6O5klEnlI/rkfn+glSPbRRr8QiBvw8iqKofzZtPwO+JuZRq0xqvjPqyfFGPzGTjeoiIiIjklnTjpVx5/S3HJEWuYL2tfz4ZW24l/vAiZm2sywsv1U5ZbtOuLGHB5W5LAluw2qSI3DsHAoK8iP59Kf8NCSQgdiXT5kaQRLPU55PYNmMMq5zb0LKmD8Wv/MuiNWcp36pSyle3nVrSv68bjw1/lo+LvMHjvraciVrNwu8v0PaLV2mQI3dwMbi89H3GLfFmkN9J5o5fQFzzibRwMYGpHt0ed6XzeyNZUPkVHrLaxEfvLqd4h3k0KGJ5CdZlK+LJ9/yxPJo2j5TGzsYOe1sLksrWlQgLTuDjOdvp/V0g/jah7Oo0g8ttv8bXol4si/a1iMHlpRMZ/7M3z/md5bu353Gh6QRauZnAKov2ySrTe8/X14bgJwdSd/pYnhvlybvP1MUjYS/Lvj9I7defJiSrNrIJoHvvUD77ZBSf1ZtAa6s/eWNKFIHPTSXIgva1cvfB23Ef/6w9ztPdPEncM5u3Z0SSbN0QAFOJFnR5+HXenLqEQSEdKXX0Oz5fdAyzd9bntkjyAWY93Ym3z3Tgs9FVufhfBBcBk30pfHzL4HDxV8a/EUGFVnWpWtqG0+umM+bLU9Qe2wU/65vP80XnOoxPHs4/a9MtIXGP7ZOerasP1V3v9Iqsysrr58GIOcbug+e4uu8M8eZYju+OIOKKE2WrVsbNzszx5VP58bI/tSpac3j5R4yaa6LznO6Uv59/ho5fw9vPLWT2tHD2Fk3i+JIX6bX4AkZyDu1PLSZx9UsErc4kBisgCHgR+BRIzOWYMttvcqf+m38zqbUL1vGHWPZOT8b9m0CS6SMGT53OJ2v38GaimYR98+jf7y+uFbB6kNn+AlWPIrQZ8hD//TmYSwY4A1fXrWBd5QG0KjuJKUfN+a8e2NLgnQ3M7V2Rku6OdNh8hFeWv0jo02ssux4iIiIiueXW8ZIVYL7D2D27r8/omMQ1TB4ZwTv5YmyZABxmRr++eEyZypYDJbA2rrD1/R50DT92cz3iYmOM69uW9atvehwbG6tNm7Yc2mIO/Wy83NDTKO5SzqjaoK8x8dUWhmO114z1l2KN2NjLxrYvnjQaB5Q3XIraGkVKeBl1+3xi/HMy5sY5Lu4yFr7+uBHqWcywL1LMKF2lntH5lflG5OXrZZw3vutewvAa/LtxMbvxXdllfNDA0ag9cJzRN8zDcLB3Nio9PNxYcuDKjfhPrTMm937IqFDM3rAr5mnU6vmRsSZ9fJaUH3PC+GPcI0bVkkUMa5PJsG/5uXE4xpIYY4wDk5sZRVy6GfNPxRqxZ34werkVMRp9tMe4EhtrxF5ab7xWzcYgJf16Y7OrZ7wXeSXr9o05aExu7mTUfGu7cTm1zFMzHjWcrl+fK3uNSY0djZrPjTP61S5jOBRxNio1f8VYvN/C9snq/BZd36zb6OjKj4wnG1QyXIvaG06lqxkth35v7Lli4fEX/zPmvdDUqFSiiFHE2cdoPHiOsfOipWVfNnZ/94LR2NvNcPP0MfwbPGV8+mZ7o7j388YfqeeIiV5qvN7a1/BwL2d4h3QwXnyihuFY9x1jZ1p8Frx/zs8zuhavYgxZdenm/ae/MR4rwm3X39ortfxTy4yRzasZ5ZyLGDbW9kYJr4eMHu+sMA7d2jaXtxpjQm0N26BRxsZb293C9rm09hXDz+kx45vT99BfZFVWHj9/4bf+RlmrW9rbtrYxIeJyys/qgkFGHS8Xo6idg1HK72Hj+W+2GWfvti0y2G4dq6R/fFsfkJdbNQympz6ejoF/PohJ9SgQ9fDyeqlQ1EObNm3abt3u2L9p06atwG7GmDF5HsNNW3bHS3czvsrgmILYx5niYm+sChYVsRX/oBppj/2CwhCRB4D5CFPa1GRx+40s+19FrSsj+VP8Ep7yeoNyP2/m7Zr584suSdvGUKf1Hl47MJcujnkdTeG0K2LLTWOV9I/D6jbKy9Bu1gdwBD4HBgFXgFl5GtHdUT3uOy+vl4iO/jjjJwtQPUREbnXH/k1ECixjzBhMY8bkdRg3ZHe8dDfjqwyO8VpT8Po45X5ERKSAMGEims9auuPx6DSO3rood14yTjD9MQ/cm3/MPsMqx2+2KAVQGLAl9fGW1P8XRKpH/lJY6iEiIiKSW7I7Xrqb8VUhGZNpprCIaKawiBQYWc4UNu509H1iAOuB5sA1oAhk466W+Yfqkb8UlnqIiIhIoWKMHYPpzTF5HUaK7I6X7mZ8VYjGZPnz+7ciknOSdjJv3BwiMrv1t001uo3szaDlpxh0XwNLZWF8Idm4oV2hcq/tk9fHi9xv+WWati1w/efmGmCX7v8Fiepx393x69UFqB4iIrfS8hEihdQY8s8YHLI/Xrqb8VUGx3iVK3h9nGYKi4iISIFxp5nCnXoszMvQREREREQeOAf7lsD7m4t5HYbchTvOFHZwcLhfcYiIiIjck4L2l3mRjGgmnYgUVurfRAqrMfrZpmD2cXdMCsfFxd2vOERERERERERERETkPtD9pEREREREREREREQeILrRnIiIiIhIQWJk/RIRkfwmmoL1tWoRsdBYcn9ssgpokstlPICUFBYRERERKUj0wUhECqCCuN6miFhgDGDK5TJW5vL5H1BaPkJEJN9IZu9HjfFoP4PT2flLq3GaGe09aPzRXpIzet58nGmPeNDs0wOYcyhSERERERERESm4lBQWEbFQ0uZRhHj0ZlF8bpVgonhAa7o2r0LR3CqisEo6zC8j2xPi6YZbuWDajviJ6MS8DuruxGz8nIGdmhJU3hUnl4f5LFqpfBEREREREclZSgqLiOQbVni0GsHkFxtSLLe/flOoJLN3Sj/6zbWiz+w1rJ3/DI4/9Oepz3aRlNehZZtBUuw1HIM78eqwRymn39IiIiIiIiKSC/RxU0SylsHyBDELuuFR6y0irmfdYnfw9cDmVCtbElf3ClRv/ARTw9Ol5BKPsGxcdx6q5IGrWwVCO4zil0Ppp3LGs7RfOQKGzmfhyHYEe7rhVjaAbtP3Z7wkQnrmI0xp5U79AaN5qmEAPhW8COn4Nn+fTjfDMmYnM//XIiW+0n40GzCd8Jj0azRkXn7Cng9pVMIR58aT2BuzkF6ujjg6OuL6+Lecy2qZh8R1DK/uw8AVt08vTlg1hKq+L7EqAeIX98HNKfW8GS0fkVX7Aubz65nUPYzybqXwbvQiCw+nbzmD5EOLGdrcFw+3sgS2G82y4+mev1P7GKeZ0d6dBsM+YUS7GviU9rj9/Fle36wYXNz0BYNaB1OhVElKV65Dpzd+45glk2STIpk/eys+/cfzYhN//BoOYvwgP3bMms8Oi7PCmZefvOt9Grg35ZN96ep79U+e963IU4sv33v8NzFRoukQJr4xmO4NKlBUfxwQERERERGRXKCksIjkgGT2T3+J4Rv8GLtsGzs3LeeLwXUokZYQi+PfcZ14drk7g79dy7aNC3nVcwUD+01hz00ZXzNnF73PvOJD+WnXMQ5t/JIn/YtauGZ9IhHLoqg/YzP79//DGy5zeXroj5wxUspfM6YHL2+owuifN7Hlt3EEbB1Bz1EribnpHBmXb+M7jNUXY7m0aghVnDoy+3wssbGxnF/Uh5JZBWdbnZpB8ewMj74luW3maHgEl4NqEWgL9h2+5WzMZba/VRPbbLcvQBK7587lXLev+POvr+lmzOfVD1ZyNd3z2+csxu6Fhfy7fi69jW/p9/yc1KSlJe2TxM4l/1Llw7XsP7SO190WMTzt/JZe38wlH/iK3o+/xa6Qkfy4fjsbFo2lcfIRTluQVDVidhJ+wInQmlWwBsCaimE1cDkczo5Lli3OfKfyrat0pEv1SBYuOZB2DeP+WciypFZ0aVE8G/GbOfZFG1wcU5L/N28uWvNZRERERERE7hubvA5ARAoDMyePnsDk/SRNAyvgZoKyFf1vPB3zO1NnXqPXgon0qmsHQIW3h7DIfyq/HBjM0CrWqS80SKjQiwkvN8XLGnCqxyOelsZgRekOg+ldpSgmytF+UGfeavs9f1zsTA+Hdcz/8Swt3ptA9zAXTPjw9vCfqTZsPv+825RWRa6f417Kz4wjITUrc2DrDuKozNFvX+YL8zNM7OtN5Pa9eNcMxTnLrHcW7ZvKqfUw3ng8lKIE80LvMGbMCedocnOqmABMFG/7Cm88Vh0nYMjonsxu9z3LT/fmaZcs2sc+tX0fG0gvXwdM+PBYuxBGfZN6/quWXt/MJBE+83PWVx7G+vFdSXl5eV4ItKyFjfNnOY8L/s6n+O7JFoxOHsvvr5TEha2cPW+Gkvdavg8dutRgwpzF7H3xFfys41i7cDm0+ZwmTtmJ3wr3Lv/HmroxGSR/TTiU9dRfakVEREREROS+UFJYRHKALSEde+D7+DDqNvqZFg1q81CrLnRp4oUDkBQdSdSl/XzXwoVP0x9m7YX3GTOkJQ2tcA0OpWJWObwMWVPep3zaLFvr8t6UNy9j/5FkjFIHiY4pRx3fYmmzjh39/PCMW8OBM2Yofz0Vdy/lZx5XxbBQis3azq74ENbNmsf85HIM7NGS8Eg7Qnr4kHVxd27f6+WU86mAXWo9ijsXw3Q1lqsGpFTaGi9/37Qb2NlU9sPH+DWlfYws2vMrE1gAACAASURBVMcz5ZzuZTxSYzXh4FAUUs9v+fXNTBy7/ztCqdq1U5Lxd82OYu6eeOKMfeoey2aZZ1W+FeUf60qdsV+xePdQXqu4moXLbXl0RsPU9rc8flsXL/yLm7l9/rIJK+scfeOJiIiIiIiIZEqTkkTEIrcm18yGcVNiy/Gh0fy14//Zu/PwmK7/gePvmckimRCJSCxJJCGRyC6xL6nSomqnllpaSkt1QVXVUmtXVa3+FC0traV8K6rUUlpbhVoTVGwRRJRYI0EkM/f3RxaxxNyYkAyf1/OcZyZ3O+eee3PuzGfOPXcD3wxoRPlzqxjfoRE9557M6RGpoNhEMfVoGunp6bdS6gE+qZ9/sAQNpexsVQby7mYw5Au2GQ0YFPL+VjeIgHn5F8Q6OJKgs3HEHd1KjPVLvOywjS0JccQmBVIr1Nb0BjBVv9ll12rvaNJN7rQmb19N148GjeaOmlFuvVF3fE1Q1B2lu0rmXA5nLnHhihMtP1vP+s9a4nTlApdwppxzIS5z98lfW/F5XmiYSHT0v1zZFM0f9q3pVLfU7QuZLL+R07Na4eLoiONdyYVm02T4CCGEEEIIIYQQj4YEhYUQpmlKYWcHN67fyIkDGjj3X8pdASxrl0CadX+T8bNXMfeVMmxes53rgJVXIDVs/yVmR6rK4OyDyCLhwKG8MXRvHoknQVuFqu46NM5eeDmc5uDhq3n5px+KJ8nOE+/yhWgGtTq0ShaZhXl+GqBxDCfC6xBbv9/A5fqd6dYwjY2zt3DQPYKazupD0AXVrzoGEuOP5C2fdTSeBE0VqlUxv37MP772VK/hQcqOHSSqHIM4P41DMKHeaezZdTRnzF8DJ3fv4ZJnCEGmx+ZQl7+mPM+98BTJ0T/y9eI/KN26I7VtC7E+kDd8REwMMXelTczqLsNHCCGEEEIIIYR4NOT7pxBCBXsCQ7xI/GMl/14DQ8oGZi2IIytvfhZ75oxi6i9/8++JMyTtX0X05vN4+FXNvo3f4Vn6v+TCiuH9mLp2P4mJh9ix6ltG9PmULYUMsBZMIXXlp4xffoDEw+v5fNLPXGvaiWZOGrCtT5f2zqz7ZCQ/7z5O4t7FjP54DWXadaFhKdNbzqWrVAV3Ylm3JpGr12+QkamyX6euKhGhN1kxfy9BUcEENAonfkE0qSGR+KkaxMdE/aqikLpyMpN+O8CJIxuZOnEhl5p0oblLEdSP2cfXitDeA6h39HNeG7WEHceSOHnwL2aNn8PeLNNrYxVI157hJHw7iq83xXNoywxGTj9IcI9uhKiqXzX5a3Bu8QLNzn7L5OWOtO5QM98DAdWX39rZh6CQEELuSsFUc8ke/ENJO038vjj2HU0hw5hO8qE44vYd5fxNNfsihBBCCCGEEEKYJkFhIYQKVgS9+hGvlfqe5n5+1OqxFO9WDXPGrwXQoLe5yNpP+vJsRAChzUcSGzaJ2UPDcwYut6feB9H82MOGX95oRs2IKLqOWEyyZwDuRdYKWVOzR1vSJ7emVt2eLCrVjzlfdMZVA6Cn8fgFfFLrEOOeiyC8xWjiwiYwf9LTOBQiB41bJ0YMD2Tn4Agql3eh4gs/cUFV11hbQmsFkaULIyrcBuvQxoRbZxEYGZod1M2KY0ItR/T6MoSN3kna+jfwdtCjd3qGrxONmK5fNawI696a9CltiazbjR81LzHny65U1BZF/Zh/fHU+rzAvejTVd0+gQ50Qaj3/LqsyK6CuI7cO3wGz+faFm8zu1oD6L8zgavuZzHnDX3X9qMq/TDM6tSiD4tmadmHWhV9fpczdk2ldvx4N+/7EyYxYvuzQgHqN+jH/1AN0oxZCCCGEEEIIIe5Bcy09LS+kcTBuNwEhNfPe+4dEFFvBhBBCNeMppreMZFmbf1j9ehX5tUs8HMZk5rSryYxaa9k6OkSe1FpM4uN23fZZJf/7iHqNi7NoQhQJL6+3SUycev+FNgBPPYLCCCFEEVLVvgkhLI4ydiyasWMfbiYbKPGffSyxjZPYiRBCCHFfRm6knuXwbx/z9fYavNg1UALCQgghhBBCCCEsmnyvFUIIIe7HcIxv2tRm3KEqtPxgLv18dcVdIlGQscVdACHMl4hl9TARQgghhHjoNlDiP+tb4mc4CQoLIUq2rP0sHD+fuIIeWGZVgy4jezJwzVkGPtKC5VBZvrBCPNDusWJu/RT3+gA6XwZvuMTg+ywiSoixxV0AIcxnibceCiGEEEI8VGOLuwCmWeJnOBlTWAghhBAW435jCnfstrQ4iyaEEEIIIcQT5/hLZfH+4XJxF0M8gPv2FLa3t39U5RBCCCGEMIul/TIvxL1YYi8TIYRQQ9o3IR5XY+V/G8ts4+4bFL527dqjKocQQgghhBBCCCGEEEKIR0Bb3AUQQgghhBBCCCGEEEJYqMI8i1ue211iSFBYCCGEEEIIIYQQQgjxYFYCiopkzFn2vuMWiEdFgsJCCCGEEEIIIYQQQogHc1HlcpqcZSs8xLII1SQoLIQoQQwcmRKFW5s5nFMKsZpyjjlt3IiacgTDveYbk5n1nBtPf5WAsYhK+ngzcnpmS9yafcXxklRhGct52c0BvV6PU/PpnCpJZTMmM+s5J/R6Pfpy3VmSXtwFEkIIIYQQQohHJInsgK+adBpwL55iittJUFgIoVrWzlGEufUkOuNh5aChTGALXmjqi93DyuJxlXWSFSPbEObugkvlUFqN+JXEzEdchId+fgDaagzeeIVLawbikXsFU86x+oOONArypHzZsrj61KbD+0s5euPWamn/fMOAjk0I8XDGwekZvk4sZETZVP1qK9H/90tc2TIMf7NuhTIQ/2kDyur12QHm3FQmgGFbMp+A+UIIIYQQQgiLc7oQyyYhQeESQoLCQogSRItb8xFMe6sRpTXFXRZLYuDI9L70XaCl10+b2bLoFfT/68/LX8eTVdxFexQUA1qXurw0YQ7L/ljHL5PbY1zSjy4f7eRm9gJkpd9AH9qRd4c+T+VCX/keff3qqvZh7pYYYmJy0t/LGBxu9cTMN5+GclGj+X3fYeIP/8uGKW1w11nSdCGEEEIIISxIYYLCp4HKuX+UtM/hT9bndgkKC6HGPYYnSPu5C261JhCXGxVK38f3A5pSo1I5nF09CYp6kRmx+UJGmadYPb4rdau64eziSXi7Uaw4kb9nXAYr+1YmcMgilo5sTai7Cy6VAuky+9i9h0TIz3iK6c1dafDqaF5uFIiPpxdhHSby17l8vSHT9jP39WbZ5avgz9OvziY2Lf8YDQXnf/Pw5zQuq8cx6guOpC2lh3N27z7n9vO4YGqYh8ytDA/yYcDau7uP3tw4mOp+b7PxJmQs64WLQ8527zV8hKn6BYwXY/iiawQeLuXxbvwWS0/mrzkFw4llDGnqh5tLJYJbj2Z1cr7596sf5Rxz2rjScOiXjGhdE58Kbndv3+TxNUXh8o6ZDGwRimf5clSoVoeOY1ZxWk2H1qwDLPppNz79J/HWUwH4NxrIpIH+7PtxEftURi2VlI181CkcDxdXqkYNYnFCJrcOgYHjy96nS1QwXm7OuLgH03zgd+y5mr2EwZzzI48Z57+2Is++MYy+7ZvRoFYkjToMY1RXD07EbOOMEUBD2SaDmTxmEF0bemJX4A8OWaSlJJOcknZ7sLcI6rewNLau+AWHEBKSk4KrU0mveWLmm822AaNmdebAq+EEBHVkZeQ0Pm5TFo2lTC+6mhBCCCGEEOLhS7r1Vuv1PG91DqDAmGkSt4LCJe1z+BP2uV2CwkIUCQPHZr/N8G3+jFu9h/071jBzUB3K5gX0rrF9fEf6rXFl0Lwt7PlnKe+6r2VA3+kcvi3iZeR89KcsLDOEX+NPc+Kfb+kdYKeyockkbvVBGszZybFjfzPGaQF9hvxCipKd/+ax3Xhnmy+jf9vBrlXjCdw9gu6jNpB22zbunb+V31A2XU7nysbB+Dp04KeL6aSnp3MxuhflTBXOOojIkAz2xybeEdwzkhQbR2pILYKtwbbdPM6npbJ3QiTWha5fgCwOLVjAhS7fsf7P7+miLOLdzzZwPd/8vfOXYfPmUrbHLKCnMo++b8zPCbqqqZ8s9i/fju/nWzh2Yivvu0QzPG/7ao9vwQwJ39Gz/QTiw0byS8xetkWPI8pwinMqgsJK2n5iExwIj/TNufDqqBJRE6eTsey7oiIqq6TwvyG9mXa5Dd9t3s7yd8qwbO4OboW0Fa5c1FBr4DSit+xl5+pPqX9sHN1G/sU1QGfO+XEbc87/XAbSEtby87pkKoSG4lqYq5zhGN+0r0GNNtM4lO+4mV2/ebLHana6c+gEvR693knGvC5CVoHNeTprFUt23MRaOcwvy04S1bI2dhYy/e42UAghhBBCiBIsX1BY59mMvs/7UuB9gPnGFJbP7cVLgsJCFAkj/yWdQeNdhybBnlSqEkCDzm/SNfd26LQ/mDH3Bj0mT6ZHA1+q+ETSdeJg6h1YyoqE23uz3vTswYfvNMHLwRa9e32eq19J5T+qlgrtBtHT1w6NdWXaDOxE2XVLWHdZgYytLPrlPM2Gf0jXCB+8w19g4vDmXI5exN838m/DnPwLoicsshoJsfu4hoGD8wbz9g8HyOIGB/YewTsyHEeTUT8T9ZvDocVQxrQPxy/kOd7sGUFqXCxJedWroUyrYYxpG4SX71MMHt2dcpuXsOac2vrRUqHtAHr42aOx9aFt67Bb21d9fAuSRezcb4ipNpSZk16gVjUPvIJb8Oak/qi5o165eJ6LOFHO8SyLe1eneo9F/OdYDicucv6i6TCjcukPFq+1pvPIETQP8Caw9Wjeu+1XTyvC+kzinS5PEe7riVdQS4a+0ohL27ZyrEh7yppz/hlJ/rYVLmXKUiGkF2sDprB0fKMiGZva3Pq9RYtr5/9jc0y+YRPy0iZmdXfP29esfz+mnuOtoHHZeh9xIN+p9LjPN5e2ojuuKWfQ9VnOma3DcTl7jtKVKlGmkmVMd7D0LgdCCCGEEOLJkPuF62Ih1rkAVMpeVz63F6+iHMBPiCeYNWEduuHXfij1Gv9Gs4a1qdu8M52f8sIeyEo8wMErx1jczImv8q+m88I7xQi+uTdWaHEODafKA41No8PDxyPvlyqdhzcextUcO2VAKX+cxLTK1PErnRfo0/v7435tMwkpRm49scuc/AsuV5WIcEr/uJf4jDC2/riQRYbKDOj2LLEHbAjr5lPwbSV57l+/uflU9vHEJmc/yjiWRnM9nesK2U84RYdXgF/eNcuqmj8+yu/Z9aOYqB/37G26VnTLKasGe3s7yNm++uNbkGsc+vcU5WvXxsusurehtKs77jhimzNFzTXKkHSME8aqNPW1yZlih19gVawScpdQSN09m/dHfs2K3YlcSM/EqIDOpwrphekoa5I5558W107T2Vz/IufjVzN1zDiGzY1kyWv+2JheOZuuOsO2XGZYgQs8WP3mZ+3kRUAZI3dXmwatTgc5/el1Vfvw3dx++OXUhcauAlXz1cvjPt9c2Q82NnJmyVu03HKR+OCZFjVdCCGEEEIIi1A259XRippvr2NJfy90tk5UdOjGoaivUFKX0i9yCOtu5lvHETBmr1vSPoc/aZ/bJSgshEp3Bn+MinJbYEdfdzR/7uvAxrXr2bR+GeM7fMXyL/5mSW9PQEGxiWJq/Er6VbxfGElDKTvbBx6XxmDIF2wyGjAo5P2tLnZnXv4FsQ6OJOjsYuKObiXG+iVettvGloQKxCYF8lyorekNcP/61eaUXau9o0+pyZ3W5O2r6frRoNHcUTPKrTfqjq8JyoNFWDXO5XDmEheuONHys/W0BG5uWsslnCnnrKafrQbQodPl6xusy3d5uLGZsT1GEdd2NmsXNMPXyZaMZb2pMkpReV6p3hOzzj8rpyoEOFWBwDACM3YTMOYbtvb5kqdUR4ULKJXZ9ZvLyOlZrQgasombd82zoc5Hu1j3ZpXsPHPH3C3gKv24zzeX4cxpzpavjGvqYf65qMWnuStXk5O5kmwZ09OK9h9LCCGEEEKIh6NC7msWuz98iqofgnXjqezq+ye1ei/n7icL5axzPftVPrcXLxk+Qgg1NKWws4Mb12/kBMEMnPsv5a7xP61dAmnW/U3Gz17F3FfKsHnNdq4DVl6B1LD9l5gdqUUcRMsvi4QDh/LG0L15JJ4EbRWquuvQOHvh5XCag4ev5uWffiieJDtPvMsXohnQ6tAqWWQW5vlpgMYxnAivQ2z9fgOX63emW8M0Ns7ewkH3CGo6qw8BFlS/6hhIjD+St3zW0XgSNFWoVsX8+jH/+NpTvYYHKTt2kPgAt9BrHIIJ9U5jz66jOf1MDZzcvYdLniEEmR6bA51HVbx0p0nMG2sji5OJJ/PGgDYm7yX2fBgvDmqJn5MtGgwkHj5K5p07+4Dnx8OgKArGtKuFvEhnkvrfSU7+l0r+XTC3fm9RP3yEME/WgbX8Zd2SznUc0Nj606l9FTat2cF1C5leAv6FhBBCCCGEMK3CHa9q17mc/Sqf24uX9BQWQhV7AkO8SPxjJf8ODiYwfQOzFsSRxdM587PYM2csGx1b8mykD2Wubid683k8mlfNvs3c4Vn6v+RC2+H9mFpqDO39rEk5uImlSy7Raua7NCyS0ckVUld+yvjl3gz0/48Fk37mWtPJNHPSgKY+Xdo70+mTkfxcbRh1tTuY8vEayrRbSMNS6nPQVaqCO0tYtyaRls9VwMbKBltrFWEsXVUiQm8ydf5eei4OJsAqnPiOc0ht9T1+qlohE/WrikLqyslM+s2b1/zPs3jiQi41+ZDmLhrQmqgfU4FFs4+vFaG9B1Bv9jheG+XOx6/Uw+3mEVYvOU7t9/sQZqqOrALp2jOcr78cxdf1P6SFdj1jph8k+LUZqnpiaso2o/Mz7/PBjOUMDOtA+aTFfBN9GqN39nytqw/e+qP8vSWZPl3cyTz8ExPnHMCga3Tbdh74/DCTMXkpH3x8mGrP1KV6JT03jq1l2oT12DebSe2cXsJK2mkOHb/A9aMpZBjTST4UR9xVBypVr4ZLbk9iQwIzO9VhkmE4f28ZQWDucAZm1m9+1s4+BDnfb4kiHFj3SZaxmYmvLeWnWbEcscsieflb9Fh2CcVgIdOLu/6EEEIIIYRQw+2OVyBz09uEbDKxTkrOq3xuL1YSFBZCFSuCXv2I1zYPoLnfHCoGPkO/Vg2xWZE7X4Pe5iJrP+nL5IT/uG5bmfA2k5g9NDznn8yeeh9E86PdCCa80YwJ58HJI5iG7d7EvchiZtbU7NGW9MmtqbX/BhUbv8acLzrjqgHQ03j8Aj55ZwjjnovgP8oT2noC8yc9jUMhctC4dWLE8FW8PjiCyr0zsHpmOkeW9qKcyc6StoTWCiLrt/JEhdtgrW1MuPUsTkaGZgd1s+KYUK8RH/+b+9SynXg7vAE29flkzxoGeZmqXzWsCOvemvQpbYmMu0bFBv2Z82VXKmqLon7MP746n1eYF21k5KgJdKiTxE3HqtTvPo5WqtbX4TtgNt+eeZ1R3RowXqlEnZ4zmfOGv7r60ZSn05TvOfzaYBr5vYd9pVq0aRqGde6Ywg4tGfv13/Qf3oBqY8pQ3iuKAX1asn7eHZt54PPDPBr78jhfncW0oV9z4lwaOHoR2foTfpmYe/5D5u7JtG41i+Sc7v1fdmjAl9a1+XDXOt4yOZitmfUrioHC+T/H0iJwrIVOF0IIIYQQwgI8aE/h5Nx1Strn8Cfrc7vmWvqtm2sPxu0mIKRm3nv/kIhiK5gQohCMp5jeMpJlbf5h9etV5BZ08XjKWM7LXmOo/NtOJkaWzHBs1p6x1GlxmPcSFtBZX9yleTzFx+267bNK/vcR9RoXZ9GEKBJeXm+TmDi1uIshhBBFTto3IR5DX4JyaSwap7Hwlvp1+BtogPp1LIAltnESOxJCCGEhNGhI5OtnXXF7fhZJdw7qXZyUM8xu64Zr06kcVbRF/rBGIYQQQgghhChxHrSn8KFCriMeipLZ1UoIIYS4k21r5py5zJziLse9aCrS99ez9C3ucgjTY4ALUcIlYlk9TIQQQi1p34R4zCjA2pz3jqj7HJ67zqFCrGMhLLGNk6CwECVd1n4Wjp9PXEGPtbSqQZeRPRm45iwDH2nBcqgsX1ghHmj3WDG3fop7fXMVd/7iySPdtIWFs8RbD4UQQg1p34R4DGmBMcBzgNo7ObU5yxZmHQtgiW2cjCkshBBCCItxvzGFO3ZbWpxFE0IIIYQQ4olz/KWyeP9wubiLIR7AfXsK29vbP6pyCCGEEEKYxdJ+mRfiXiyxl4kQQqgh7ZsQj6ux8r+NZbZx9w0KX7t27VGVQwghhBBCCCGEEEIIIcQjoC3uAgghhBBCCCEKSVfcBTCT7o5XS2Rt4m8hhBBClHxP8PVcHjQnhBBCCCGEJbECVgDNi7sgDyj3yePtgGVY5n4oQAzQFLgBlAKuF2uJhCjxErGs26qFECqNI/u6aImK8HpuiW2c9BQWQgghhBDCklQELhZ3IcygIbv8wTmvGgtMWmAnEJKzT6HAlyWgXJIkleDk5f12sZdBkiRJDyFRAsrwoKkIr+eW2MZJUFgIUYIYODIlCrc2czhXmF8alXPMaeNG1JQjGO4135jMrOfcePqrBIxFVNLHm5HTM1vi1uwrjpekCstYzstuDuj1epyaT+dUSSqbMZlZzzmh1+vRl+vOkvTiLpAQ4rFWGUii2L9ImJVOA4E5+2GpdgEROe8jcv4WQgghhGV5gq/nEhQWQqiWtXMUYW49ic54WDloKBPYghea+mL3sLJ4XGWdZMXINoS5u+BSOZRWI34lMfMRF+Ghnx+AthqDN17h0pqBeORewZRzrP6gI42CPClftiyuPrXp8P5Sjt64tVraP98woGMTQjyccXB6hq8TCxlRNlW/2kr0//0SV7YMw9/cgZlM5WXOfOMZNnz5Oq3rVKeyizNu1erSZexKEm+qW9+YNIMWTvrs4He+5FDhZZbn3GZ1/fBi3mkVhoeLE+Wr1KTdyOV3nItGLmybzoDmoXiWL4ebVxjNB8zn0D1/0RFC3JM72UFVS5YEVMWy92MnEJnzPiLnbyGEEEJYlif4ei5BYSFECaLFrfkIpr3ViNKa4i6LJTFwZHpf+i7Q0uunzWxZ9Ar6//Xn5a/jySruoj0KigGtS11emjCHZX+s45fJ7TEu6UeXj3aSHetUyEq/gT60I+8OfZ7Khb7yPcr6NZWXmfOzDvPnn+lE9PmQuctX8fO4Rpz7thddP91Lpor1tW6dmb45hpiY3LSRrzq4UrZpSxqWArLimNJrIL+V6c/CmDi2LX4Ll5Wv8vK0+Lxe/Bmxn9Op3cccDnuX+es38vv3I2iiJHGmSIPCGspFjeb3fYeJP/wvG6a0wV1nSdOFMKEy2cFUrQ9DtlwnLSWJpKTsdPy3AXhbFdP0wrSvp/PtBw48NWYVuxMvc/PGOl6rlPshoLimqxQPlAe8AVfgUNG0AZryzzL+91hOnvmP/04fZPXHz+Nxn+VtnppM3Mlbx+Lc1QwSv2yMtaYcUSOXE3v4EAcPH2D957faGG35xgxfvJMjCQkkHo9j6YBAi37mnxBCCPHAiuh6/v2a91UuryfstR/ZdvAg+w8eJu73CTzjpjG5/YfxXUKCwkKocY/hCdJ+7oJbrQnE5UaF0vfx/YCm1KhUDmdXT4KiXmRGbL6QUeYpVo/vSt2qbji7eBLebhQrTuTvPpfByr6VCRyyiKUjWxPq7oJLpUC6zD527yER8jOeYnpzVxq8OpqXGwXi4+lFWIeJ/HUuX2/ItP3Mfb1Zdvkq+PP0q7OJTcs/RkPB+d88/DmNy+pxjPqCI2lL6eGc3TvQuf08Lpga5iFzK8ODfBiw9u7uozc3Dqa639tsvAkZy3rh4pCz3XsNH2GqfgHjxRi+6BqBh0t5vBu/xdKT+WtOwXBiGUOa+uHmUong1qNZnZxv/v3qRznHnDauNBz6JSNa18Sngtvd2zd5fE1RuLxjJgNbZPeerFCtDh3HrOK0mg6tWQdY9NNufPpP4q2nAvBvNJBJA/3Z9+Mi9qmMWiopG/moUzgeLq5UjRrE4oTMfM8KMHB82ft0iQrGy80ZF/dgmg/8jj1Xs5cwPILz4760FXn2jWH0bd+MBrUiadRhGKO6enAiZhtnjAAayjYZzOQxg+ja0BO7Ar/zZ5GWkkxyStrtwd4iqF/VTOVl7nybKMb/+gNjX+1Is/p1eOrFSYzv6sKR9Rs4YVCxvnU5fIJCCAnJSVUvsWe7wrNdW+KsAePJDaw/6km3d/vT0NeDqnV6MemNCPYvXML+LEC5yK+fTuVg3fHM++hFGoUEEdGkC+/NGM5TNkVYj7YNGDWrMwdeDScgqCMrI6fxcZuyaCxlehFWhXhMuXNr2AUlhfndfXB3d8fd3R3v1t9kD/1TXNMBrdfzvNU54P5BxiSgXO5+ZHJizSf0afoqCy/mv3AU13SV+2EE4oC2wF7AuqjagKvsntaVEI8KVAx8hbjm3/FpO8cC27bMDe8Q4pl9HNw9o/ho93F+XbodJXww017+j+G1/QkIfJ6f/T5j0vOOoHWn13c/0vrA60RW9cEroBUfb7tssc8IEkIIIcxSRNfzI+9PVrW81q0rH45zYtbTgQTVqMV7Z3rw6YBgrIrhu4QEhYUoEgaOzX6b4dv8Gbd6D/t3rGHmoDqUzQvoXWP7+I70W+PKoHlb2PPPUt51X8uAvtM5fFvE18j56E9ZWGYIv8af5sQ/39I7wE7lP3UmcasP0mDOTo4d+5sxTgvoM+QXUpTs/DeP7cY723wZ/dsOdq0aT+DuEXQftYG027Zx7/yt/Iay6XI6VzYOxtehAz9dTCc9PZ2L0b0oZ6pw1kFEhmSwPzbxjuC2kaTYOFJDahFsDbbt5nE+LZW9EyKxLnT9AmRxaMECLnT5jvV/fk8XZRHvfrYh34NDs9g7fxk2by5le8wC5Q0uIQAAIABJREFUeirz6PvG/Jygq5r6yWL/8u34fr6FYye28r5LNMPztq/2+BbMkPAdPdtPID5sJL/E7GVb9DiiDKc4pyIorKTtJzbBgfBI35wvrjqqRNTE6WQs+66o+IqnpPC/Ib2ZdrkN323ezvJ3yrBs7g5uhbQVrlzUUGvgNKK37GXn6k+pf2wc3Ub+xTVA9wjOD/UMpCWs5ed1yVQIDcW1MFc5wzG+aV+DGm2m3TaUgdn1myd7rGYn/d3DL+j1Tjz9VQIGE3mZKkvhy5pFeloG1q4VcNYWdl8Vrqydz29KK7o9XTp7iiELAzbY5DtmNra2GI/v4+A14OZO/tpyg5qtmlPpIX4CsQpsztNZq1iy4ybWymF+WXaSqJa1sbOQ6YU65cWTKX9QuATSeTaj7/O+3Hc0ndOAnpz9yOD49g3sPXX1jmtBcU0vxH7sIvuW091F1/ZYpcSwbNVBLmeBcnkPMf/qcKtQGhsVbYYu8EVeLLeM+VszsPKuhvvhbey8okDmSTb9fYlGz9TE1qMDL9XbxpdfbOeKAtw4xT97TstzF4QQQjy5iuB6vjLWoO6zvmLEiC16eyvQlsKh1E2Sky6hLYbvEhIUFqJIGPkv6Qwa7zo0CfakUpUAGnR+k67hOV8j0v5gxtwb9Jg8mR4NfKniE0nXiYOpd2ApKxJu781607MHH77TBC8HW/Tu9XmufiWV/6haKrQbRE9fOzTWlWkzsBNl1y1h3WUFMray6JfzNBv+IV0jfPAOf4GJw5tzOXoRf9/Ivw1z8i+InrDIaiTE7uMaBg7OG8zbPxwgixsc2HsE78hwHE1GvU3Ubw6HFkMZ0z4cv5DneLNnBKlxsSTlVa+GMq2GMaZtEF6+TzF4dHfKbV7CmnNq60dLhbYD6OFnj8bWh7atw25tX/XxLUgWsXO/IabaUGZOeoFa1TzwCm7Bm5P6E65ifFrl4nku4kQ5x7Ms7l2d6j0W8Z9jOZy4yPmLpr/iKZf+YPFaazqPHEHzAG8CW4/mvdt+YbQirM8k3unyFOG+nngFtWToK424tG0rx8zuKVsU5weAkeRvW+FSpiwVQnqxNmAKS8c3KpKxqc2t31u0uHb+PzbH5B9+ITdtYlZ3dzQm8jJVlsKWNfPQbKauKEO311rhpCnkvirnWP7TWhzadqWRPnuSzrM2td2O8MvsdSTfhMyUv5k2NwaD4TIXLhlRrpzmdJoNlSo7P9TesNqK7rimnEHXZzlntg7H5ew5SleqRJlKljHdQboKi/uxAyoCF3P+1pSn24+HSUxMJDHxCMte88m+bhfXdLUuA1bAlSKpleKzE6iU/VpUbU/+NkDr8QK96+zi55XJUMD2by1vQ62eXdD+byG7MyHz8AESAprwlJsOjb4Gzz/rj1tFN+x9quN19gjHrj366hJCCCFKpKK4nr/wiqrl9SkLGDw0mYE7kjh1Op5P7T7h7R9OFXidf5jfJcx9HI4QAgBrwjp0w6/9UOo1/o1mDWtTt3lnOj/lhT2QlXiAg1eOsbiZE1/lX03nhXeKEXxzb0zU4hwaTpUHGtRNh4ePR96vQjoPbzyMqzl2yoBS/jiJaZWp41c6LxCj9/fH/dpmElKM3Hpilzn5F1yuKhHhlP5xL/EZYWz9cSGLDJUZ0O1ZYg/YENbNR8UYdvev39x8Kvt4YpOzH2UcS6O5ns51heynnKPDK8AvL0hoVc0fH+X37PpRTNSPe/Y2XSu65ZRVg729HeRsX/3xLcg1Dv17ivK1a+NlVt3bUNrVHXccsc2ZouZ6YEg6xgljVZr65t6/b4dfYFWsEnKXUEjdPZv3R37Nit2JXEjPxKiAzqcK6Wbfa1oU5weAFtdO09lc/yLn41czdcw4hs2NZMlr/qgelUBXnWFbLjOswAUerH7zs3byIqCM8R636GrQ6nSQqjYvc+eDcuFPRvaaQuagJUxokn3uK4VY33hyKfO3uNL+vbqUyp1o24D3vhnCwX4vUv17BWs7b9oP6kRQ7GG0j/Bn6OwRuYycWfIWLbdcJD54pkVNF+K+ypJ9m6MjcANQUljY049X/8g31o7WpximW1Hz/Q0s6e+FztaJig7dOBT1FUrqUvpFDmHdnUMBOeTshwNw1exaKUJW1Hx/nfr9gLzGs8jbAIdavDdvKDc+eJ7vEo1YBZpY3r4xvTum8vNz+7OHQdo/lVc//Yopq/cy6voRftu+nWuVFRRN4a9fQgghxGPPzOv5ud+X0vLXWaaXd2zAq31tmVLLg29Plqfz7D/4Yeh2ntn/6L9LSE9hIVS6KyCiKLcFdvR1R/Pnvg18M6AR5c+tYnyHRvScezLnVjwFxSaKqUfTSE9Pv5VSD/BJ/fyd+zWUsrN94A/qBkO+YJPRgEG5FeRRF7szL/+CWAdHEnQ2jrijW4mxfomXHbaxJSGO2KRAaoXamt4Apuo3u+zaO6NOJndak7evputHg0ZzR80ot96oO74mKA8WYdU4l8OZS1y44kTLz9az/rOWOF25wCWcKeesppnXADp0unx9g3X5fjO8sZmxPUYRFzaJtfFnSU1L58L8Ttjd8T/woIri/ACwcqpCQGA4jTq+x7cjw9g2+Ru2mhqPWAXz6zeXkdOzWuHi6IjjXcmFZtMSUEzkZaosasuqXP2HT7r246/6M1g4PBKHQu+rgcM/z2enV2e6hN/ehpVrPJIVB0+ReGAfR47t4P/qKpzRuuLmpEXjWIlK+pskn774UMeuNJw5zdnylXFNPcw/By7iUsmVq8nJXEm2jOlpMrCnuJ8KwPWc1xIli90fPkVVLy98u3zPoaX9qO7lhXdIAYHUx2U/IoEz2a9F1fakKYBNdfr9NIcmK3vRd/4JDBS8/dw2o8yzvWl1ciE/H8m5S0m5yq5vXiYqLJiwep1ZmOLE+cQTXE84TKKbL1Xt77E/QgghxJOoCK7n5a6mqFo+o253uho28fvxDMhMYsXyfdRoUg/H/x79dwkJCguhhqYUdnZw4/qNnECGgXP/pdw19pq1SyDNur/J+NmrmPtKGTav2c51wMorkBq2/xKzI/UhBkKySDhwKG8M3ZtH4knQVqGquw6NsxdeDqc5ePhqXv7ph+JJsvPEu3whmgGtDq2SRWZhnp8GaBzDifA6xNbvN3C5fme6NUxj4+wtHHSPoKaz+hB0QfWrjoHE+CN5y2cdjSdBU4VqVcyvH/OPrz3Va3iQsmMHiSrHIM5P4xBMqHcae3YdzRkT0cDJ3Xu45BlCkIqxF3QeVfHSnSYxb6yNLE4mnswbX9GYvJfY82G8OKglfk62aDCQePgomXfubDGfH/kpioIx7Wohg2uZpP53kpP/pZJ/F8yt31tMDx+hM5GXqbKoKuu1ffzfi92Z7/Exv3zW/LZxl1Xva+YeFiyMJ7DLC9S41z1HWnvKVa5MOft0Nkf/QWpYPSLtAZtImjSwZfeqtfz3EAevzDqwlr+sW9K5jgMaW386ta/CpjU7uG4h0wv5LySeNBXIHnqhxAVTC+lx2Y8Ism85rVl0bU+mzp2OMxfQM24AnT/fQ3pOVgVtPxNA40KbXk9zYMH/OJHXvtpR0bM81oCtdxdG9tGz/H+7yTgZzY//1OPNt2tnD9FkU4mI0MryxVAIIcSTqwiu563CbVUtn3H+HJf9o2hcQQcaR+o2DubK8UQu7X/03yXk2i+EKvYEhniR+MdK/r0GhpQNzFoQx63hVLPYM2cUU3/5m39PnCFp/yqiN5/Hw69q9q3XDs/S/yUXVgzvx9S1+0lMPMSOVd8yos+nbCmyb/8KqSs/ZfzyAyQeXs/nk37mWtNONHPSgG19urR3Zt0nI/l593ES9y5m9MdrKNOuCw1Lmd5yLl2lKrgTy7o1iVy9foOMTJVRHV1VIkJvsmL+XoKiggloFE78gmhSQyLxUzWIjYn6VUUhdeVkJv12gBNHNjJ14kIuNelCc5ciqB+zj68Vob0HUO/o57w2agk7jiVx8uBfzBo/h71qxuy1CqRrz3ASvh3F15viObRlBiOnHyS4RzdCVNSvpmwzOj9zhegZyzmdCTePL+ab6FsPnNG6+uCtP8rfW5LJBK4d/omJcw7c9VCe4jo/jMlLGf3mx8z9bQPbdu1gw+IP6T9hPfbNWlA7Z+wIJe008fvi2Hc0hQxjOsmH4ojbd5Tz+Xt9GRKY2SmEkPb/d/sDAs2s3/ysnX0ICgkh5K4UTDUXG9N5mTvfkMCPfToyMaUdHwyozuV/44iLi2PfoTPZQ4Go3NfrWxewJCmCLh2q3jG8h5HkNdOZtuQvtv2zicUTevL6Ag2d3uqaPUqNphxt330Dv79H02vkQjbvO8Dujf9j6pCpbCqCXt15MjYz8bWlBM+K5cjBaJ7f9RYjll1CsZTpRVgV4jHkBqTkvJZQmZveJqT3cjLut9Bt+2FNw492cTJhHl1cG/LhzlMc+74jZYptusr90AIhwK9AGJBZNG2ArubrTHzRnxp9FrH/VBJJSYmsHxaE7j5thrZyJ3rV+4f5y87cakM0pWnwwQYSTidzfP0bZHzcnfHbb4LxJHP6vsTq0BnsSkjgePwq3q/nKENKCCGEeDIV0fW8+ofDVC2fuWsKg2aU4r0th4mP38mXVZfQf9yf3CiO7xLX0tOU3LQrZtNt79PT0yVJkpST0k78przTyF0p41RZqd7wJWXyu80UfY33lJgr6Up6eqqyZ2ZvJSrQQ3Gys1ZKlfVS6vX6Uvn7v7Rb27gcryx9v70S7l5asS1VWqngW1/pNGyRciA1N4+LyuKuZRWvQX8olwtbvqvxymcN9UrtAeOVlyLcFHtbR6XqM8OV5QlXb5X/7FZlWs+6imdpW8WmtLtSq/sUZXP+8qnJP+2Msm78c0r1cqUUnUaj2D77jXIyTU0Z05SEaU8rpZy6KIvOpivpKf9TeriUUhpPOaxcTU9X0q/EKO/VsFLIHpDhVrKpr3xy4Krp+k07rkxr6qBETtirpObkeXbO84pD7vG5ekT5IkqvRL42Xulbu6JiX8pRqdp0mLLsmMr6MbV9VcfXdB0lbZii9G5YVXG2s1UcKtRQnh2yRDl8VeX6l/9VFr7ZRKlatpRSytFHiRo0X9l/uRDnd+JK5f0Wfoqba2XFO6yd8taLNRV9vY+U/Vezz+9Di99UorxdFBd3HyWg4cvKVx+0Ucp4v6Gsy5/Hwzo/ctPFhcoLZXyVwRuv3F7206uViS80UgIqOyn21taKvYuv0vjlL5SNp2+d35dW9Vcqae84v6xrKx/Gpd7aVupuZWy4tWIdMkr5587jprJ+r2wZpvg7tFV+OGdGe2MqL3Pmn/tBaVuKu/7XdF75jqXJfT2rLO7uqjg0+1o5etf5maYk/DxQqePlpNjZ2Cvl/Z9R3vhhj3L+tmWuKsfXfKS8WN9HcbKzVRzK+yqNen+r7FH5v3LnZ5X87+9qQyRJssDk5fX2/Zd5D4V3c15LQHkfOD0O+1EDhdk572ejEFACyiRJUglOJts3SZIkWWRSxo4t9jKYlYroem6JbZzmWvqtm2sPxu0mIKRm3nv/kAiEEBbAeIrpLSNZ1uYfVr9eRW4BEI+njOW87DWGyr/tZGJkyXxOataesdRpcZj3EhbQWV/cpXk8xcftuu2zSv73EfUaF2fRhCgSXl5vk5g4teAFvgT+BhoAbz2iQj0Mj8N+9AL0wDfAQLIfmPdjsZZIiBLNZPsmhLBIytixaMaOLe5iPLgiup5bYhsnsSMhhBAWQoOGRL5+1hW352eR9BDHpC005Qyz27rh2nQqRxWt3IIrhHh4KgCHsPyxeB+H/YgAduW835XztxBCCCEsyxN8PS+ZXa2EEEKIO9m2Zs6Zy8wp7nLci6YifX89S9/iLofIvhFKCAuWyH16mCjAWrKDqY5Y7vn+OOyHAsQAw3P+jgW2Ybm9noV4BO7bvgkhLNc4LPNaDkV6PbfENk6CwkKUdFn7WTh+PnEFPbDMqgZdRvZk4JqzDHykBcuhsnxhhXig3WPF3Pop7vXNVdz5iyePdNMWFs7krYdawAg8l/NqqR6H/bCGvEd83wBs8v0thLiLJd5aLYRQYSyW/Rm8iK7nltjGyZjCQgghhLAY9xtTuGO3pcVZNCGEEEIIIZ44x18qi/cPl4u7GOIB3LensL29/aMqhxBCCCGEWSztl3kh7sUSe5kIIYQa0r4J8bgaK//bWGYbZ3UwbneBM69du/YIiyKEEEIIIYQQQgghhBDiYbPKve0Ssm+9FEIIIYQQQgghhBBCCPH40hZ3AYQQQgghhBBCCCGEEEI8OhIUFkIIIYQQQgghhBBCiCeIBIWFEKLEMHBkShRubeZwTinEaso55rRxI2rKEQz3mm9MZtZzbjz9VQLGIiqpEEIIIYQQQgghLJcEhYUQQqWsnaMIc+tJdMbDykFDmcAWvNDUF7uHlcXjKuskK0a2IczdBZfKobQa8SuJmcVdqAf0OO2LEEIIIYQQQogSSYLCQghRYmhxaz6CaW81orSmuMtiSQwcmd6Xvgu09PppM1sWvYL+f/15+et4soq7aIX2OO2LEEIIIYQQQoiSSoLCQgjT7jE8QdrPXXCrNYG43EhV+j6+H9CUGpXK4ezqSVDUi8yIzRfGyjzF6vFdqVvVDWcXT8LbjWLFifzdHzNY2bcygUMWsXRka0LdXXCpFEiX2cfuPSRCfsZTTG/uSoNXR/Nyo0B8PL0I6zCRv87lGywhbT9zX2+WXb4K/jz96mxi0/KP0VBw/jcPf07jsnoco77gSNpSejjr0ev1OLefxwVTwzxkbmV4kA8D1t7dvfjmxsFU93ubjTchY1kvXBxytnuv4SNM1S9gvBjDF10j8HApj3fjt1h6Mn/NKRhOLGNIUz/cXCoR3Ho0q5Pzzb9f/SjnmNPGlYZDv2RE65r4VHC7e/smj68pCpd3zGRgi1A8y5ejQrU6dByzitNqxrvIOsCin3bj038Sbz0VgH+jgUwa6M++HxexT20k1ezz04zzt6j3RQghhBBCCCGEMEGCwkKIImDg2Oy3Gb7Nn3Gr97B/xxpmDqpD2byA3jW2j+9IvzWuDJq3hT3/LOVd97UM6Dudw7dFzIycj/6UhWWG8Gv8aU788y29A+xQ12k2k7jVB2kwZyfHjv3NGKcF9BnyCylKdv6bx3bjnW2+jP5tB7tWjSdw9wi6j9pA2m3buHf+Vn5D2XQ5nSsbB+Pr0IGfLqaTnp7OxehelDNVOOsgIkMy2B+beEdw0EhSbBypIbUItgbbdvM4n5bK3gmRWBe6fgGyOLRgARe6fMf6P7+ni7KIdz/bwPV88/fOX4bNm0vZHrOAnso8+r4xPyfoqqZ+sti/fDu+n2/h2ImtvO8SzfC87as9vgUzJHxHz/YTiA8byS8xe9kWPY4owynOqQgKK2n7iU1wIDzSFx0AOqpE1MTpZCz7rqgZnLmozk/T80/PbImTPjv4f3ty4umvEjCYvS9CCCGEEEIIIYRpVsVdACHE48DIf0ln0Hj3pkmwJy4aqFQl4NbstD+YMfcGPX6eTI96NgB4ThxMdMAMViQMYoivLmdBhZuePfjwnSZ46QCH+jznrrYMWiq0G0RPXzs0VKbNwE5MaLWEdZc70c1+K4t+OU+zTz6ka4QTGnyYOPw3agxdxN8fN6F5qdxtmJN/QfSERVYjYfc+rlGNpHnvMNP4CpNf8ubA3iN4R4bjaDLqbaJ+czi0GMqY9uHYEcqbPSOYMz+WJENTfDUAGsq0GsaYtkE4AINHd+en1ktYc64nfZxM1I9tTv22HUAPP3s0+NC2dRijfsjZ/nW1x7cgWcTO/YaYakOJmfQC2Yt78GawuhpWLp7nIk4EOJ5lce9mjDaM449h5XBiN+cvGqGcifyL7Pw0NV+La+f/Y3O9tHs88E+DfSV3NObuixBCCCGEEEIIoYIEhYUQRcCasA7d8Gs/lHqNf6NZw9rUbd6Zzk95YQ9kJR7g4JVjLG7mxFf5V9N54Z1ihLygmxbn0HCqPFDcS4eHj0deL1udhzcextUcO2VAKX+cxLTK1PErnddrU+/vj/u1zSSkGMEj96YJc/IvuFxVIsIp/eNe4jPC2PrjQhYZKjOg27PEHrAhrJsPprO7f/3m5lPZxxObnP0o41gazfV0riuQvdM6vAL88h5gZ1XNHx/l9+z6UUzUj3v2Nl0ruuWUVYO9vR3kbF/98S3INQ79e4rytWtnB1MfmA2lXd1xxxHbnClqepkX3flp+vyxdvIioIyRu/v8atDqdJBq3r4IIYQQQgghhBBqyPARQghV7gxIGRXltsCWvu5o/ty3gW8GNKL8uVWM79CInnNP5vSIVFBsoph6NI309PRbKfUAn9TPP1iChlJ2tg8c/DIY8gXbjAYMCnl/q7vx3rz8C2IdHEnQ2Tjijm4lxvolXnbYxpaEOGKTAqkVamt6A5iq3+yya7V3NOkmd1qTt6+m60eDRnNHzSi33qg7viYoDzY8gsa5HM5c4sIVJ1p+tp71n7XE6coFLuFMOWc1l7miOj9NzTdyelYrXBwdcbwrudBsWgKK2fsihBBCCCGEEEKYJt8whRCmaUphZwc3rt/IiQMaOPdfyl23wFu7BNKs+5uMn72Kua+UYfOa7VwHrLwCqWH7LzE7UlUGZx9EFgkHDuWNoXvzSDwJ2ipUddehcfbCy+E0Bw9fzcs//VA8SXaeeJcvRDOo1aFVssgszPPTAI1jOBFeh9j6/QYu1+9Mt4ZpbJy9hYPuEdR0Vh+CLqh+1TGQGH8kb/mso/EkaKpQrYr59WP+8bWneg0PUnbsILFQT2XLpnEIJtQ7jT27juaM22zg5O49XPIMIcj02ByP6PyEvOEjYmKIuSttYlZ3d3Rm7osQQgghhBBCCKGGBIWFECrYExjiReIfK/n3GhhSNjBrQRxZefOz2DNnFFN/+Zt/T5whaf8qojefx8Ovavat7w7P0v8lF1YM78fUtftJTDzEjlXfMqLPp2wpZIC1YAqpKz9l/PIDJB5ez+eTfuZa0040c9KAbX26tHdm3Scj+Xn3cRL3Lmb0x2so064LDUuZ3nIuXaUquBPLujWJXL1+g4xMFU9BA9BVJSL0Jivm7yUoKpiARuHEL4gmNSQSP1WD+JioX1UUUldOZtJvBzhxZCNTJy7kUpMuNHcpgvox+/haEdp7APWOfs5ro5aw41gSJw/+xazxc9ibZXptrALp2jOchG9H8fWmeA5tmcHI6QcJ7tGNEDX1+0jOz2zWzj4EhYQQclcKppqLjfn7IoQQQgghhBBCqCBBYSGEClYEvfoRr5X6nuZ+ftTqsRTvVg1zxq8F0KC3ucjaT/rybEQAoc1HEhs2idlDw3MGLren3gfR/NjDhl/eaEbNiCi6jlhMsmcA7kXWCllTs0db0ie3plbdniwq1Y85X3TGVQOgp/H4BXxS6xDjnosgvMVo4sImMH/S0zgUIgeNWydGDA9k5+AIKpd3oeILP3FBVddSW0JrBZGlCyMq3Abr0MaEW2cRGBmaHdTNimNCLUf0+jKEjd5J2vo38HbQo3d6hq8TjZiuXzWsCOvemvQpbYms240fNS8x58uuVNQWRf2Yf3x1Pq8wL3o01XdPoEOdEGo9/y6rMiugriO3Dt8Bs/n2hZvM7taA+i/M4Gr7mcx5w19l/TyK81Mtc/dFCCGEEEIIIYQwTXMtPS0vpHEwbjcBITXz3vuHRBRbwYQQQjXjKaa3jGRZm39Y/XoV+bVLiMdYfNyu2z6r5H8fUa9xcRZNiCLh5fU2iYlTi7sYQghR5KR9E+LxpIwdi2bs2OIuRrGzxDZOYidCCCGEEEIIIYQQQgjxBJG7UYUQQgjxeBhb3AUQwnyJWFYPEyGEUEvaNyEeY2OLuwDFzxLbOAkKCyFKtqz9LBw/n7iCHvhlVYMuI3sycM1ZBj7SguVQWb6wQjzQ7rFibv0U9/rCsowt7gIIYT5LvPVQCCHUkPZNiMfUWORzOJbZxsmYwkIIIYSwGPcbU7hjt6XFWTQhhBBCCCGeOMdfKov3D5eLuxjiAdy3p7C9vf2jKocQQgghhFks7Zd5Ie7FEnuZCCGEGtK+CfG4Giv/21hmG3ffoPC1a9ceVTmEEEIIIYQQQgghhBBCPALa4i6AEEIIIYQQQgghhBBCiEdHHjQnhBBCiMeHYnoRIUoyS3xytRBCqCHtmxCPqXHIZ3Ass42TnsJCCCGEEEIIIYQQQgjxBJGgsBDiCWLgyJQo3NrM4VxhfslUzjGnjRtRU45guNd8YzKznnPj6a8SMBZRSUU+N9fwmkdp9Ho9+rL1+eTfex4FyFjOy24O6PV6nJpP59SjPBjGZGY955RdxnLdWZL+CPMWt9NIkmTZycv77WIvgyRJkiQ9jCTtmyRJj2miBJShBCRLbOMkKCyEKDGydo4izK0n0RkPKwcNZQJb8EJTX+weVhaPq6yTrBjZhjB3F1wqh9JqxK8kZj6ivG2aM+PUVdLPzKaVrYlltdUYvPEKl9YMxCP3CqecY/UHHWkU5En5smVx9alNh/eXcvRGIcpgav+1lej/+yWubBmGv1kDMxmI/7QBZfX67ABzbioTwLAtj6rChRBCCCGEEEI87mRMYSHEE0SLW/MRTGte3OWwNAaOTO9L3wV6hv+0med06xjTpz8vu1bnj8H+Jf9CohjQutTlpQkD8Hcvi/HUH3w+vB9drD2JGReJjckNPPr911Xtw3dz++Gny5mgscXFp8TXdMmh9WHIpgOMr36Byzk/MmXumcTTbb/huHTnF0IIIYQQQgjpKSxEiXCP4QnSfu6CW60JxGXlTEjfx/cDmlKjUjmcXT0JinqRGbFZt7aReYrV47tSt6obzi6ehLcbxYoT+XsWZrCyb2UChyxi6cjWhLq74FIpkC6zj917SIT8jKeY3tyVBq+O5uVGgfh4ehHWYSJ/ncsXXUnbz9zXm2WXr4I/T786m9i0/GM0FJz/zcOf07isHseoLziStpTlrH2MAAAgAElEQVQeztm9I53bz+OCqWEeMrcyPMiHAWvv7l58c+Ngqvu9zcabkLGsFy4OOdu91/ARpuoXMF6M4YuuEXi4lMe78VssPZm/5hQMJ5YxpKkfbi6VCG49mtXJ+ebfr36Uc8xp40rDoV8yonVNfCq43b19k8fXFIXLO2YysEUonuXLUaFaHTqOWcVpNQGyrAMs+mk3Pv0n8dZTAfg3Gsikgf7s+3ER+7JMrw4UwflrBm1Fnn1jGH3bN6NBrUgadRjGqK4enIjZxpnb9j+LtJRkklPSuG23imL/C0lj64pfcAghITkpuDqV9BrTK4pblBTmd/fB3d0dd3d3vFtLQFgIIYQQQgghcklQWAiLYODY7LcZvs2fcav3sH/HGmYOqkPZvADHNbaP70i/Na4MmreFPf8s5V33tQzoO53Dt0V8jZyP/pSFZYbwa/xpTvzzLb0D7FAXasokbvVBGszZybFjfzPGaQF9hvxCipKd/+ax3Xhnmy+jf9vBrlXjCdw9gu6jNpB22zbunb+V31A2XU7nysbB+Dp04KeL6aSnp3MxuhflTBXOOojIkAz2xybeEdw2khQbR2pILYKtwbbdPM6npbJ3QiTWha5fgCwOLVjAhS7fsf7P7+miLOLdzzZwPd/8vfOXYfPmUrbHLKCnMo++b8zPCbqqqZ8s9i/fju/nWzh2Yivvu0QzPG/7ao9vwQwJ39Gz/QTiw0byS8xetkWPI8pwinMqgmRK2n5iExwIj/Qlu+OqjioRNXE6Gcu+K2oGZy6q87coGEhLWMvP65KpEBqKa/6roOEY37SvQY020ziUL1/z9z+XkdMzW+J059AQej16vZOMSS2EEEIIIYQQ4pGRe1GFsAhG/ks6g8a7N02CPXHRQKUqAbdmp/3BjLk36PHzZHrUy74Z3nPiYKIDZrAiYRBDfHPvQVf4f/buPK6qav//+OswKgdFEMEBEFBJRCbBUnOo9KZmWpljV5ts0muDWfn1ql3S7GZZ11td00q6WqnVL2mw69CkaVpZKqiJE+LU4JQD4ASc3x8M4sDZG8+RA/h+Ph778UDPOWt/1mevvYEPa699OmwIzz1xPeHugG8HbgoxG4MbDW8dydAWtbHQhD4j+jGp14d8eaQfg31WMf+jg3Sb8hyDkvyxEMmzYz6j1ej5fPf89XSvVdKGI/svj5WE5OZkrd1AHs3ZO+cJZhbex9S7I9i0fhsRyYn4GVa9DfJbzLfHaJ6+LZHaxPPI0CRS30tnb0FXWlgALNTt9SRP39IaX2DUhDt4t/eHLNk/lHv9DfLjXZzfW4YzJMoHC5Hc0juB8f8tbv+E2eNbnnzSZ7/O6uajWT15AEVvD+WRWHMZth0+yGH8ifb7gw/u6saEgmf44sn6+LOWg4cLob7R/p01fh1RyK9v9iZu9LecLPSm2YBpLJjYydTa0o73v4QbQf3/w4r2ORcp/lrwaRxS+pfa/F+ep73f86WvesaN57uVY4lxRiquFJYGDH5nK91PApxh/fPd6TtDhXcRERERERFQUVikmvAkoe9gom4bTfvOn9Gt49W0696f/teF4wPkZ29i89EdfNDNn1fKfsw9nIgDhVBaVHMjID6RppdUWHInNDK0dJate2gEoYWL2bGnAFuDnWTnNOGaqDqls46tLVsSkreCrAOFnH3ilyP7Lz+upkmJ1HlnPZmnElj1zjzmFzRh+OAbSd/kRcLgSIx3Zz+/JftpEhlWvP6sG3X96mA5kcsJG8VPXHUnPDqqtMjo0bwlkbb/FeXHZpCfkKI2gxoFF8dqwcenNhS3b/74liePLb/socHVVxcV4y+ZF3WCQgjBj5LnvZmbZe6s8esIN4L6TWdFh8MczFzMtKef4cnZyXz4UMuzawq7X8WTK4/wZLltXGr/z/L0Dye6biEXzi+24ObuDsXz3c9fU9hSuyHNVBCuGNsB5g2N4sEvTrs6EhERERERkSpHy0eIVBHnF5cKbbZzCkfWdhP4esMyXh/eiQb7FzGxbyeGzt5dPOvNhs2rC9O255Cbm3t2O7aJKR3KLpZgoVZt7woXskoUFJQpZhUWUGCj9N/mbqJ3bP/l8YxNpvUfGWRsX8Vqz7u5x/d7VmZlkL43hrbx3sYNYJTfotjd3M67ZBp22lLaV+P8WLBYzsuM7ewX5o6vAVtFljooE1lAfQL4k0NH/en54ld89WJP/I8e4k8CqB9g7tuIc8avYzz8mxIdk0in2/+PN8cl8P3U11llol7ojP4XKWTfG70I9PPD74ItkG6vnp3Fev6awrEtgqhlt20RERERERER81QUFqkKLLWoXRtOnjhZXAcsYP/vBy64zdkzMIZudzzCxFmLmH1fXVYs+YETgEd4DK28f2H1mmMmi7OXIp+sTVtK19A9vS2TLLemNAtxxxIQTrjvPjZvPV66/9wtmeytHUZEgwpcZtzccbPlc6aCzxez+CWSFL6FVW8v40iH/gzumMPyWSvZHJJEmwDzJejy8mtOAdmZ20rfn789kyxLU5o3dTw/jh9fH65qFcqBNWvIvoQ1ei2+scRH5LDu5+3F81gL2L12HX+GxdHaeG2OUg6PXw9PvDhJ3knHR7nNZqMw5zjnPAuRMxz7fTe7fz9G2SHorP6XLh+xejWrL9i+5Y07QvRNWURERERERCqFfv8UqRJ8iIkLJ/uLz/klDwoOLOONuRnkl76ez7rU8Uz76Dt+2fUbezcuIm3FQUKjmhXdxu57Iw/cHcjCMfczbelGsrO3sGbRm4y99wVWVrDAWj4bxz5/gYmfbiJ761e8NPl98rr2o5u/Bbw7MPC2AL6cMo731+4ke/0HTHh+CXVvHUjHCkxvdG/clBDS+XJJNsdPnOTUGZOrf7o3Iyn+NAvfW0/rLrFEd0okc24ax+KSiTK1SI5Bfk2xcezzqUz+bBO7ti1n2rPz+PP6gXQPdEJ+HD6+HsTfNZz221/iofEfsmbHXnZv/oY3JqayPt/403jEMGhoIllvjue1bzPZsnIG46ZvJnbIYOKckV+z/fNuRVyLPSyau5Stv/7B/iMnTBXJC39dwIRHnmf2Z8v4/uc1LPvgOR6Y9BU+3XpwtVeZNxZkMbNfHHG3/efcB9w53P+zPAMiaR13dgbw2S2W5oFexg2IiIiIiIiIOIHWFBapEjxo/eA/eWjFcLpHpdIo5i/c36sjXgtLXrdg9TrM0inDmJr1Oye8m5DYZzKzRicWn8Q+tP9HGu/UHsukh7sx6SD4h8bS8dZHCHHan348aTPkFnKn9qbtxpM06vwQqf/qT5AFwErniXOZ8sTjPHNTEr/TgPjek3hv8g34VmAPluB+jB2ziL+NSqLJXafw+Mt0ti24k/qGkzG9iW/bmvzPGtAl0QtPt84ker7B7uT4oqJjfgaT2nfi+V9KKqA/EeH7MHh1YMq6JYwMN8qvGR4k3NGb3JdvITkjj0bXPkDqvwfRyM0Z+XH8+LpH3sectELGjZ9E32v2ctqvGR3ueIZepj7vTovhs3jzt78xfvC1TLQ15pqhM0l9uKXJ/Dhp/Lq35MEXnmL1g/fSdkYO7je8QuYn9xaPQTt792lAwPE3eHX0a+zanwN+4ST3nsJHz/Y3/Kxz+i+VrjCLlzuFuToKERERERGRKsuSl3v25tnNGWuJjmtT+nXLuCSXBSYiVUjhHqb3TObjPj+y+G9NdYuBVE2nPuWe8Kdp8tlPPJvsmnJt/roUrumxlf/Lmkt/q0tCqPEyM34+52eVsl8nte/sytBEnCI8/DGys6e5OgwREafT9U2kZrKlpGBJSXF1GC5XHa9xqu2IiEgNYcFCNq/dGETwzW+w1+TqI05h+41ZtwQT1HUa221uTn+YooiIiIiIiIgz6c5XERGpGbx7k/rbEVJdsW9LI4Z98gfDXLFvOdfle9qmSKXIpnrNMBERMUvXN5Ea6hn0MzjV8xqnorDIlS5/I/MmvkdGeQ8s82jFwHFDGbHkD0ZUamDFTMaXUIEH2tUojubH1Z8XcTZN05ZqrjreeigiYoaubyI1VAr6GZzqeY3TmsIiIiJSbdhbU/j2wQtcGZqIiIiIyBVn5931iPjvEVeHIZfA7kxhHx+fyopDRERExCHV7S/zIhdTHWeZiIiYoeubSE2VonOb6nmNs1sUzsvLq6w4RERERERERERERKQSuLk6ABERERERERERERGpPHrQnIiIiIhIdVIZT/heDlx3mfehfohcUbKpXrdVi4hJz1Dx74WV8f1ZDGmmsIiIiIhIdbKcoqd8X85N/aha/dCmrQZs4RGPuTwGbdq0XYaNS/yMuJyKwiIiVUYB217uQnCfVPZX5C+ttv2k9gmmy8vbKLjY64W/8sZNwdzwShaFTopUylB+RUREREREpJpRUVhExKT8n8aTEDyUtFOXaw8W6sb0YEDXFtS+XLuoqfJ3s3BcHxJCAglsEk+vsZ+QfcbJu7jsx79Izo+vM/z264kLDcDX/y+8lq1Ss4iIiIiIiDiXisIiIlWGG8Hdx/Lqo52oo1tqKqCAbdOHMWyuG3e+u4KV8+/D+v8e4J7XMsl3dWgVZiM/9yTW+Nt5avTNNNF3aREREREREbkM9OumiBi7yPIEOe8PJLjtJDJKqm65G3h7eFdaNa5PQFAYrbv8lRnpZUpyZ/aweOIg2jULJiAwjMRbx7NwV9mpnKf4fFgTYh6fz4JxvYkPCSSwcQwDZ+24+JIIZRXuYXr3IK59cAL3dIohMiychL7P8s3+MjMsczYy+2/diuJr2JIbHpxFek7ZNRrK3//prS/RuZ4Vvy7/YlvOAoYEWLFarQTcNodDRss8nFnFmNaRDF964fTS08tHcVXUYyw/Dac+vpNA3+J2L7Z8hFF+gcLDq/nXoCRCAxsQ0flRFuwumzkbBbs+5vGuUQQHNia29wQW/1rmdXv5se0ntU8QHUf/m7G92xDZMPjC9g2PrxEbR9bMZESPeMIa1Kdh82u4/elF7DMzSTZ/E/PfXUvkA5N59LpoWnYaweQRLdnwznw2mK0K28lvganjb5Bf0yzUu34UU58eyaCOYdTWHwdERERERETkMlBRWEScoIAdsx5jzPcteWbxOjauWcLMkddQr7Sgl8cPE2/n/iVBjJyzknU/LuCpkKUMHzadrefUzQo5mPYC8+o+zieZ+9j145vcFV3b5Dr0Z8hYvJlrU39ix47veNp/Lvc+/hEHbEX7X5EymCe+b8GEz9bw86KJxKwdyx3jl5FzThsX379H1Gi+PZLL0eWjaOHbl3cP55Kbm8vhtDupbxScZ2uS406xMT37vOJ2IXvTMzgW15ZYT/C+dQ4Hc46xflIynhXOL0A+W+bO5dDAt/jq67cZaJvPUy8u40SZ19e/9zFejyzgh9VzGWqbw7CH3ysuuprJTz4bP/2BFi+tZMeuVfw9MI0xpe2bPb7lK8h6i6G3TSIzYRwfrV7P92nP0KVgD/tNFIVtORtJz/IlMbkF7gC40zSpDf6709lw1MzizPbz627q+NvLb4lC9s3sib+1qKh87uavNYlFRERERESk0ni4OgARqQkK+X3vb1gi7uL62DACLdC4afTZl3O+YMbskwx5fypD2nsBEPbsKNKiZ7AwaySPt3AvfqON02FDeO6J6wl3B3w7cFOI2RjcaHjrSIa2qI2FJvQZ0Y9JvT7kyyP9GOyzivkfHaTblOcYlOSPhUieHfMZrUbP57vnr6d7rZI2HNl/eawkJDcna+0G8mjO3jlPMLPwPqbeHcGm9duISE7Ez7DqbZDfYr49RvP0bYnUJp5HhiaR+l46ewu60sICYKFuryd5+pbW+AKjJtzBu70/ZMn+odzrb5Af7+L83jKcIVE+WIjklt4JjP9vcfsnzB7f8uSTPvt1VjcfzerJAyh6eyiPxJrLsO3wQQ7jT7TfH3xwVzcmFDzDF0/Wx5+1HDxcCPWN9m8uv/bZyW/DkgPsRlD//7Cifc5Fir8WfBqH6C+1IiIiIiIiUilUFBYRJ/Akoe9gom4bTfvOn9Gt49W0696f/teF4wPkZ29i89EdfNDNn1fKfsw9nIgDhVBaNHQjID6RpkY1vItyJzQytHSWrXtoBKGFi9mxpwBbg51k5zThmqg6pbOOrS1bEpK3gqwDhRBaUopzZP/lx9U0KZE676wn81QCq96Zx/yCJgwffCPpm7xIGByJ8e7s57dkP00iw/Aq7kddvzpYTuRywgZFnXYnPDqq9AF2Hs1bEmn7X1F+bAb5CSlqM6hRcHGsFnx8akNx++aPb3ny2PLLHhpcfXVRMf6SeVEnKIQQ/PAu/h9zs8zN5NdI+fml4dlvtZ7+4UTXLeTC+csW3NydOvBEREREREREyqVJSSJiyvnFtUKb7ZzClrXdBL7esIzXh3eiwf5FTOzbiaGzdxfPiLRh8+rCtO055Obmnt2ObWJKh7KLJVioVdvbZCHvQgUFZYpthQUU2Cj9t5lFBBzdf3k8Y5Np/UcGGdtXsdrzbu7x/Z6VWRmk742hbby3cQMY5bcodje38y7php22lPbVOD8WLJbzMlNmPV1zx9eAzdxRuiCygPoE8CeHjvrT88Wv+OrFnvgfPcSfBFA/wNy3OeP8XlJk542lQva90YtAPz/8LtgC6faqlo8QERERERGRyqGisIgYs9Sidm04eeJkcR2wgP2/H7iggOUZGEO3Ox5h4qxFzL6vLiuW/MAJwCM8hlbev7B6zTGTxdlLkU/Wpi2la+ie3pZJlltTmoW4YwkIJ9x3H5u3Hi/df+6WTPbWDiOiQQUug27uuNnyOVOR56cBFr9EksK3sOrtZRzp0J/BHXNYPmslm0OSaBNgvgRdXn7NKSA7c1vp+/O3Z5JlaUrzpo7nx/Hj68NVrUI5sGYN2ZfwbDaLbyzxETms+3l78brNBexeu44/w+Jobbw2RynD/No9/uXnt0wDRctHrF7N6gu2b3njDi0fISIiIiIiIpVDv3+KiAk+xMSFk/3F5/ySBwUHlvHG3AzyS1/PZ13qeKZ99B2/7PqNvRsXkbbiIKFRzYpu4/e9kQfuDmThmPuZtnQj2dlbWLPoTcbe+wIrK1hgLZ+NY5+/wMRPN5G99Stemvw+eV370c3fAt4dGHhbAF9OGcf7a3eSvf4DJjy/hLq3DqRjLeOWS7g3bkoI6Xy5JJvjJ05y6ozJeZ3uzUiKP83C99bTukss0Z0SyZybxrG4ZKJMLeJjkF9TbBz7fCqTP9vErm3LmfbsPP68fiDdA52QH4ePrwfxdw2n/faXeGj8h6zZsZfdm7/hjYmprM83/jQeMQwamkjWm+N57dtMtqycwbjpm4kdMpg4J+bX/vG3k98yPAMiaR0XR9wFWyzNA4sW/7Dl7CNzQwYbth/gVGEuv27JIGPDdg6eNtMXEREREREREWMqCouICR60fvCfPFTrbbpHRdF2yAIienUsXr8WwILV6zBLpwzjxqRo4ruPIz1hMrNGJxYvXO5D+3+k8c4QLz56uBttkrowaOwH/BoWTYjTrkKetBlyC7lTe9O23VDm17qf1H/1J8gCYKXzxLlMabuFZ25KIrHHBDISJvHe5BvwrcAeLMH9GDsmhp9GJdGkQSCNBrzLIVNTY72Jb9uafPcEuiR64RnfmUTPfGKS44uKjvkZTGrrh9Val4QJP5Hz1cNE+Fqx+v+F17ILMc6vGR4k3NGb3JdvIbndYN6x3E3qvwfRyM0Z+XH8+LpH3sectAlctXYSfa+Jo+3NT7HoTEPMTeR2p8XwWbw54DSzBl9LhwEzOH7bTFIfbmkyP+bya//428tvxZxZO5XeHdrTcdi77D6Vzr/7Xkv7Tvfz3p5LmEYtIiIiIiIichGWvNyc0l9pN2esJTquTenXLeOSXBaYiIhphXuY3jOZj/v8yOK/NdVfu0RqsMyMn8/5WaXs10ntO7syNBGnCA9/jOzsafbftAy47jIHon1UrX2I1ACmrm8iUu3YUlKwpKRU7EPLqHHfO6vjNU61ExEREREREREREZEriPk7j0VERESqshRXByDiuGyqyAyTZdSMc2oZNaMfIiIiNckyatz35yrzM1wFqCgsIlVb/kbmTXyPjPIeWObRioHjhjJiyR+MqNTAipmML6ECD7SrURzNj6s/L9VLiqsDEHFclbn1MMXVAThJiqsDEBERkQukuDoA56syP8NVgNYUFhERkWrD3prCtw9e4MrQRERERESuODvvrkfEf4+4Ogy5BHZnCvv4+FRWHCIiIiIOqW5/mRe5mOo4y0RExAxd30RqqhSd21TPa5zdonBeXl5lxSEiIiIiIiIiIiIilcDN1QGIiIiIiIiIiIiISOXRg+ZERERERKoTm/FbpBItB65zdRAiIiIiFaOZwiIiIiIi1clywKKtymwiIiIi1ZCKwiIi1UYB217uQnCfVPZXZJaYbT+pfYLp8vI2Ci72euGvvHFTMDe8kkWhkyIVERERERERkapLRWERESfJ/2k8CcFDSTt1ufZgoW5MDwZ0bUHty7WLmip/NwvH9SEhJJDAJvH0GvsJ2WdcHVQ5qlOsIiIiIiIiUi2pKCwiUm24Edx9LK8+2ok6ul21AgrYNn0Yw+a6cee7K1g5/z6s/+8B7nktk3xXh3aB6hSriIiIiIiIVFcqCouI4y6yPEHO+wMJbjuJjJJKVu4G3h7elVaN6xMQFEbrLn9lRnqZMteZPSyeOIh2zYIJCAwj8dbxLNxVdnrkKT4f1oSYx+ezYFxv4kMCCWwcw8BZOy6+JEJZhXuY3j2Iax+cwD2dYogMCyeh77N8s7/MYgk5G5n9t25F8TVsyQ0PziI9p+waDeXv//TWl+hcz4pfl3+xLWcBQwKsWK1WAm6bwyGjZR7OrGJM60iGL71wevHp5aO4Kuoxlp+GUx/fSaBvcbsXWz7CKL9A4eHV/GtQEqGBDYjo/CgLdpfNnI2CXR/zeNcoggMbE9t7Aot/LfO6vfzY9pPaJ4iOo//N2N5tiGwYfGH7hsfXiI0ja2Yyokc8YQ3q07D5Ndz+9CL2mVnvIn8T899dS+QDk3n0umhadhrB5BEt2fDOfDYYVVpNHh/H++eEWEVERERERERMUlFYRCpBATtmPcaY71vyzOJ1bFyzhJkjr6FeaUEvjx8m3s79S4IYOWcl635cwFMhSxk+bDpbz6n4FnIw7QXm1X2cTzL3sevHN7krurbJZ7ycIWPxZq5N/YkdO77jaf+53Pv4RxywFe1/Rcpgnvi+BRM+W8PPiyYSs3Ysd4xfRs45bVx8/x5Ro/n2SC5Hl4+ihW9f3j2cS25uLofT7qS+UXCerUmOO8XG9OzzituF7E3P4FhcW2I9wfvWORzMOcb6Scl4Vji/APlsmTuXQwPf4quv32agbT5PvbiME2VeX//ex3g9soAfVs9lqG0Owx5+r7joaiY/+Wz89AdavLSSHbtW8ffANMaUtm/2+JavIOstht42icyEcXy0ej3fpz1Dl4I97DdRFLblbCQ9y5fE5Ba4A+BO06Q2+O9OZ8NRg6q9qeNjfvzum9kTf2tRcf/czZ8bXsmiwJFYRUREREREREzycHUAInIlKOT3vb9hibiL62PDCLRA46bRZ1/O+YIZs08y5P2pDGnvBUDYs6NIi57BwqyRPN7CvfiNNk6HDeG5J64n3B3w7cBNIWZjcKPhrSMZ2qI2FprQZ0Q/JvX6kC+P9GOwzyrmf3SQblOeY1CSPxYieXbMZ7QaPZ/vnr+e7rVK2nBk/+WxkpDcnKy1G8ijOXvnPMHMwvuYencEm9ZvIyI5ET/DqrdBfov59hjN07clUpt4HhmaROp76ewt6EoLC4CFur2e5OlbWuMLjJpwB+/2/pAl+4dyr79BfryL83vLcIZE+WAhklt6JzD+v8XtnzB7fMuTT/rs11ndfDSrJw+g6O2hPBJrLsO2wwc5jD/Rfn/wwV3dmFDwDF88WR9/1nLwcCHUt7d/E8cn12z/3Ajq/x9WtM+5yAP9LPg0DsHiUKwiIiIiIiIi5qgoLCKVwJOEvoOJum007Tt/RreOV9Oue3/6XxeOD5CfvYnNR3fwQTd/Xin7MfdwIg4UQpmiWkB8Ik0vqS7mTmhkaOksW/fQCEILF7NjTwG2BjvJzmnCNVF1SmcdW1u2JCRvBVkHCiG05KYKR/ZfflxNkxKp8856Mk8lsOqdecwvaMLwwTeSvsmLhMGRGO/Ofn5L9tMkMgyv4n7U9auD5UQuJ2xQ1Gl3wqOjSh9g59G8JZG2/xXlx2aQn5CiNoMaBRfHasHHpzYUt2/++JYnjy2/7KHB1VcXFeMvmRd1gkIIwQ/v4v8xnmVufHxs2R+b7p+nfzjRdQu5cM6vBTd3dzjmSKwiIiIiIiIi5mj5CBFxivMLVoU22zmFL2u7CXy9YRmvD+9Eg/2LmNi3E0Nn7y6eMWnD5tWFadtzyM3NPbsd28SUDmUXS7BQq7b3JRfHCgrKFOMKCyiwUfpvczfmO7b/8njGJtP6jwwytq9itefd3OP7PSuzMkjfG0PbeG/jBjDKb1Hsbm7nXfINO20p7atxfixYLOdlxnb2C3PH14Dt0pZPsATUJ4A/OXTUn54vfsVXL/bE/+gh/iSA+gHG3waNj4/Z/hWy741eBPr54XfBFki3V7OwORiriIiIiIiIiBn6DVNEHGepRe3acPLEyeI6YAH7fz9wwS3ynoExdLvjESbOWsTs++qyYskPnAA8wmNo5f0Lq9ccM1mcvRT5ZG3aUrqG7ultmWS5NaVZiDuWgHDCffexeevx0v3nbslkb+0wIhpU4DLp5o6bLZ8zFXy+mMUvkaTwLax6exlHOvRncMccls9ayeaQJNoEmC9Bl5dfcwrIztxW+v787ZlkWZrSvKnj+XH8+PpwVatQDqxZQ7bJNYjLsvjGEh+Rw7qftxevC1zA7rXr+DMsjtbGa3MYHh/z/StePmL1alZfsH3LG3eE4O5grCIiIiIiIiJmqCgsIk7gQ0xcONlffH23vSgAACAASURBVM4veVBwYBlvzM0gv/T1fNaljmfaR9/xy67f2LtxEWkrDhIa1azo1njfG3ng7kAWjrmfaUs3kp29hTWL3mTsvS+wsoIF1vLZOPb5C0z8dBPZW7/ipcnvk9e1H938LeDdgYG3BfDllHG8v3Yn2es/YMLzS6h760A61jJuuYR746aEkM6XS7I5fuIkp86YeAoagHszkuJPs/C99bTuEkt0p0Qy56ZxLC6ZKFOL/Bjk1xQbxz6fyuTPNrFr23KmPTuPP68fSPdAJ+TH4ePrQfxdw2m//SUeGv8ha3bsZffmb3hjYirr840/jUcMg4YmkvXmeF77NpMtK2cwbvpmYocMJs5Mfo2OTwX65xkQSeu4OOIu2GJpHujleKwiIiIiIiIiJqgoLCJO4EHrB//JQ7XepntUFG2HLCCiV8fi9WsBLFi9DrN0yjBuTIomvvs40hMmM2t0YvHC5j60/0ca7wzx4qOHu9EmqQuDxn7Ar2HRhDjtKuVJmyG3kDu1N23bDWV+rftJ/Vd/giwAVjpPnMuUtlt45qYkEntMICNhEu9NvgHfCuzBEtyPsWNi+GlUEk0aBNJowLscMjU11pv4tq3Jd0+gS6IXnvGdSfTMJyY5vqiom5/BpLZ+WK11SZjwEzlfPUyErxWr/194LbsQ4/ya4UHCHb3JffkWktsN5h3L3aT+exCN3JyRH8ePr3vkfcxJm8BVayfR95o42t78FIvONMTcRG53WgyfxZsDTjNr8LV0GDCD47fNJPXhlibzY3B8nDp+HY1VRERERERExJglLzentGSxOWMt0XFtSr9uGZfkssBERJymcA/TeybzcZ8fWfy3pvprmEg1lpnx8zk/q5T9Oql9Z1eGJuIU4eGPkZ09zf6blgHXVUIwYs4ydDxETDB1fRORaseWkoIlJcXVYbhcdbzGqTYiIiIiIiIiIiIicgXR3agiIiJSM6S4OgARx2VTvWaYCEUzhVNcHININaDrm0gNluLqAFyvOl7jVBQWkeotfyPzJr5HRnkPLPNoxcBxQxmx5A9GVGpgxUzGl1CBB9rVKI7mx9Wfl6olxdUBiDiuOt56eMVLcXUAItWDrm8iNVQK+l5I9bzGaU1hERERqTbsrSl8++AFrgxNREREROSKs/PuekT894irw5BLYHemsI+PT2XFISIiIuKQ6vaXeZGLqY6zTEREzND1TaSmStG5TfW8xtktCufl5VVWHCIiIiIiIiIiIiJSCdxcHYCIiIiIiIiIiIiIVB4VhUVEREREajpbBbdlLonSWE3ph4iIiIiLqSgsIiIiIlLTLQcsFdiqqprSDxEREREXU1G4spxewkOhdbBarVjrdWDKLwXlvLGAbS93IbhPKvttlzOgQvbN7Elwt1fYWXg591PZKit/UrNV3fPjxMa3uOvqptSv60ud5o+x/HTZV43Hv/3Pi4iIiIiIiMiVQEXhyuLVnRl7jpP72yx6edt7o4W6MT0Y0LUFtS/yav5P40kIHkraqcsUZxVn3H/7+avqavrxVf8clcOSqSn8EPciP+7cx751/+Rar7KvG41/o8/XbNVm/OXvZuG4PiSEBBLYJJ5eYz8h+4yrgxIREREREZGaxMPVAcj53AjuPpZXu7s6jupK+ZMarPAQe/edodnATkTW97vIXbEG49/w8+J6BWybPoxhc62MeXcFN7l/ydP3PsA9QVfxxaiW+qYtIiIiIiIiTnFlzRTO3cDbw7vSqnF9AoLCaN3lr8xIzz/7es5GZv+tW9HrDVtyw4OzSM8pew+2jSNrZjKiRzxhDerTsPk13P70IvY56fbyUx/fSaCvFavVSsB5t38XbH2JzvWs+HX5F9tyFjAkoPh9t83hUMn7zuxh8cRBtGsWTEBgGIm3jmfhrrPTy2wHlvPPfomEBgbRrMtIPsg6w7l3mJ/i82FNiHl8PgvG9SY+JJDAxjEMnLWDAgrY+fHfGdgllvDgAAJDYuk+4i3WHS9q4dSi+wmL78XATpE0ju7HC/95ko6hQUT2mMrPJwDbflL7BNFx9L8Z27sNkQ2Diej8KAt2lyyjYb99M/23l7/89RNJbnQ77xw4+5+2Q/MY0Ciev/94xjh/hXuY3j2Iax+cwD2dYogMCyeh77N8s7/MwTccP+Xn97SZ42s0/uzt3yD/DufHGf1zoP3yFmMpancVY1pHMnzphdNDTy8fxVVRRUso2D8/HB2f9j9vyLaf1D4BWOu0YsyqHJY92hxfq/Wc5R/sjX8znzcev47l1+7xqxLnl4P9Mxy/JuVvYv67a4l8YDKPXhdNy04jmDyiJRvemc+GfOOPi4iIiIiIiJhxBRWFC9gx6zHGfN+SZxavY+OaJcwceQ31SmsOeaxIGcwT37dgwmdr+HnRRGLWjuWO8cvIKWkh6y2G3jaJzIRxfLR6Pd+nPUOXgj3sd1JR2PvWORzMOcb6Scl4nveae9Rovj2Sy9Hlo2jh25d3D+eSm5vL4bQ7qW8piv+Hibdz/5IgRs5ZybofF/BUyFKGD5vO1gLAdoD/9/hdvHqkD2+t+IFPn6jLx7PXcGHJopCDaS8wr+7jfJK5j10/vsld0bWxYOPoYQttR7xK2sr1/LT4BTrseIbB474hryQ/Bzzo/MqH/F/kCp57x5vJX8zkxr2pzPupZC/5bPz0B1q8tJIdu1bx98A0xry4jBMABu0b999+/jxa30yvRqtZ+OXh4kKfjaNfL2RVg5voneBpnD8AzpCxeDPXpv7Ejh3f8bT/XO59/COK6qjG48defj1M9M/++DOz//Lz75z8ONI/x9q3O+PVszXJcafYmJ59XvG4kL3pGRyLa0ush9H54ej4ND5/7LIEce+nh8k9vpF/tvfl+leyyMnN5fj2aXQpXv7B3vg3/rzZ8XuJ+fU8+3/lHz/Xnl+O9c/8+N03syf+1qKi9LmbPze8kkVBzkbSs3xJTG6BOwDuNE1qg//udDYc1ULpIiIiIiIi4hxXUFG4kN/3/oYl4hqujw2jcdNoru3/CIMSi2/GPbWK+R8dpNuY5xiUFElE4gCeHdOdI2nz+e4kQD7ps19ndfPRzJw8gLbNQwmP7cEjkx8gsSrcz5vzBTNmn2TI1KkMubYFTSOTGfTsKNpvWsDCrAJsf37BB0s96T9uLN2jI4jpPYH/61PvIsU0G6fDhvDcE9cT7uuNNaQDN3VojBseJNw7mScGXkdiizDCW/dk9H2d+PP7Vewonr3m0bQd18XFc21SE/ziOtLuqmu5JvIwe38rmWHnRsNbhjMkygeLdyS39E7gWEY6ewsAE+07xCOWm28K4ruFX1NUVznON5+voF7Pm0nyMs5fafy3jmRoi9pYPJvQZ0Q/6n35IV8esZkYP0b5NWIw/kzt307+nZIfB/p3Wdu3kpDcnKz0DeRRwOY5o3jsv5vI5ySb1m8jIjmRukeMzg9Hx+dlHt+OMj1+L8Y4v36libR3/Fx5fjnYv1yz49eNoP7/YcXq1ay+YPuWN+4IwXL4IIfxp77fH3xw11VcNWQ+v/vVx5/DHDxcxZ56KCIiIiIiItXWFVQU9iSh72CiVo+mfef+DB/7IrOXZZfO0rMd3kl2ThOio+qUFoKsLVsSkreLrAOFQB5bftlDg6uvJtzdRV2wIz97E5uP7uCVbv6lM898m9zH57kH+eNAIQV7d7CrsBnRLUqeKlWbqJhmF1mf0o2A+ESaXtBHG8fWvsXIngmEB9ejjq+V4Ls/4cSJXHJLJq/VqoUX4O3tTa1a3lgs3nh7wamTp4pnn7oR1Ci4ePabBR+f2nAilxM2k+07xJOE3j2pv2IhXx8Hcr7l8+V16HlzMl4m8lfEndDI0NJZmO6hEYQWZrNjT4GJ8WOUXyP2x5+5/dvLvzPyc+n9u7ztu9M0KZE6m9aTeWonS9+Zx/w5i9hxajvpm7xISIoEw/PD0fF5uce3Y8yP34sxzu/Zw2Xv+Lny/HKsfzbT4xc8/cOJbtWKVhfZIuuXfeqfF3WCQghp5EfJs0m1BrSIiIiIiIg4yxVUFAZruwl8vWEZrw/vRIP9i5jYtxNDZ++m5Fd2c7WdKlDBuSgbNq8uTNueQ25u7tnt2CamdPCkqJzgjrt7mbmP7heb4myhVm3vC4sPJ1eQMmQ8GQmTWZr5B8dycjn0Xj9q22wX5s3C2eqFBWylObNgsZzXcslLFWn/Enkm9qaH33IWLj9O7ncL+aZWd3pfXVJuMcpfkYKCwrPxFBZQYDvbBXNxlpNfs+yMP+P928k/zsnPpffv8rbvGZtM6z8yyNi+itWed3OP7/eszMogfW8MbeO9MTw/HB2flTC+HeVIHMb5LWH/+Ln8/CqHcf/Mjt9C9r3Ri0A/P/wu2ALp9moWtoD6BPAnh4760/PFr/jqxZ74Hz3EnwRQP+CK+pYtIiIiIiIil9EV9xumZ2AM3e54hImzFjH7vrqsWPIDJwBLQDjhvvvYvPV4afEhd0sme2uHEdHADfDhqlahHFizhmy7T7Uy4OGJFyfJO3mJJRg3d9xs+Zw5bzFgj/AYWnn/wuo1xy5aPHEPbUa4+z6y95YEn8/u7N32H9BVRuGv60k/mMBfR/Ykyt8bCwVkb93OGSdVtEy3X07/TfFK4uYeVpZ99gVfLfwaz+59KKl5GuWvSD5Zm7YUr4EMp7dlkuXWlGYh7ibGj0nl9s/++HPK/h3OjwmXOH4dZfFLJCl8C6veXsaRDv0Z3DGH5bNWsjkkiTYBFsPzw9HxebnPH0c5On6M8muOK88v+4z6Z378Gi8f4e4bS3xEDut+3l48/grYvXYdf4bF0dpPc4VFRERERETEOa6gonA+61LHM+2j7/hl12/s3biItBUHCY1qVnRrrncHBt4WwJdTxvH+2p1kr/+ACc8voe6tA+lYC8CD+LuG0377Szw0/kPW7NjL7s3f8MbEVNZXZE1Q71bEtdjDorlL2frrH+w/cqJCRTD3xk0JIZ0vl2Rz/MRJTp0pnufseyMP3B3IwjH3M23pRrKzt7Bm0ZuMvfcFVp4BS71u9P/LUdJmfMq+M3B65we8nrYPsytUugVFEmHdzncrf+UMkLf1XZ5N3WS6qOys9svtvyneXN27O95LJvGP/1m4sc811Cp5ySB/RWwc+/wFJn66ieytX/HS5PfJ69qPbv4WE+PHnPL7ZzD+nLJ/R/PjQP+c1H75O25GUvxpFr63ntZdYonulEjm3DSOxSUT5WF8fjg6Pi/3+eMwR8ePQX7NceX55WD/KjB+PQMiaR0XR9wFWyzNA73AI4ZBQxPJenM8r32byZaVMxg3fTOxQwYTVxXWrxcREREREZEa4QoqCluweh1m6ZRh3JgUTXz3caQnTGbW6MTidUOtdJ44lyltt/DMTUkk9phARsIk3pt8A77FLbhH3sectAlctXYSfa+Jo+3NT7HoTEMqMlEN95Y8+MJTNFlyL22jmtHyznkcsAH5GUxq64fVWpeECT+R89XDRPhasfr/hdeyzxYuLMH9GDsmhp9GJdGkQSCNBrzLIRuAD+3/kcY7Q7z46OFutEnqwqCxH/BrWDQhboClAf1efpu/HplEp6go2gxZRHjXBDzLCfMCvj1Jea0/ByddS/OrYun88Bquv7cnPs6auGay/XL7bzJ/3lf35kbvHWynG73b1S7TskH+APCkzZBbyJ3am7bthjK/1v2k/qs/QRYwM37MKP/4Go0/5+zfsfw40j/ntG+nZ8S3bU2+ewJdEr3wjO9Momc+McnxRX8UMjo/HB2fl/v8MTn+y+fo+DHIrymuPb8c658zx687LYbP4s0Bp5k1+Fo6DJjB8dtmkvpwy4usAS8iIiIiIiJyaSx5uTmlvxJvzlhLdFyb0q9bxiW5LDCRKqVwD9N7JvNxnx9Z/LemV9JfU0QuP51fUgGZGT+f87NK2a+T2nd2ZWgiThEe/hjZ2dOc3/Ay4LrL+P7Ksoya0Q+RK9Blu76JiEvZUlKwpKS4OgyXq47XOP3uLSIiIiIiIiIiInIF0d2oIiIiUjOkuDoAEcdlU0VmmCyjZpxTy6gZ/RCpAarM9U1EnC/F1QG4XnW8xqko7Az5G5k38T0yynsglkcrBo4bSkIFHogkVYxbKCOW/MEIV8chF6ru519Vj78y4nPl+VXV8y8Vk+LqAEQcV2VuPUxxdQBOkuLqAESkRJW5vomIc6Wg77dUz2uc1hQWERGRasPemsK3D17gytBERERERK44O++uR8R/j7g6DLkEdmcK+/j4VFYcIiIiIg6pbn+ZF7mY6jjLRETEDF3fRGqqFJ3bVM9rnN2icF5eXmXFISIiIiIiIiIiIiKVwM3VAYiIiIiIiIiIiIhI5VFRWEREREREpCqzXcK2zBWBioiISHWhorCIiIiIiEhVthywVHATERERsUNF4eri9BIeCq2D1WrFWq8DU34pKOeNBWx7uQvBfVLZb7ucARWyb2ZPgru9ws7Cy7mfylZZ+ZOareqeHyc2vsVdVzelfl1f6jR/jOWny75qPP7tf95Zqm7+zKnu8YuIiIiIiEhNp6JwdeHVnRl7jpP72yx6edt7o4W6MT0Y0LUFtS/yav5P40kIHkraqcsUZxVn3H/7+avqavrxVf8clcOSqSn8EPciP+7cx751/+Rar7KvG41/o8+LU+TvZuG4PiSEBBLYJJ5eYz8h+4yrgxIREREREZGaxMPVAYizuRHcfSyvdnd1HNWV8ic1WOEh9u47Q7OBnYis73eRO0sNxr/h58VxBWybPoxhc62MeXcFN7l/ydP3PsA9QVfxxaiW+qYtIiIiIiIiTqGZwhWRu4G3h3elVeP6BASF0brLX5mRnn/29ZyNzP5bt6LXG7bkhgdnkZ5T9h5sG0fWzGREj3jCGtSnYfNruP3pRexz0u3Fpz6+k0BfK1arlYDzbv8u2PoSnetZ8evyL7blLGBIQPH7bpvDoZL3ndnD4omDaNcsmIDAMBJvHc/CXWenp9kOLOef/RIJDQyiWZeRfJB1hnPvMD/F58OaEPP4fBaM6018SCCBjWMYOGsHBRSw8+O/M7BLLOHBAQSGxNJ9xFusO17UwqlF9xMW34uBnSJpHN2PF/7zJB1Dg4jsMZWfTwC2/aT2CaLj6H8ztncbIhsGE9H5URbsLllGw377ZvpvL3/56yeS3Oh23jlw9j9th+YxoFE8f//xjHH+CvcwvXsQ1z44gXs6xRAZFk5C32f5Zn+Zg284fsrP72kzx9do/Nnbv0H+Hc6PM/rnQPvlLcZS1O4qxrSOZPjSC6fvnl4+iquiipZQsH9+ODo+7X/ekG0/qX0CsNZpxZhVOSx7tDm+Vus5yz/YG/9mPm88fg1CNLq+ONi+4fG3O36M8298fTQpfxPz311L5AOTefS6aFp2GsHkES3Z8M58NuQbf1xERERERETEDBWFTStgx6zHGPN9S55ZvI6Na5Ywc+Q11Cut6eWxImUwT3zfggmfreHnRROJWTuWO8YvI6ekhay3GHrbJDITxvHR6vV8n/YMXQr2sN9JRWHvW+dwMOcY6ycl43nea+5Ro/n2SC5Hl4+ihW9f3j2cS25uLofT7qS+pSj+Hybezv1Lghg5ZyXrflzAUyFLGT5sOlsLANsB/t/jd/HqkT68teIHPn2iLh/PXsOFdzQXcjDtBebVfZxPMvex68c3uSu6NhZsHD1soe2IV0lbuZ6fFr9Ahx3PMHjcN+SV5OeAB51f+ZD/i1zBc+94M/mLmdy4N5V5P5XsJZ+Nn/5Ai5dWsmPXKv4emMaYF5dxAsCgfeP+28+fR+ub6dVoNQu/PFxc6LFx9OuFrGpwE70TPI3zB8AZMhZv5trUn9ix4zue9p/LvY9/RFEd1Xj82Muvh4n+2R9/ZvZffv6dkx9H+udY+3ZnvHq2JjnuFBvTs88rHheyNz2DY3FtifUwOj8cHZ/G549dliDu/fQwucc38s/2vlz/ShY5ubkc3z6NLsXLP9gb/8afNzt+y2F4fXGw/VLlHX+j8WOQ/wpcH/fN7Im/taj4fu7mzw2vZFGQs5H0LF8Sk1vgDoA7TZPa4L87nQ1HtdC5iIiIiIiIOIfuRDWtkN/3/oYl4i6ujw0j0AKNm0afffnUKuZ/dJBuU55jUJI/FiJ5dsxntBo9n++ev57utfJJn/06q5uPZvXkAbRwBwjlkVhX9ec8OV8wY/ZJhrw/lSHti6pEYc+OIi16BguzRjKq/hd8sNST/vPH0j26FkRP4P/6zOOvWec3ZON02BCee+J6wt0B3w7cFFL0SsK9k0kofV8Yo+/rxPQXV7Ej/waiAI+m7bguLp6TSU3w+70j7a5qQ1bkYZb8VjJD042GtwxnSJQPFiK5pXcC4/+bzt6CrrRw97DbfqyjI90jlptvCmLWwq85Oqg/9SzH+ebzFdTrOY8kL+P8Pd6sOP5bRzK0RW0sNKHPiH5M6vUhXx7px2Afo/FjnF/7DMaf0fj1Nsi/o/kpCujS+3dZ27eSkNycrLUbyKM5e+c8wczC+5h6dwSb1m8jIjmRukeMzg9Hx+dlHt+OMrz+2f+47U+D/DnYfpk9Xfz453xiMH7s57/1MbPXRzeC+v+HFe1zuPBvgRZ8GodgOXyQw/gT7fcHH9zVjQkFz/DFk/XxZy0HDxdCffcLPikiIiIiIiJSUZopbJonCX0HE7V6NO0792f42BeZvSy7dJae7fBOsnOaEB1Vp3TWobVlS0LydpF1oBDIY8sve2hw9dVFxYgqJj97E5uP7uCVbv6lM9d8m9zH57kH+eNAIQV7d7CrsBnRLUqeKlWbqJhmF/mrghsB8Yk0vaCPNo6tfYuRPRMID65HHV8rwXd/wokTueSWTH6rVQsvwNvbm1q1vLFYvPH2glMnTxXPPnUjqFFw8ew5Cz4+teFELidsJtt3iCcJvXtSf8VCvj4O5HzL58vr0PPmZLxM5K+IO6GRoaWzMN1DIwgtzGbHngIT48cov0bsjz9z+7eXf2fk59L7d3nbd6dpUiJ1Nq0n89ROlr4zj/lzFrHj1HbSN3mRkBQJhueHo+Pzco9vx5gfvxdndH1xtP2zLn78jceP/fybvz6Cp3840a1a0eoiW2T9sk/t86JOUAghjfwoebao1nAWERERERERZ1FRuAKs7Sbw9YZlvD68Ew32L2Ji304Mnb27dMaXudpOFajgXJQNm1cXpm3PITc39+x2bBNTOnhSVI5wx939bFnCw/1iJQ8LtWp7X1i8OLmClCHjyUiYzNLMPziWk8uh9/pR22a7MG8WzlY/LGArzZkFi+W8lkteqkj7l8gzsTc9/JazcPlxcr9byDe1utP76pJyjVH+ihQUFJ6Np7CAAtvZLpiLs5z8mmVn/Bnv307+cU5+Lr1/l7d9z9hkWv+RQcb2Vaz2vJt7fL9nZVYG6XtjaBvvjeH54ej4rITx7SjH4jC+vjinn+Udf4PxY5h/s9fHQva90YtAPz/8LtgC6fZqFraA+gTwJ4eO+tPzxa/46sWe+B89xJ8EUD9A37JFRERERETEOfQbZgV5BsbQ7Y5HmDhrEbPvq8uKJT9wArAEhBPuu4/NW4+XFi9yt2Syt3YYEQ3cAB+uahXKgTVryLb7VCsDHp54cZK8k5dYInFzx82Wz5nzFrv0CI+hlfcvrF5z7KLFF/fQZoS77yN7b0nw+ezO3m3/AV1lFP66nvSDCfx1ZE+i/L2xUED21u2ccVJFy3T75fTfFK8kbu5hZdlnX/DVwq/x7N6HkpqnUf6K5JO1aUvxGshwelsmWW5NaRbibmL8mFRu/+yPP6fs3+H8mHCJ49dRFr9EksK3sOrtZRzp0J/BHXNYPmslm0OSaBNgMTw/HB2fl/v8cZSj48cof047P8phNH6M8m/++li8fMTq1ay+YPuWN+4Iwd03lviIHNb9vL348wXsXruOP8PiaO2nucIiIiIiIiLiHCoKm5bPutTxTPvoO37Z9Rt7Ny4ibcVBQqOaFd3a692BgbcF8OWUcby/difZ6z9gwvNLqHvrQDrWAvAg/q7htN/+Eg+N/5A1O/aye/M3vDExlfUVeaK8dyviWuxh0dylbP31D/YfOVGhIph746aEkM6XS7I5fuIkp84Uz3P2vZEH7g5k4Zj7mbZ0I9nZW1iz6E3G3vsCK8+ApV43+v/lKGkzPmXfGTi98wNeT9t3kXUxL84tKJII63a+W/krZ4C8re/ybOom00VlZ7Vfbv9N8ebq3t3xXjKJf/zPwo19rqF0KVOD/BWxcezzF5j46Sayt37FS5PfJ69rP7r5W0yMH3PK75/B+HPK/h3NjwP9c1L75e+4GUnxp1n43npad4klulMimXPTOBaXTJSH8fnh6Pi83OePwxwcP4bXFyedH+UyGD9G+a/I9dEzIJLWcXHEXbDF0jzQCzxiGDQ0kaw3x/Pat5lsWTmDcdM3EztkMHGuXjtaREREREREagwVhU2zYPU6zNIpw7gxKZr47uNIT5jMrNGJxetGWuk8cS5T2m7hmZuSSOwxgYyESbw3+QZ8i1twj7yPOWkTuGrtJPpeE0fbm59i0ZmGVGiim3tLHnzhKZosuZe2Uc1oeec8DtiA/AwmtfXDaq1LwoSfyPnqYSJ8rVj9/8Jr2WdLE5bgfowdE8NPo5Jo0iCQRgPe5ZANwIf2/0jjnSFefPRwN9okdWHQ2A/4NSyaEDfA0oB+L7/NX49MolNUFG2GLCK8awKe5YR5Ad+epLzWn4OTrqX5VbF0fngN19/bEx9nTXwz2X65/TeZP++re3Oj9w62043e7WqXadkgfwB40mbILeRO7U3bdkOZX+t+Uv/VnyALmBk/ZpR/fI3Gn3P271h+HOmfc9q30zPi27Ym3z2BLoleeMZ3JtEzn5jk+KI/ChmdH46Oz8t9/pgc/+VzcPwYXl+cMz7LZzB+jPLv6PXxHO60GD6LNwecZtbga+kwYAbHb5tJ6sMt9WRYERERERERcRpLXm5O6UTTzRlriY5rU/p1y7gk9V/2bAAAIABJREFUlwUmUqMU7mF6z2Q+7vMji//WVH+NERG5RJkZP5/zs0rZr5Pad3ZlaCJOER7+GNnZ01wdhlQ1y4DrKuEzIpeRrm8iNZMtJQVLSoqrw3C56niNU21KRERERERERERE5Aqiu1FFRESkZkhxdQAijsumes0wkSpsGbouSpWi65tIDZbi6gBcrzpe41QUrgryNzJv4ntklPdALI9WDBw3lARnPFBJXMMtlBFL/mCEq+OQC1X386+qx3+546vq/ZfKleLqAEQcVx1vPZQqKsXVAYicS9c3kRoqBX3PoXpe47SmsIiIiFQb9tYUvn3wAleGJiIiIiJyxdl5dz0i/nvE1WHIJbA7U9jHx6ey4hARERFxSHX7y7zIxVTHWSYiImbo+iZSU6Xo3KZ6XuPsFoXz8vIqKw4RERERERERERERqQRurg5ARERERESqIHdXB+AAT4N/i4iIiFzh9KA5ERERERE5lwewEOju6kAugQ1YDXQFTgK1gBMujUhEgGyq123VImLSMxR9773CVcdrnGYKi4iIiIjIuRoBhwFLNdzcgJ+AuOK+xAP/rgJxadN2hW/hEY+5PAZt2rRdho0qEEMV2KrjNa76FIVPL+Gh0DpYrVas9Tow5ZeCct5YwLaXuxDcJ5X9l/UvFYXsm9mT4G6vsLPwcu6nslVW/qRmq7rnx4mNb3HX1U2pX9eXOs0fY/npsq8aj3/7nxfnuMTxc+pT7gn2xWq14t99Onsqc+wV/sobN/kXfY+qfwcf5lbivkVELocmwF5XB+GAn4Gk4q+Tiv8tIiIiIqWqT1HYqzsz9hwn97dZ9PK290YLdWN6MKBrC2pf5NX8n8aTEDyUtFOXKc4qzrj/9vNX1dX046v+OSqHJVNT+CHuRX7cuY996/7JtV5lXzca/0afr9mqxfhza86o5Uf5c8kIQst8h8v58XWG3349caEB+Pr/hdeyK1gxzt/NwnF9SAgJJLBJPL3GfkL2mbL7bcwD//uToyufpKWDCzMZxmoUi4iIM4QA+1wdhAN+ApKLv04q/reIiIiIlKo+RWHT3AjuPpZXH+1EHYvxu+V8yp/UYIWH2LvvDM3adSKyvh9169Q+b2F1g/Fv+Hmpmmzk557EGn87T42+mSYV/s5XwLbpwxg21407313Byvn3Yf1/D3DPa5nkV3qslRlLdWahfpcJ/G/DVjK3/sKyl/sQ4m7v/0XkAk0oLgqXd974ct3Ti1ibfYTTJ7/kocZV7AfHTKABEAEEAVvKi1fXBREREbkyVexX49wNvD28K60a1ycgKIzWXf7KjPQyv4bmbGT237oVvd6wJTc8OIv0nLL3YNs4smYmI3rEE9agPg2bX8PtTy9in5Nu8T318Z0E+lqxWq0EnHf7d8HWl+hcz4pfl3+xLWcBQwKK33fbHA6VvO/MHhZPHES7ZsEEBIaReOt4Fu46O/3KdmA5/+yXSGhgEM26jOSDrDPnraV9is+HNSHm8fksGNeb+JBAAhvHMHDWDgooYOfHf2dgl1jCgwMIDIml+4i3WHe8qIVTi+4nLL4XAztF0ji6Hy/850k6hgYR2WMqP58AbPtJ7RNEx9H/ZmzvNkQ2DCai86Ms2F2yjIb99s30317+8tdPJLnR7bxz4Ox/2g7NY0CjeP7+4xnj/BXuYXr3IK59cAL3dIohMiychL7P8s3+MgffcPyUn9/TZo6v0fizt3+D/DucH2f0z4H2y1uMpajdVYxpHcnwpRdODz29fBRXRRUtoWD//HB0fNr/vCHbflL7BGCt04oxq3JY9mhzfK3Wc5Z/sDf+zXzeePw6ll+7x69KnF/2GB8/x66vRizUu34UU58eyaCOYf+fvTuPi7LaHzj+eWbAkR3ZURQEd0RBMHNPs9RyyyWzbNOy8la23JuZeS+adrPt2q6W9qssvXmNNMvUXFJz30BRRESUTQHZ92Xm9wegqAwzyOgw+H2/XvMafWae53yfM+ecmfly5jzY6M1blJOfnkJKev7VCdbyaFatOIz/tAXMuKsznfpPZ8H0Thz7bhXHTJ6JNRDrLY3Fgmn68ubSCUQ/E0LnruP4NewT3hnljKJvu7njFaIx8qFy+Qi9/aaMcxsXMuXuZ1iZ2QjXHNMCUcBo4Cig1ROvjAtCCCGEuE3VIylcwZllLzFzbyfm/n6E4wc2suT5XjhfzjkUsjN8En/f2545vxzg0IZ5BB6excNvbie/+gjxX/HoA28REzybNXuOsjdiLgMrEkkzUVJYM+ZbMvJzOfpWGNbXPKbu8Co7sgvI+fNl2tuPZUVmAQUFBWRGPIarUhn/vnnjeHqjB89/u4sj+3/iNZ9NPDf1c2IrAF06/3vlcT7JHsVXO/ex7u+O/PzNAa7/xa6WjIh3Wen4Cmtjkjm3/0se72yDgo6cTIWe0z8hYtdRDv7+Ln3OzGXS7G0UVtdPuhUDPl7N6/47efs7DQs2L+HepOWsPFhdSjnH1+2j/Qe7OHNuN2+4RTDzve1VF1Ou+/iGz7/u+rPqOoL7vfew/o/MqkSNjpyt69ntfh8jg60N1x8AZUT9fpK+yw9y5sxf/LPFD0x5ZQ2VeVTD7aeu+rUy4vzqbn/GlK+//k1TPw05v4Ydv84vPtZdCetWwvHIhGuSb1qSIqPI7daTICtD/aOh7dNw/6mT4sGUdZkU5B3n373tGfRxPPkFBeTFLWJg1fIPdbV/w/sb235vsH6tr2zT//qZt3/VzcDr1+Dx1UQqzvDFA13oMuoTTtV4MXT5x4mMtyckrD2Vk8fU+Ib2oMX5SI7l1CcRUrlWcgu7yqT61bcWDP44HkNvh6aLpWmzChzK4PINrD5QirUuljU/n2fg8Duw0bP9uj4vhLicFNbXn6wp4ey+7RxNzDPij3NmcojKJSQOA3ri1X9+QgghhBBNWz2SwlouJKWitO3FoKA2tPTtTN8JL/JQSNWPp0t2s2pNBkNmvs1Dof60DXmQ+TOHkh2xir+KAcqJ/OYL9rR7lSULHqRnu9b4BQ3jxQXTCGkMv7/O38zib4qZ/P77TO7bHl//MB6a/zK9o39ifXwFuqzN/LjJmgmzZzG0c1sCR87h9VpnEegobTOZt/8+CD97DXY+fbivT0tUWBE8ZQF/n3gXIe3b4Nd1OK8+1Z+svbs5UzW7y8r3Tu7q1p2+oa1w6taPOzv2pZd/Jkmp1TMIVXiNfo7JHWxRNP6MHhlMblQkSRWAEcdvEKsgRtznwV/rt1KZd8hj2687cR4+gtBmhuvvcvxjnufR9jYo1q0YNX08zn+s5o9snRHtx1D9GmKg/RlVfh31b5L6acD53dTj2xEc1o74yGMUUsHJb1/mpf+Lppxioo+epm1YCI7ZhvpHQ9vnTW7fDWV0+62N4fp1ulyRdb1+5uxfhtT9+jV8fL25dJkZZNICV6eL/Ph4RzpOXsUFJ1dakElGZn3+qqnCY8Jn7Nyzhz3X3Xaw9GEfg+diuliaNpW3Dx7pqainrCN190zcLqbh0LIlji1r324vUwKFuJoN4A1k6u9PFtFvDgItqXM9YYs+PyGEEEKIBqjHd2lrgsdOosOeV+k9YALPzXqPb7YnXJ6lp8s8S0J+Kzp3cLj8Rd6uUyd8Cs8Rn64FCjl1IhH3O+7ArxGu01WeEM3JnDN8PKTF5Zlb9q2e4teCDC6ma6lIOsM5bQCd21dfVcqGDoEBtawnqsKlewi+152jjtzDX/H88GD8PJ1xsLfD84m1FBUVUFA9uat5c5oBGo2G5s01KIoGTTMoKS6pmn2qwsPbs2p2mIKtrQ0UFVCkM/L4DWJN8MjhuO5cz9Y8IH8Hv/7pwPARYTQzov4qqWnt3/ryzAt167a01iZwJrHCiPZjqH4Nqbv9GVd+XfVvivq58fO7ucdX4xsagkP0UWJKzrLpu5Ws+nYDZ0riiIxuRnCoPxjsHw1tnze7fTeM8e23Nobr98rLVdfrZ87+ZUjdr1/Dx1cTUXfkH7uyyd4zi8Bay2iGg4cPPt5OVF/vtL45A+sWfnTu0oUutdz8Xetz1cKGx9KUKYCCltTVMxj+xFJiKureLoS4hjOVyy84NYF+Y+BzgsWfnxBCCCHEDarXBCu7O+ew9dh2vniuP+5pG5g3tj+PfnP+8s9djcvtNIIMTq106JoNZFFcPgUFBVduudEs7GNN5UdGNWp1jbmP6tqmOCs0t9Fc/+W8eCfhk98kKngBm2IukptfwKXvx2Oj011fbwpXvt0roLtcZwqKcs2Rqx+qz/FvkHXISIY5/cn6P/Mo+Gs925oPZeQd1ekIQ/VXqaJCeyUebQUVuiunYFyceurXWHW0P8Pl11H/mKZ+bvz8bu7xrYPC6Hoxiqi43eyxfoIn7feyKz6KyKRAenbXYLB/NLR93oL23VANicNw/Var+/Uze//Sx+Dr18Dx9SZTXFxxIYtLOS0Y/t4Wtrw3nBY5l8jCBVeX+ryNakleej9uTk44XXdzY8gnhpePMF0sTVtFajIX3VvhkRvL/uhM3Fp6kJeSQk5K7duNWf5biNuKF1BUea+vP1lEvwkDUqvu9bDo8xNCCCGEaIB6f4O0dgtkyMMvMm/ZBr55ypGdG/dRBCgufvjZJ3MyNu9y8qHgVAxJNm1o664CbOnYpTXpBw6Q0JC/wFtZ04xiCotv8JOaSo1KV07ZNYtVWvkF0kVzgj0HcmtNnqhbB+CnTiYhqTr4cs4nnDd6DTVtylEiM4J55PnhdGihQaGChNg4ykz0gdPo4+s5f6M0C2XEMDu2/7KZLeu3Yj10FNU5T0P1V6mc+OhTVWsgQ+npGOJVvgT4qI1oP0bSe351tz+TlN/g+jHCDbbfhlKcQgj1O8Xur7eT3WcCk/rl8+eyXZz0CaWHi2KwfzS0fd7s/tNQDW0/hurXOObsX3Uz9Po1dHw1nTJyL5zn/IXcq9YzVuyD6N42nyOH4qpiquD84SNktelGV6f6pKgbvnyE6WJp2sqjN7HNejgTetmjaDox/gFfdmw8QJGe7TfylihEk+YFZFfe6+tPFtFvQqlcOqKH/qdY9PkJIYQQQjRAPbIB5RxZ/iaL1vzFiXOpJB3fQMTODFp3CKj86aqmDxMfcOGPhbP57+GzJBz9kTnvbMRxzET6NQewovvjz9E77gOefXM1B84kcf7kNpbOW87R+qwJqulCt/aJbPhhE7EpF0nLLqpXEkzd0hcfIvljYwJ5RcWUlFXNy7K/l2lPuLF+5tMs2nSchIRTHNjwJbOmvMuuMlCchzDhnhwiFq8juQxKz/7IFxHJBmd1VVN5+NPWLo6/dqVQBhTGrmD+8miTJT2MPb7e8zeKhjtGDkWz8S3+9ZvCvaN60bz6IQP1V0lH7q/vMm9dNAmxW/hgwX8pvHs8Q1ooRrQf4+g/PwPtzyTlN7R+GnB+Jjq+/oIDCO1eyvrvj9J1YBCd+4cQ80MEud3C6GBluH80tH3e7P7TYA1tPwbq1zjm7F91M/T6NXR8NYYuP5mYY1Eci0unRFtAyqkooo7FkVFa40kV8SwZ341uD3x29QUarQJ56NEQ4r98k093xHBq12Jmf36SoMmT6FbPNfGtXfzp2q0b3a67BdHOrZnhWE0YS5NWspP5z/5E0NJITp+MYMShGcz6OQudvu3mjleIxsYTSK+619tvrOn370Ocj/+WiR79ePtgIme+HoejmUO/TAV0A9YCwYBKT7wyLgghhBDiNlWPpLCCXbNMNi2cyr2hnek+dDaRwQtY9mpI1bqPdgyY9wMLe55i7n2hhAybQ1TwW3y/YDD2VUdQ+z/FtxFz6Hj4Lcb26kbPEa+xocyL+kxUQ92JZ959jVYbp9CzQwCdHltJug4oj+Ktnk7Y2TkSPOcg+VteoK29HXYt7uHThCupBcVzPLNmBnLw5VBaubvh/eAKLukAbOn9rwi+m9yMNS8MoUfoQB6a9SMpbTrjowIUd8Z/+DWPZL9F/w4d6DF5A353Bxt/ZWL74YR/OoGMt/rSrmMQA144wKApw7E11cQuI4+v9/yNrD/NHSO5V3OGOIYw8k6bGkc2UH8AWNNj8mgK3h9JzzsfZVXzp1n+nwl4KGBM+zGG/tfXUPszTfkNq5+GnJ9pjl/HmdG9Z1fK1cEMDGmGdfcBhFiXExjWvfKPQob6R0Pb583uP0a2f/0a2n4M1K9RzNu/6mTo9Wvo+GqEssPvM7JPb/pNXcH5kkg+GtuX3v2f5vtEY/60oKb9c8v48sFSlk3qS58HF5P3wBKWv9CplnWPb3astzYWy6UjY2s4wwIDaOffkQEvRXC+oq7tQoireAEpVfd6+00Zu2aF0sbHDTsrG1xa+hDw5BpyzRl3TZ2oTGyfBdKAjvrilXFBCCGEELcnpbDgyopZJ6MO07lbj8v/7tQt1GyBiSZGm8jnw8P4edR+fv+bb/3XLRFC6Cf9q1LJOp70+yetfjnI/DDzpEjLj4TTa1gsr8f/wAQ7s4TQ5MVEHbrqs0rNf4f2HmDO0IQwCT+/l0hIWGTeID4C/gL6AjPMG8oNewywA74ApgN5wHdmjUiI216jGN+EECanCw9HCQ83dxhmZ4lj3G2bOxBCCNHUKCgk8Om9HniOWEqSKdefMESXyrLRnnjcvYg4neqWXwxPCCFMygs4VXVvqUKBQ1X/PlT1fyGEEEIIcZn82lQIIUTToBnJ8tRslpujbMWbqWsvMtUcZYuryUKgwsIlYOYZJjpgE5VJYScss0/pgD3AzKr/RwJ7sdxZz0I0EWYf34QQN8dcLPPzgolZ4hjXOJLC5cdZOe97ovRdEMuqCxNnP0pwPS6IJBoZVWumb7zIdHPHIa5n6f2vscd/K+IzZ/9q7PUvbj8yTVtYuEbx00MVoAXuq7q3RNZA9XtTMdCsxv+FEGbRKMY3IYTphSOfwbHMMU7WFBZCCCGExahrTeFxk34yZ2hCCCGEEELcds4+4Uzb/8s2dxjiBtQ5U9jW1vZWxSGEEEII0SCW9pd5IWpjibNMhBDCGDK+CdFUhUvfxjLHuDqTwoWFhbcqDiGEEEIIIYQQQgghhBC3gMrcAQghhBBCCCGEuAnU5g5ACCGEEI1V47jQnBBCCCGEEEII07EC1gNDzR2IEJUSsKyfVQshjDQX0Bl8VpNniWOcJIWFEEIIIYQQoqnxBjKRK8KLRsMS19sUQhghHHmvwTLHOMtZPqJ0I8+2dsDOzg475z4sPFGh54kVnP5wIJ6jlpN2U/9SoSV5yXA8h3zMWe3NLOdWu1X1J5q2xts/io5/xeN3+OLqaI9Du5f4s7Tmo4bbf9373yqNt35N4wbPr2QdT3raY2dnR4uhn5N4K+tGm8LS+1pUvke5PszqgltYthBCCFGbVkCSuYMQQgghRGNlOUnhZkNZnJhHQeoy7tfU9UQFx8BhPHh3e2xqebT84JsEez5KRMlNirORM3z+dddfY9fUX185v4bKZ+P74ezr9h77zyaTfOTf9G1W83FD7d/Q/k2bRbQ/VTte/jOHrI3TaV3jHS5//xc8N24Q3Vq7YN/iHj5NqGfGuPw862ePItjHDbdW3bl/1loSymqW25Jpv2WRs+sfdGrob3AMlNXgcxFCCHF78AGSzR2EEEIIIRory0kKG02F59BZfDKjPw4yff0GSP2JJkx7iaTkMgLu7I+/qxOODjbXrKFjoP0b3F80TjrKC4qx6z6O114dQat6v/NVcPrzqUz9QcVjK3aya9VT2P1vGk9+GkO5yWM1VFZDz+V2oeA6cA6/HYslJvYE2z8chY+6ru1CCNEEtaIqKaxv7LPnrn9u4HBCNqXFf/BsS/nwL4QQQtxO6vd1suAYXz93N11auuLi0YauAx9hcWSNr8T5x/nmb0MqH/fqxOBnlhGZX/M32DqyDyxh+rDutHF3xatdL8b9cwPJJprkVPLzY7jZ22FnZ4fLNT//roj9gAHOdjgN/A+n839iskvV8x74lkvVzytL5Pd5D3FngCcubm0IGfMm689dmZ6lS/+Tf48PobWbBwEDn+fH+LJr1tIu4deprQh8ZRU/zR5Jdx833FoGMnHZGSqo4OzPbzBxYBB+ni64+QQxdPpXHMmrPELJhqdp0/1+Jvb3p2Xn8bz72T/o19oD/2Hvc6gI0KWxfJQH/V79iFkje+Dv5UnbATP46Xz1Mhp1H9+Y86+r/sqPziPMexzfpV/ZqLu0kge9u/PG/jLD9adN5POhHvR9Zg5P9g/Ev40fwWPnsy2txotvsP3or99SY15fQ+2vrvIN1H+D68cU59eA4+tbjKXyuLuZ2dWf5zZdPz209M+X6dihcgmFuvtHQ9tn3fsbpEtj+SgX7By6MHN3PttntMPezu6q5R/qav/G7G+4/RpS9+tTZ/02iv5VF8OvX8PGV0MUnAe9zPv/fJ6H+rXBRu933nLy01NISc+/OtlbHs2qFYfxn7aAGXd1plP/6SyY3olj363imKmzwgbLMvZcbnOavry5dALRz4TQues4fg37hHdGOaPo227ueIUQ4mbwoXL5CL1jXxnnNi5kyt3PsDJT1o0TQgghbjf1SApXcGbZS8zc24m5vx/h+IGNLHm+F86Xcw6F7AyfxN/3tmfOLwc4tGEegYdn8fCb28mvPkL8Vzz6wFvEBM9mzZ6j7I2Yy8CKRNJMlBTWjPmWjPxcjr4VhvU1j6k7vMqO7AJy/nyZ9vZjWZFZQEFBAZkRj+GqVMa/b944nt7owfPf7uLI/p94zWcTz039nNjKjAz/e+VxPskexVc797Hu7478/M0Byq6LQktGxLusdHyFtTHJnNv/JY93tkFBR06mQs/pnxCx6ygHf3+XPmfmMmn2Ngqr6yfdigEfr+Z1/528/Z2GBZuXcG/SclYerC6lnOPr9tH+g12cObebN9wimPnedooADBzf8PnXXX9WXUdwv/ce1v+RWZWo0ZGzdT273e9jZLC14foDoIyo30/Sd/lBzpz5i3+2+IEpr6yhMo9quP3UVb9WRpxf3e3PmPL1179p6qch59ew49eZELHuSli3Eo5HJlyTfNOSFBlFbreeBFkZ6h8NbZ+G+0+dFA+mrMukIO84/+5tz6CP48kvKCAvbhEDq5Z/qKv9G97f2PZriJ7Xx6jxx7z9q24GXr8Gj68mUnGGLx7oQpdRn3CqRmPX5R8nMt6ekLD2VE4qVeMb2oMW5yM5llOfL9GVayW3sKtMql99a8Hgj+OpMFlZtzerwKEMLt/A6gOlWOtiWfPzeQYOvwMbPduv6/NCCNEUVCWF9Y2J1pRwdt92jibmGfEHViGEEEI0NfVICmu5kJSK0rYXg4La0NK3M30nvMhDIVU/ni7Zzao1GQyZ+TYPhfrTNuRB5s8cSnbEKv4qBign8psv2NPuVZYseJCe7VrjFzSMFxdMI6Qx/P46fzOLvylm8vvvM7lve3z9w3ho/sv0jv6J9fEV6LI28+MmaybMnsXQzm0JHDmH12udXaSjtM1k3v77IPzsNdj59OG+Pi1RYUXwlAX8feJdhLRvg1/X4bz6VH+y9u7mTNVMMyvfO7mrW3f6hrbCqVs/7uzYl17+mSSlVs/QVOE1+jkmd7BF0fgzemQwuVGRJFUARhy/QayCGHGfB3+t30plXiKPbb/uxHn4CEKbGa6/y/GPeZ5H29ugWLdi1PTxOP+xmj+ydUa0H0P1a4iB9mdU+XXUv0nqpwHnd1OPb0dwWDviI49RSAUnv32Zl/4vmnKKiT56mrZhIThmG+ofDW2fN7l9N5TR7deQ2l8fxajxx5z9y5C6X7+Gj683ly4zg0xa4Op0kR8f70jHyau44ORKCzLJyKzPXzVVeEz4jJ179rDnutsOlj7sg2Kysm5vKm8fPNJTUU9ZR+rumbhdTMOhZUscW9a+3V6mCgshmhobwBvI1D8mytgnhBBC3N7q8V3amuCxk+iw51V6D5jAc7Pe45vtCZdn6ekyz5KQ34rOHRwuf5G369QJn8JzxKdrgUJOnUjE/Y478GuE6/eVJ0RzMucMHw9pcXnmln2rp/i1IIOL6Voqks5wThtA5/bVV5WyoUNgQC3riapw6R6C73XnqCP38Fc8PzwYP09nHOzt8HxiLUVFBRRUT/5q3pxmgEajoXlzDYqiQdMMSopLqmafqvDw9qyaPaZga2sDRQUU6Yw8foNYEzxyOK4717M1D8jfwa9/OjB8RBjNjKi/Smpa+7e+PCNL3botrbUJnEmsMKL9GKpfQ+puf8aVX1f9m6J+bvz8bu7x1fiGhuAQfZSYkrNs+m4lq77dwJmSOCKjmxEc6g8G+0dD2+fNbt8NY3z7NaT218e48cec/cuQul+/ho+vJqLuyD92ZZO9ZxaBtZbRDAcPH3y8nai+3ml9v09bt/Cjc5cudKnl5u9a86qFDS/rdqYAClpSV89g+BNLiamoe7sQQjQ5zoAWcJKxTwghhBC1q9cEK7s757D12Ha+eK4/7mkbmDe2P49+c57qlIJxuZ1GkMGplQ5ds4EsisunoKDgyi03moV9rKn8OKVGra4x91Fd2xRnheY2muu/vBfvJHzym0QFL2BTzEVy8wu49P14bHS66+tN4cq3fwV0l+tMQVGuOXL1Q/U5/g2yDhnJMKc/Wf9nHgV/rWdb86GMvKM6XWGo/ipVVGhrrINaQYXuyikYF6ee+jVWHe3PcPl11D+mqZ8bP7+be3zroDC6XowiKm43e6yf4En7veyKjyIyKZCe3TUY7B8NbZ+3oH03lGni0Pf6GDf+mL1/6WPw9Wvg+HqTKS6uuJDFpZwWDH9vC1veG06LnEtk4YKrS33eRrUkL70fNycnnK67uTHkk3h0Jivr9laRmsxF91Z45MayPzoTt5Ye5KWkkJNS+/Z6Lf8thBCWwAsoqrzXNybK2CeEEELc3ur9DdPaLZAhD7/IvGUb+OYpR3Zu3EcRoLj44WefzMnYvMvJh4JTMSTZtKGtuwqwpWOX1qQfOEBCQ/46bWVNM4opLL7BTzEqNSpdOWVBH5A4AAAgAElEQVTXLFZp5RdIF80J9hzIrTV5om4dgJ86mYSk6uDLOZ9w3uj1t7QpR4nMCOaR54fToYUGhQoSYuMoM9GHMaOPr+f8jdIslBHD7Nj+y2a2rN+K9dBRVOc8DdVfpXLio09VrYEMpadjiFf5EuCjNqL9GEnv+dXd/kxSfoPrxwg32H4bSnEKIdTvFLu/3k52nwlM6pfPn8t2cdInlB4uisH+0dD2ebP7T0OZrP3qYdz4Y87+VTdDr19Dx1fTKSP3wnnOX8i9aj1jxT6I7m3zOXIoriqmCs4fPkJWm250dapPitrw8hFqk5V1eyuP3sQ26+FM6GWPounE+Ad82bHxAEV6tt/IW6IQQjRqXkB25b2+MVHGPiGEEOL2Vo9sQDlHlr/JojV/ceJcKknHNxCxM4PWHQIqf9qq6cPEB1z4Y+Fs/nv4LAlHf2TOOxtxHDORfs0BrOj++HP0jvuAZ99czYEzSZw/uY2l85ZztD5rgmq60K19Iht+2ERsykXSsovqlQRTt/TFh0j+2JhAXlExJWVV85zt72XaE26sn/k0izYdJyHhFAc2fMmsKe+yqwwU5yFMuCeHiMXrSC6D0rM/8kVEMsb+MFzl4U9buzj+2pVCGVAYu4L5y6NNlvQw9vh6z98oGu4YORTNxrf4128K947qRfPqhwzUXyUdub++y7x10STEbuGDBf+l8O7xDGmhGNF+jKP//Ay0P5OU39D6acD5mej4+gsOILR7Keu/P0rXgUF07h9CzA8R5HYLo4OV4f7R0PZ5s/tPg5mo/epj3Phjzv5VN0OvX0PHV2Po8pOJORbFsbh0SrQFpJyKIupYHBmlNZ5UEc+S8d3o9sBnV1+g0SqQhx4NIf7LN/l0Rwyndi1m9ucnCZo8iW71XBPf2sWfrt260e26WxDt3JoZVZZR53K7K9nJ/Gd/ImhpJKdPRjDi0Axm/ZyFTt92c8crhBCm5gmkV93rHfus6ffvQ5yP/5aJHv14+2AiZ74eh6OZQxdCCCHErVGPpLCCXbNMNi2cyr2hnek+dDaRwQtY9mpI1bqPdgyY9wMLe55i7n2hhAybQ1TwW3y/YDD2VUdQ+z/FtxFz6Hj4Lcb26kbPEa+xocyLek2kU3fimXdfo9XGKfTsEECnx1aSrgPKo3irpxN2do4EzzlI/pYXaGtvh12Le/g04UpqQfEcz6yZgRx8OZRW7m54P7iCSzoAW3r/K4LvJjdjzQtD6BE6kIdm/UhKm874qADFnfEffs0j2W/Rv0MHekzegN/dwcZfsdx+OOGfTiDjrb606xjEgBcOMGjKcGxNNfHLyOPrPX8j609zx0ju1ZwhjiGMvNOmxpEN1B8A1vSYPJqC90fS885HWdX8aZb/ZwIeChjTfoyh//U11P5MU37D6qch52ea49dxZnTv2ZVydTADQ5ph3X0AIdblBIZ1r/yjkKH+0dD2ebP7j5HtXz/TtB+9jBp/zNu/6mTo9Wvo+GqEssPvM7JPb/pNXcH5kkg+GtuX3v2f5vtEY/60oKb9c8v48sFSlk3qS58HF5P3wBKWv9CplnWPG8pwWQ07l9uFjoyt4QwLDKCdf0cGvBTB+Yq6tgshRBPjBaRU3esd+8rYNSuUNj5u2FnZ4NLSh4An15BrzriFEEIIccsohQVXVpM6GXWYzt16XP53p26hZgtMNDHaRD4fHsbPo/bz+998679uiRBCP+lflUrW8aTfP2n1y0Hmh5k+XWuM8iPh9BoWy+vxPzDBziwhNHkxUYeu+qxS89+hvQeYMzQhTMLP7yUSEhaZOwxh6T4C/gL6AjPMHIsQVWR8E6Jp0oWHo4SHmzsMs7PEMe62zR0IIYRoahQUEvj0Xg88RywlyZTrTxiiS2XZaE887l5EnE51yy+GJ4QQQlzFCzhVdS+EEEIIUQvzTKUSQgghTE0zkuWp2Sw3R9mKN1PXXmSqOcoWV5MFgoWFS8CyZpiIRkgHbKIyKeyEjIui0ZDxTYgmai7yXoNljnGNIylcfpyV874nSt8Fsay6MHH2owSb4IJNwkxUrZm+8SLTzR2HuJ6l97/GHv+tiM+c/aux17+4/cg0bWHhLPGnh6IRUgFa4L6qeyEaARnfhGiiwpHP4FjmGCdrCgshhBDCYtS1pvC4ST+ZMzQhhBBCCCFuO2efcKbt/2WbOwxxA+qcKWxra3ur4hBCCCGEaBBL+8u8ELWxxFkmQghhDBnfhGiqwqVvY5ljXJ1J4XueXnOr4hBCCCGEMGjhVA9zhyCEEEIIIYQQFk9l7gCEEEIIIYQQjZDa3AEIIYQQQoibpXFcaE4IIYQQQgjReFgB64Gh5g5ECNFUJGBZP6sWQhhpLqAz+KwmzxLHOEkKCyGEEEIIIa7mDWQiVxMXQpiMJa63KYQwQjjyeQHLHOMkKSyEEMI0rFryxqLeDNJAeWwkj78fR5qxfzFWbBj1yjBe6KSCsmTefnkv20pMePybzZj4hRDCkrQCkswdhBBCCCGEuFkkKSyEECaibhvEV6/a8vVL+9hRbu5oTEvj1ZqnHu7C4Ha2aIoLiNp9nI8jUrhQcc0TtXn89+3NfHX2mmytypY+Y3vwdD833JUiTvx1nA/XJF/ZX1fEug8i+NU3kCX/cNAfSG3HVzT0GhPGYz1b4OtijS4/j6i9MXy+NonkMlBcAnhvQTDdr3nH0xUlMvfV/fxVZkQFmCp+Y9RZloLv/YNZPMb56jdwbSERH2zk81hdk39cCHGL+ADJ5g5CCCGEEELcLJIUFkIIUTeVMxOnhdI34zjhc1O4ZO/Bo0+G8Ub+dl76PRetwQMotL67JzN7V/DDkq3srfBk6tNhvJGbx8u/53JtXrn+FHT5l9iwJo5zmWUorp48NDGMuRWFPBuRSXlOEh8uuITN5Z80qeh8Xx+mqFI5ZlTy/mbHX/+ytGlnWbA0nsTLlV9BTpqW6t9tNfXHjalH14Fv8t2nj+KvKefC+teZ/I91JFU01e1GVosQ9dGKqqSwnnan8+eVHdHM63iJ7KpfRpQdWcDgBzbywHYL3j76C84afmMTQgghhLB4khQWQghjaJy476EQHu7hjIu6nIyUDNas2Mfa8zpUXh35OLwrHauu0j7nCx8Ayo4fYtLHCeToKvcfPjGER0KdcVFKOH3kFJ+sjCeuuLoAFb2n3s/0oki+LPVlSj9X3JRiDv20i7l/FuDZoyvPDmtFl5Y22JQXEXskli9+jOd0UeXeir07Dz8RwrguNpQmJfK/OAceb5vCtHdPk6oD1Lb0GtmdKf08aG1bwYVT5/hqRTS7LxmR0nV1J9SrkD++OcOxizq4mMCXm1vz7SAf/DedIM7QIVRODO7bgtTt21h9MhcteSzd4sPiPq3x3xTN6YZ++dYVs39zzJX/n82i1Lc177d3wVXJ5GJFCSlJNdZy0HgyKgD2r7xA7lUTTxVsHZpjSxlZeeVXkr03O/6ajCxLV1ZMYmI2Z/SU3dQfN0jTlzeXTiD6yRDuP9iGv//xO++M2sGjv3VtmtsjsuXaHsL0fIB96O9PawFdOt8/3I5nNpde2U/lb9nbhRBCCCFuE5IUFkIIgxRaDgzhuXa5fPj+fo4VWuHt74lH1aRF7YVTPP/sqTqWj1DTfWxv/haQzqL/HCBa58LEJ3vwr3H5TPs+jaIa5TiGduKerUd5/fUMsm1dCHapQAfY20PMlsOsSMgnz9qJ4ZPCCB+Xz5QVaZQoGvpPuoPx9udZuCCeVNe2zJjiglVqyuXyu4zpw2tdLrFkyVYis60JGt6DV58qIfG92BqzMfWcvVqFCi1lNWYjlpVpUTyc8dVAXJH+fQGU5k608ygn9mxe1axiHRcSssgb5UyALZzON+Y1MJaCrbsXgwNtyIzNIbuWTJl9V1/6KiksPHHNuhEqe0bPGMJjqhimzz95eaaYKeN3HzSAbx92r+XNV8uJ1Zt4edetrKumyypwKIPLN/D0gVKsiWXNz+d5cfgd2Jzr3yS3W0dsQlJawuR8gCT9/cl6bZy5IxRCCCGEEA0gSWEhhDBIwdXFBl16AoeTCsnRQcalXON3t3Lj7rBmHPzxGFsSStFRwFe/tmTgpDYE/ZjG/hq5yWaXzrF0QxoXtEBxBnszK7ef3nGM05efVciq7emMud+NVqo0ztp4cneQju1fnGBvcgUkn2TlYV/melc9vbkXY/qp2fRZJJuqpvWm/S+WAe8E0Mf9NP+9WPccQ23GJU7mdGbgQE82/PcC2TZujOvvikrJwdFWgSIDcxTtmuFIKecKmzNo2l08rTrOy7+VkkcLnOwUyDfFHEcFt7v68X+T3GmmaEnZf4TZa9K57lpvSnP69vGi6PAeIo29EJwJ4886cIi/xVnXsgiCjuLsInQGy6p8trpVZxYv6Xx57/LEE1clspv644aovH3wSI9EPWUdqU/tZPiiNBwGt8SxZdPcbq9ApkwVFqZkA3gDmaDqrq/dxYHizqTvYhlaDFDG0XeGMnYplr19cbwRyyIJIYQQQlg+SQoLIYRBWk4fOEfijGAWv9GSg7GZnDieyNaTBdcnHWuh2Nvh1byIE6lll3/iXZSaR5rGjZYOV2dzcs9nkVrLt1E7P3+mjWtHn7Z2ODVToSigTS/ERgGViz3e6nwOXajeUUtSagEVVUlhtZsjvrb2DJr5AOOvOq0CUh0UMJAUpjyD77+JxffJO/mhv0J5aT47/kjkbGsHdPVKRGkpyi0kjTKMubZb/ejIOnCI509rcPT24sFxgUzvn8WcrbnUnLStuLTi3o7F/Ln+0vUzK7V5rJwfwcqbGH95QSEJhbWvjKvV6aC5cWVdu+aurrSIZO3t87ghCqCgJXX1DIbvyiQmaEmT3i6EyTkDWsDJQLvTpbPy0Q61LstgsduFEEIIIW4TkhQWQggjFJ85wYzZyQR39aB7l1Y88WJ7+n6/hTm7Co1ay9O4y2PpKC2rJfNl7c6UZ7sScPgAryy+SFKBFusevVg9/vqn6i29PJ2PZ+/gl2xj97laTswJZr5+CifnZlBQTFH7EL7TlpBZYMTZF5SSSzMcbUvZu2o7ewGrTp44UEqOMfsbqaKgkISCQkjOIsG6BSvGBhC04whHLmeFFdrc6UvH9CQ+O1ePDKMJ43e/q7+B5SMMlVXZksy9pq+5HzekIjWZi+6t8MiNZX+mCv+hHuSlpJCT0jS3m2SyvRA1eQFFlff6+pO0OyGEEEIIy6YydwBCCGEpyvNyOLjnNMuW7WD+n2V0D3JFU/MJOh1aVKjVV++nyy8gtdgGP+8rywbYeDngUVpIap7hb9WKszMB9tls2nyBxAItOhS8ve2xrl7T+FI+KRX2tPWqHtJVtPK2ozqMiowczpU5Eti2tmUL6kFXQU5WETmlVnQP9cQuMYNTRkyu0hXnEJdmRQc/+6o3HQVP3xY4ZOQQX9iQgPRTFFBprLCpuVHdgiF3OnJ2XyIJtSYbVdg52eLpZH1V0taU8WcdOMTf5m3h2etuW3l3TxFaM9RVU1QevYlt1sOZ0MseRdOJ8Q/4smPjAYqa6HbTz7wXtz0vILvyXl9/knYnhBBCCGHZZKawEEIYpNB+QFdCClPZfzafAhtXBnbQcPFY/lVfirVZBaTTmrAgO/ZFFlOm1VJWoYPyS2w9VMr8+4IYfDGGaK0LE0d4UXBoL8eM+FatyysgtcSBbh2a89u+ItRevjw2wBGVNr3y8aKLbD0WxMujO7Mn6wwprm2ZGGyNcrHqAMUXWLuzhHcm9uTBsmj+vKDFuaU7A+9oxu6vYzhWob/s6vN3CwpgYPNcYi7p8AjqyNO9YdsXiaQZM1NMm8PW3dmMvTeIcXHH2Kf1YOrdjsRvPXTDM0Gvis7Zh6kjHEiOvsT5rHKaeXoxbrQnxScOcrLGuWnat2GQSxZrDubXvl6kyo5RL1x/oTlTxl+eX0B8nReLu7l1ddso2cn8Z39ixdJITtuUk7JuBpN/zkJX0US3m7u+RdPjCaRX3evrT7Qwc5BCCCGEEKIhJCkshBBGKC5vRs8RPXnIozmasiJOHz7Gwt+zqJlP1eUm8d2v3rzyyD1ETFNTEX2ISR8nkKMrJ/KnvXzxUDBPvnIvrpQQd/Q489ZcxKjJn8WpLP/Wjdcm3s2qseVkZaSxdscFQvtWF1zCzlX7afNECLP+2Y7SpPOs3pNFx7a6quRnBdE//8VbZd144tGBPO4AeZdyiDp8mnSjskk6tGo7BoztzJPOaorSMtiyfBdfR5UamYzSkbhlP+86hTLtucE8QTEndh/k35tzMZiPNkZpCXk2/oyd1A5vRysoLODk0Sje/F8iWZcDtKJHHx8cT0ez41J9U2g3OX6zldWU6cjYGs6wwPDbZLsQJuYFpFTd62138XzYv831+2otfLsQQgghxG1CKSy4siLYyajDdO7W4/K/Zy5LM1tgQgghbpRCu9FDeM/7JI8sTjIu8WwKVi1548OupP1nM1+dvbG5i2rfQJb8w4HvX93Ltmuv4meC499sdcYvTGLhVI+rPqvU/Hdo7wHmDE0Ik/Dze4mEhEXmDeIj4C+gLzDDvKEIIZqORjG+CSFMThcejhIebu4wzM4SxzhZU1gIIZoAGz8fhnZxpIVGjWOrNozvpeHwoXSKbnEcWuwY99oY1r4SgHt9FjBWmjPipdH88noHfEDvDOQbPv7NZmT8QghhEbyAU1X3QgghhBCiSZLlI4QQoglQbJwYOimY6W7WqAvyOLBtHx8fLLm1ycnyFN55MYJ3bmRfXTHrF61l/c06/s1mTPzi1pCMvLBwCZh5hokO2ERlUtgJ6VNCCJMx+/gmhLg55iKfF7DMMU6SwkII0QQUnozmlTnR9d9R5cSQMb4EqPU8rs1l67oETstl5oWlaEwzyIW4AY3ip4cqQAvcV3UvhBAm0CjGNyGE6YUjn8GxzDFOksJCCHE70+bwx09R/GHuOIQwAT+/l8wdghAmIW1ZCNFUyfgmRNMkfbuSpdVDnUnhzV+Ou1VxCCGEEEIYdHjvTr2PWdpf5oWojSXOMhFCCGPI+CZEUxUufRvLHOPqTArf8/SaWxWHEEIIIYRBC6d6mDsEIYQQQgghhLB4KnMHIIQQQgghhBA3jb5184UQQgghbmOyprAQQgghhBCiabIC1gNDzR2IECIBy/pZtRDCSHMBnbmDMD9LHOMkKSyEEEIIIYRomryBTOSq6EI0Apa43qYQwgjhyPssljnGSVJYCCGEaVi15I1FvRmkgfLYSB5/P440Y/9irNgw6pVhvNBJBWXJvP3yXraVmPD4N5sx8QshhLj1WgFJ5g5CCCGEEKLxkaSwEEKYiLptEF+9asvXL+1jR7m5ozEtjVdrnnq4C4Pb2aIpLiBq93E+jkjhQsU1T9Tm8d+3N/PV2auztTb+AUy/vw3d/J3xbp7J4jk7+CmjxnN0Raz7IIJffQNZ8g8H/YHUdnxFQ68xYTzWswW+Ltbo8vOI2hvD52uTSC4DxSWA9xYE0/2adzxdUSJzX93PX2VGVIDKlj5je/B0PzfclSJO/HWcD9ckXzl/Y+M3Rp1lKfjeP5jFY5yvfgPXFhLxwUY+j9UarGtLf1wIIerFB0g2dxBCCCGEEI2PXGhOCCFE3VTOTJwWSt/iM4TP3ci0z2LJCQ7jjXscjX4TUWvUFCcm8v3vKZg+v6egy7/EhjUHmLXwT2avSkbpFcbcES5YAbqcJD5csIVn51XftvHRwRLyT6ZyzKjkvULru3syszf8vmQrf/ssnuKeledv+msXGVeWNu0sC+bXOKf5u/jxnBYwXNeW/rhxFFwHzuG3Y7HExJ5g+4ej8FE35e1CCL1aUZUU1tN/VP68squI/PQkkpIqb2d/eY62Knvu+ucGDidkU1r8B8+2rP5drKVsF0IIIYSom8wUFkIIY2icuO+hEB7u4YyLupyMlAzWrNjH2vM6VF4d+Ti8Kx2rkjNzvvABoOz4ISZ9nECOrnL/4RNDeCTUGRelhNNHTvHJynjiiqsLUNF76v1ML4rky1JfpvRzxU0p5tBPu5j7ZwGePbry7LBWdGlpg015EbFHYvnix3hOF1Xurdi78/ATIYzrYkNpUiL/i3Pg8bYpTHv3NKk6QG1Lr5HdmdLPg9a2FVw4dY6vVkSz+5LW4Kkrru6EehXyxzdnOHZRBxcT+HJza74d5IP/phPEGT4E+Sdj+ewkqNvaMInm9a39uumK2b855sr/z2ZR6tua99u74KpkcrGihJSkGms5aDwZFQD7V14g96qko4KtQ3NsKSMrr5zLk6BVTgzu24LU7dtYfTIXLXks3eLD4j6t8d8UzWkjzt9oRpalKysmMTGbM7WUbaiuLf1xo2j68ubSCUQ/GcL9B9vw9z9+551RO3j0t65Nc3tEtlzbQwh9fIB96B8X1gK6dL5/uB3PbC6tsaMGNi5kyveevLzzqRrbyzhnEduFEEIIIeomSWEhhDBIoeXAEJ5rl8uH7+/nWKEV3v6eeFRNxtFeOMXzz56qY/kINd3H9uZvAeks+s8BonUuTHyyB/8al8+079MoqlGOY2gn7tl6lNdfzyDb1oVglwp0gL09xGw5zIqEfPKsnRg+KYzwcflMWZFGiaKh/6Q7GG9/noUL4kl1bcuMKS5YpaZcLr/LmD681uUSS5ZsJTLbmqDhPXj1qRIS34sl0UBSU1GrUKGlrMZSEWVlWhQPZ3w1EFekf99bT8HW3YvBgTZkxuaQXUumzL6rL32VFBaeuGbdCJU9o2cM4TFVDNPnn+RsVb0ozZ1o51FO7Nk8KjfpuJCQRd4oZwJs4XS+8dG5DxrAtw+71/Lmq+XE6k28vMt0Zd3OrAKHMrh8A08fKMWaWNb8fJ4Xh9+Bzbn+TXK7dcQmSg1XixC3Jx8gSf+4YL02Ts+OJZzdtx2a3UeFRW4XQgghhKibLB8hhBAGKbi62KBLz+RwUiEZl3I5duA0W84ZOTfPyo27w5px8LdjbEkoIPVcIl/9egH70DYEWV/91GaXzrF0QxoXirUUZ2awN64IHTpO7zjGyn1pnL5YyIWkVFZtT8e+nRutVKDYenJ3kI7ta0+wN7mAc1EnWXm49MrMweZejOmnZtPKSDadzuNieiZb/hdLdKtW9HE3/DNTbcYlTubYM3CgJ25WYOXgxrj+rqgUaxxtG8vPVBXc7urP+iUP8POCXtyRcpTZa9K57lpvSnP69vGi6HAikcZeCM6uGY6UklvYnEHT7uOHZ9vgWlhKHs1wsqvf+WcdOMTf5tVcyqL6tpV39xShM7IsdavOLF4yjs1fVt42/LMzbeUd/TKVtw8e6amop6wjdfdM3C6m4dCyJY4tm+Z2+8bSDYVobGwAbyBT/7hgrwCKO5O+iyUhIYGEhNP8/Ky/fEkSQgghRJMnM4WFEMIgLacPnCNxRjCL32jJwdhMThxPZOvJguuTjrVQ7O3wal7EidSyy4naotQ80jRutHRQIPNKcjn3fBaptczctfPzZ9q4dvRpa4dTMxWKAtr0QmwUULnY463O59CF6h21JKUWUOFd+T+1myO+tvYMmvkA4686rQJSHRS4aCC5XZ7B99/E4vvknfzQX6G8NJ8dfyRytrUDukbzm3UdWQcO8fxpDY7eXjw4LpDp/bOYszWXmpO2FZdW3NuxmD/XX7p+ZqU2j5XzI1iptwwtRbmFpFGGMdemq015QSEJhVBbDk+r03FltYS6y9KmnWXB0vjLs7x1pUUkm3IZCwunAApaUlfPYPiuTGKCljTp7UIIPZwBLeBkoP/o0ln5aIdrlo8QQgghhGjaJCkshBBGKD5zghmzkwnu6kH3Lq144sX29P1+C3N2FRq1lqdxE/l0lJbVktmzdmfKs10JOHyAVxZfJKlAi3WPXqwef/1T9ZZens7Hs3fwS7ax+1wtJ+YEM18/hZNzMygopqh9CN9pS8gsaDRZYSoKCkkoKITkLBKsW7BibABBO45w5HJWWKHNnb50TE/is3P1yKAWlJJLMxxtS9m7ajt7AatOnjhQSk49z9/9rv4Glo8wVFZlS6prTWEBFanJXHRvhUduLPszVfgP9SAvJYWclKa5Pb/xdEMhGhcvoKjyXt+4IP1HCCGEELcr+WWUEEIYqTwvh4N7TrNs2Q7m/1lG9yBXNDWfoNOhRYVaffV+uvwCUott8PO2vpwctvFywKO0kNQ8w99GFWdnAuyz2bT5AokFWnQoeHvbY129pvGlfFIq7GnrVT2kq2jlbUd1GBUZOZwrcySwrbWRyWk9dBXkZBWRU2pF91BP7BIzONVIJ1UpCqg0VtjU3KhuwZA7HTm7L5GEWpOpKuycbPF0sr4qaasrziEuzYoOfvZVb5oKnr4tcMjIIb6wfnEZWj5Ca8Kybmfl0ZvYZj2cCb3sUTSdGP+ALzs2HqCoiW6/0ZnrQjR5XkB25b2+cUH6jxBCCCFuV5IUFkIIgxTaDwjiwTA3/Fyb4+7jzcAOGi5eyL/qy6Q2q4B0nAkLssPWWo21uioFW36JrYdKCbsviMF+dni1ac3UEV4UHErkmBHfRnV5BaSWONCtQ3OsAI2XL48NcLw8gOuKLrL1mMJdoztzh5cNPoEdmRhcIwFcfIG1O0voO7EnD3Z1wsvNgU7d/HnmqU4EqWsv89rzdwtqx7ieHgT6uzNodC9e7g3bNiaSZuQMK0Vjg29rZ/w9NVgrVrh5OxHQ2h4nE/xeRXH24anJnRke4kGgnwshvbrwj9GeFJ+4wMkaV93RtG/DIJcsth7Mp/acsB2jXhjK/81oR+ua747aHLbuzsb7riDGdXKkTYcApt3tSPzu8/WeqVueX0B8YjZnrrvlkJynNUlZhura0h83SslO5j/7E0FLIzl9MoIRh2Yw6+csdE11ez2qRojbiieQXnVf7/5jTb9/H+J8/LdM9OjH2wcTOfP1OBwtZrsQQgghRN2UwoIrP5o6GXWYzt16XP73zGVpZgtMCCEaD4XWfXrw4r0eBHg0R1NWxOnDsXz2Y5JOydsAABH/SURBVDyni2o+zZrAYT155V4PfOzUVEQfYtLHCeToQGnuzH0PBTOpRwtcKSHu6Ck+WXmG2Mv7q+g99X6m5+/hyf9mXLUOLii4dw/itYltaKsuJysjjbUnNDzVt4DZc6KIrgDFwZ1HnghhXGdbSpPOs/q0A4+1Tebp9+IqlwxW23LH/d14oq8Hfg6QdymHqMOnWbY2hQtGJBtdgrvzr4ltCHBWU5SWwZb1kXx9IO/qNZWtWvLGh11J+89mvjp79ddsq07BfPdKAG41pypXZLL0n9tZXSOzrPYNZMk/HPj+1b1su3bBZj3HV2zdefCRzgxp74S3oxUUFnDy6BmW/e8MMZdn11rRe8owZjlG8+RHZ7lUWxZA5cCkN4bwmCqG6fNPcrZmvaht6Ts2lGn9XHGjmBO7j/Hh/5JJveZS73XGb6w6y1LwvX8wn/VMZca8E7Umig3VtaU/vnCqx1WfVWr+O7T3gHpUtBCNk5/fSyQkLDJ3GE3D61SuKawC3jFzLEIIGd+EaKJ04eEo4eHmDsPsLHGMk6SwEEI0OQrtRg/hPe+TPLI4iVu26kAdSWFj3UhSuDExSVJY1EmSwqKps8QvFI3WR8BfQF9ghpljEULI+CZEEyVJ4UqWOMbJ8hFCCNEE2Pj5MLSLIy00ahxbtWF8Lw2HD6VTZHhXk9Jix7jXxrD2lQDc67OAsdKcES+N5pfXO+ADen/Oe8PHv9mMjF8IIcQt5AWcqroXQgghhBBXMcFqjkIIIcxNsXFi6KRgprtZoy7I48C2fXx8sOTWJifLU3jnxYgb+4Wurpj1i9ay/mYd/2YzJn5xa0hGXli4BCxrhkmjpQM2UZkUdkLGBiEaARnfhGii5iLvs1jmGCdJYSGEaAIKT0bzypzo+u+ocmLIGF8C9F1wTpvL1nUJnJbLswtL0ZhmkAtxAyzxp4eNlorKNYXvq7oXQpiVjG9CNFHhyGdwLHOMk6SwEELczrQ5/PFTFH+YOw4hTMDP7yVzhyCESUhbFkI0VTK+CdE0Sd+uZGn1UGdSePOX425VHEIIIYQQBh3eu1PvY5b2l3khamOJs0yEEMIYMr4J0VSFS9/GMse4OpPC9zy95lbFIYQQQghh0MKpHuYOQQghhBBCCCEsnsrcAQghhBBCCCGEEEIIIYS4dSQpLIQQQgghhBBCCCGEELcRSQoLIYQQQgghhBBCCCHEbaTONYWFEEIIo1m15I1FvRmkgfLYSB5/P440nZH7KjaMemUYL3RSQVkyb7+8l20lJjz+zWZM/EIIIYQQQgghRCMhSWEhhDARddsgvnrVlq9f2seOcnNHY1oar9Y89XAXBrezRVNcQNTu43wckcKFimueqM3jv29v5quzNbK1SnNC7u3CxDu96OipQVWQx9Hd0XzxSyoXqutJV8S6DyL41TeQJf9w0B9IrcfX0GtMGI/1bIGvizW6/Dyi9sbw+dokkstAcQngvQXBdL/mHU9XlMjcV/fzV5kRFaCypc/YHjzdzw13pYgTfx3nwzXJV87f2PiNYais2/1xIYQQQgghhBANJstHCCGEqJvKmYnTQulbfIbwuRuZ9lksOcFhvHGPo3FvImoHenS2InZHFAs+3EF4RDot7urF3PucTfSXSQVd/iU2rDnArIV/MntVMkqvMOaOcMEK0OUk8eGCLTw7r/q2jY8OlpB/MpVjRiXvFVrf3ZOZveH3JVv522fxFPesPH+1SeKvT1nyuLH16DpwDr8diyUm9gTbPxyFj7opbxdCCCGEEEKI+pGksBBCGEPjxH2P38WKj8bw26cj+PaNOxndpjJBpfLqyKeLx/H7Gx3w0fgw54txbP5yHL/N8MNJubL/8Meq9v94OB896U+75jULUNF76ki+e7gNA8b35/8WjWH9R8OYO9AeFQrePYKY+8YwVn/6AOsXDePDx/1pb3Nlb8XenUeev5efPh/Nqjd6MP7Bgfwysz3e1eWrbek1pjdL3h/Nb5+PYPmMIPq4GvcWoLi6E+pVyB+/nuHYxUJSziTw5eYs/O/0wd+YQ5Sns2zRfpZvS+Jg3CWO7D7Gsr2l+AR64GmKdyFdMfs3x7D+0EWOnc0k6mAM3+4txKu9C64KUFFCSlI2ZxKrbmnWtA+A/XsvkHvV8hMKtg42uDlYXZ3sVTkxuG8LUrcfY/XJXM7FxrF0Sy7+fVobd/71Yagsedy4etT05c2lE4h+JoTOXcfxa9gnvDPKGaWpbjdxMxRCCCGEEEI0fbJ8hBBCGKTQcmAIz7XL5cP393Os0Apvf088qjIx2guneP7ZU3UsH6Gm+9je/C0gnUX/OUC0zoWJT/bgX+PymfZ9GkU1ynEM7cQ9W4/y+usZZNu6EOxSgQ6wt4eYLYdZkZBPnrUTwyeFET4unykr0ihRNPSfdAfj7c+zcEE8qa5tmTHFBavUlMvldxnTh9e6XGLJkq1EZlsTNLwHrz5VQuJ7sSRqDZy9WoUKLWU1fr5fVqZF8XDGVwNxRfr31VefzZurKM8tJs/kawIr2Lp7MTjQhszYHLJrOb59V1/6KiksPHHNuhEqe0bPGMJjqhimzz/J2ap6UZo70c6jnNizeVRu0nEhIYu8Uc4E2MLpfOOjcx80gG8fdq/lzVfLidWbeHlX3WXFaeVxMNzgrAKHMrh8A0//f3v3HhxVeYdx/DnZbC7kCoRcCJJAuKgQBRFBKKCiUh2myKWiY1tRW2q1FUunYkU7qaVTtTPVcabjpV6m9QIzioCibbkEDRYCuSiJIUhQEhKyucdcdrPZbHb7hxJDCewJBjF7vp+ZzCTv2bPve87svtl58sv75nlk12Ft3HxM991whSIr5gRlu33TNnnMvwwBAAAAgEphAAjM0PBhkfLXN6mwyqWGxlYV55VpZ4XJRDM0QfMvD1P+e8XaWe6Uo6JSL7xbo+hpo5VpP/mhYY0Vev5fdapx++RualDukQ755VdZTrHW76tTWa1LNVUObXi/XtHjEpQaIhlDkjQ/06/3txxU7nGnKopKtb7Qo57RRSTrpu/ZtG39AW0ra1NtfZN2vnlYJampmjUicI2hr6FRpS3RmjcvSQmhUmhMgpbOGa4Qw67YIf2vUQxNGaubp3RpR7ZjAENhQwlXzdHW5xZr859m6Irqj7V2Y71O2evNiNDsWcnqKKzUAbMbwUWFKVYetboidPXKG/X63aM13OVRm8IUF9W/62/OK9C9j/ZeyuLEV7ae2Nshf6C+OG7qPoekjFJivUO2O9+WY88aJdTWKWbkSMWODM72aEqFAQAAAPQTlcIAEJBPZXkVqlw1Rc8+NFL5h5t08JNKZZc6Tw0d+2BERyk5okMHHV09QW2Ho0114QkaGWNITV8no63HmuXoo3I3Kn2sVi4dp1ljohQXFiLDkHz1LkUaUsiwaKXY2lVQc+JEn6ocTnWnfPmTLSFWaUOidfWaxVp20mU55YgxpNoAyay3Qa/947DS7pip1+cY8nralbOjUkcviJG/n6GuEZ2olSsnyrZjj14o/fp+fHN+NecV6Jdl4YpNSdbNSyfpnjnNeiS7Vb2Lto1hqbp+olsfbG08tbLS16b16zZp/Wn78Kmj1aU6dcnM3nR98TpdKnf1vTKuz++XepYUCdSX1Y+fmSHJkE+ON1bphg+bdCjzuaBuBwAAAID+IhQGABPcnx3UqrXHNWVyoi69OFUr7huv2a/t1CMfukwFm+YK+fzydPWRCNtH6M67JyujME+rn61VldMn+2Uz9MayUx962t699Xp6bY7e+cLsOSdrOXRQax78VHHxYZLTrY7xU/WKr1NNTvOxrhE5TLfdO11Tj+Trga1NJhYB6J9up0vlTpd0vFnl9qF6dUmGMnM+0kc9qbCh0TPTNLG+Sn+rCLBmRm9Oj1oVptghHuVueF+5kkIvTFKMPGrpx/VL0oir5gRYPiJAXz6Om9HtOK7aEalKbD2s/U0hGrsgUW3V1WqpDs729gFfhgUAAABAsGP5CAAwydvWovy9ZXrxxRyt+6BLl2YOV3jvB/j98ilENtvJ5/nbnXK4I5WeYu8JhyOTY5TocclhYv0EIz5eGdFfaNv2GlU6ffLLUEpKtOwn1jRubFd1d7TGJJ+Y0kOUmhLVs1lad0OLKrpiNWmM3WQ4fRr+brU0d6jFE6pLpyUpqrJBn5pdyDQsTot/fqWuayzSw+tr1HyOQyzDkELCQxXZu9E2VNfOjNXRfZUq7zMTDlFU3BAlxdlPCm397hYdqQvVhPTor35pGkpKG6qYhhZ97urfuAItH+EL0FegsVjhuBnekm3aZb9BP5wRLSP8Qi1bnKac/+SpI0jbz7ZyHQAAAIB1USkMAAEZGj93sqa6HNp/tF3OyOGaNyFctcXtJ4Uxvman6nWBLs+M0r4DbnX5fOrq9kveRmUXeLTuxkxdU3tIJb5hWr4wWc6CXBWbSHP8bU45OmN0yYQIvbevQ7bkNP1kbqxCfPVfHu+oVXZxpn696CLtbf5M1cPHaPkUu4zar57AXaMtuzv12PLpurmrRB/U+BQ/coTmXRGmPS8fUnH36fs+cf0JmRmaF9GqQ41+JWZO1M+ulHY9U6k6M+FuSJQW/HS2bo89rie3tCk6NV7Rkvxet6pr3HJ/w4DYiB+luxbG6HhJo441exWWlKyli5LkPpiv0l7XFj5+tK4e1qyN+e3qOxOO0g9+depGc/K1KHvPF1pyfaaWHinWPl+i7pofq8+zC/RZPwqOJcnb7tTnZ9yYLlBfHJdGBL7Rnbu17u639OrzB1QW6VX126v0o83N8ncHaXv/XoYAAAAAQCgMAGa4vWGavnC6bkmMUHhXh8oKi/X4v5vVO0/1t1bplXdTtPq267RppU3dJQW69elytfi9OvBWrp65ZYruWH29hqtTRz7+RI9urJWpQlO3Qy/9M0EPLJ+vDUu8am6o05acGk2bfaLjTu3esF+jV0zV734/Tp6qY3pjb7MmjvF/FX52q2Tzf/XHrku04sfzdHuM1NbYoqLCMtWbSpP88tmiNHfJRboj3qaOugbtfOlDvVzkMRdG2Ydp5uRIDbFnaO1DGT3NvoYyrX64SCUBQ+kAPJ1qixyrJbeOU0psqORyqvTjIj38ZmWviuRQXTZrlGLLSpTT2N8Iza/Knfv1RNw0rfzFNVohtw7uydeft7fqmw69/31x3Ox9bMjO0vcnZVmkHQAAAAD6x3A5v16JrrSoUBddclnP92terDtvAwMAnC1D4xZdq7+klOq2Z6vMBc8DIXSkHvrrZNU9uV0vHD272kVb2iQ999sYvfabXO36/138BuD5z7Uzjh8D4vG7Ek/6rNL7+2lXzj2fQwMGRHr6/Sovf+p8DwMABhzzGxCc/FlZMrKyzvcwzrvBOMexpjAABIHI9FFacHGshobbFJs6WstmhKuwoH7AN3MLxKcoLX3gJm1ZnaER/VnA2IjQwvsX6Z0HJ2iUTl8PetbPf66ZHD8AAAAAAN8FLB8BAEHAiIzTglun6J4Eu2zONuXt2qen8zu/3XDSW63H7tukx87mXL9bW5/aoq3n6vnPNTPjx7eDRB6DXLkGV4UJAJjF/AYEqT+Iz+AanHMcoTAABAFXaYlWP1LS/xND4nTtTWnKsJ3muK9V2W+Xq8zEhnjAd8J3qYIcOAuD8V8PAcAM5jcgSGWJz+AanHMcoTAAWJmvRTveKtKO8z0OYACkp99/vocADAheywCCFfMbEJx4b39psN2HM4bC2/++9NsaBwAAQECFubtPe2yw/WUe6MtgrDIBADOY34BglcV7W4NzjmOjOQAAAAAAAACwEEJhAAAAAAAAALAQQmEAAAAAAAAAsBBCYQAAAAAAAACwEEJhAAAAAAAAALAQQmEAAAAAAAAAsBBCYQAAAAAAAACwEEJhAAAAAAAAALAQQmEAAAAAAAAAsBBCYQAAAAAAAACwEEJhAAAAAAAAALAQQmEAAAAAAAAAsBBCYQAAAAAAAACwEEJhAAAAAAAAALAQQmEAAAAAAAAAsBBCYQAAAAAAAACwEEJhAAAAAAAAALAQQmEAAAAAAAAAsBBCYQAAAAAAAACwEEJhAAAAAAAAALAQQmEAAAAAAAAAsBBCYQAAAAAAAACwEEJhAAAAAAAAALAQQmEAAAAAAAAAsBBCYQAAAAAAAACwEEJhAAAAAAAAALCQ/wFhtggs7KSIbQAAAABJRU5ErkJggg==;" vertex="1" parent="1">
          <mxGeometry x="570" y="90" width="1413" height="407" as="geometry" />
        </mxCell>
        <mxCell id="cLbBCrO1Dv--UksHOVVd-2" value="" style="shape=flexArrow;endArrow=classic;html=1;rounded=0;entryX=0.625;entryY=0.375;entryDx=0;entryDy=0;entryPerimeter=0;fillColor=#dae8fc;strokeColor=#6c8ebf;" parent="1" edge="1">
          <mxGeometry width="50" height="50" relative="1" as="geometry">
            <mxPoint x="1260" y="50" as="sourcePoint" />
            <mxPoint x="1349.375" y="209.875" as="targetPoint" />
          </mxGeometry>
        </mxCell>
        <mxCell id="cLbBCrO1Dv--UksHOVVd-3" value="" style="shape=flexArrow;endArrow=classic;html=1;rounded=0;entryX=0.653;entryY=0.375;entryDx=0;entryDy=0;entryPerimeter=0;fillColor=#dae8fc;strokeColor=#6c8ebf;" parent="1" edge="1">
          <mxGeometry width="50" height="50" relative="1" as="geometry">
            <mxPoint x="1401" y="50" as="sourcePoint" />
            <mxPoint x="1400.8670000000002" y="209.875" as="targetPoint" />
          </mxGeometry>
        </mxCell>
        <mxCell id="cLbBCrO1Dv--UksHOVVd-4" value="" style="shape=flexArrow;endArrow=classic;html=1;rounded=0;entryX=0.908;entryY=0.375;entryDx=0;entryDy=0;entryPerimeter=0;fillColor=#dae8fc;strokeColor=#6c8ebf;" parent="1" edge="1">
          <mxGeometry width="50" height="50" relative="1" as="geometry">
            <mxPoint x="1730" y="50" as="sourcePoint" />
            <mxPoint x="1869.812" y="189.875" as="targetPoint" />
          </mxGeometry>
        </mxCell>
        <mxCell id="cLbBCrO1Dv--UksHOVVd-5" value="Write 0xffffffff to 0x19" style="rounded=0;whiteSpace=wrap;html=1;fontSize=18;fontStyle=1" parent="1" vertex="1">
          <mxGeometry x="1160" width="140" height="60" as="geometry" />
        </mxCell>
        <mxCell id="cLbBCrO1Dv--UksHOVVd-6" value="Write 0x11111111 to 0x19" style="rounded=0;whiteSpace=wrap;html=1;fontSize=18;fontStyle=1" parent="1" vertex="1">
          <mxGeometry x="1340" width="140" height="70" as="geometry" />
        </mxCell>
        <mxCell id="cLbBCrO1Dv--UksHOVVd-7" value="Read from 0x19&lt;div&gt;returns 0xffffffff&lt;/div&gt;" style="rounded=0;whiteSpace=wrap;html=1;fontSize=18;fontStyle=1" parent="1" vertex="1">
          <mxGeometry x="1650" width="180" height="70" as="geometry" />
        </mxCell>
      </root>
    </mxGraphModel>
  </diagram>
</mxfile>
